<ttFont>
    <TTGlyph name=".notdef" xMin="102" yMin="0" xMax="922" yMax="1462">
      <contour>
        <pt x="102" y="0" on="1"/>
        <pt x="102" y="1462" on="1"/>
        <pt x="922" y="1462" on="1"/>
        <pt x="922" y="0" on="1"/>
      </contour>
      <contour>
        <pt x="201" y="98" on="1"/>
        <pt x="823" y="98" on="1"/>
        <pt x="823" y="1364" on="1"/>
        <pt x="201" y="1364" on="1"/>
      </contour>
    </TTGlyph>
    <TTGlyph name="uni2C00" xMin="160" yMin="0" xMax="1514" yMax="1462">
      <contour>
        <pt x="929" y="1462" on="1"/>
        <pt x="929" y="780" on="1"/>
        <pt x="1314" y="780" on="1"/>
        <pt x="1433" y="780" on="0"/>
        <pt x="1514" y="699" on="0"/>
        <pt x="1514" y="580" on="1"/>
        <pt x="1514" y="0" on="1"/>
        <pt x="1330" y="0" on="1"/>
        <pt x="1330" y="518" on="1"/>
        <pt x="1330" y="577" on="0"/>
        <pt x="1291" y="618" on="0"/>
        <pt x="1230" y="618" on="1"/>
        <pt x="929" y="618" on="1"/>
        <pt x="929" y="0" on="1"/>
        <pt x="745" y="0" on="1"/>
        <pt x="745" y="618" on="1"/>
        <pt x="444" y="618" on="1"/>
        <pt x="385" y="618" on="0"/>
        <pt x="344" y="579" on="0"/>
        <pt x="344" y="518" on="1"/>
        <pt x="344" y="0" on="1"/>
        <pt x="160" y="0" on="1"/>
        <pt x="160" y="580" on="1"/>
        <pt x="160" y="666" on="0"/>
        <pt x="194" y="746" on="0"/>
        <pt x="276" y="780" on="0"/>
        <pt x="360" y="780" on="1"/>
        <pt x="745" y="780" on="1"/>
        <pt x="745" y="1462" on="1"/>
      </contour>
    </TTGlyph>
    <TTGlyph name="uni2C01" xMin="200" yMin="0" xMax="1555" yMax="1462">
      <contour>
        <pt x="1505" y="0" on="1"/>
        <pt x="400" y="0" on="1"/>
        <pt x="314" y="0" on="0"/>
        <pt x="234" y="34" on="0"/>
        <pt x="200" y="115" on="0"/>
        <pt x="200" y="200" on="1"/>
        <pt x="200" y="1462" on="1"/>
        <pt x="384" y="1462" on="1"/>
        <pt x="384" y="780" on="1"/>
        <pt x="785" y="818" on="1"/>
        <pt x="785" y="1462" on="1"/>
        <pt x="969" y="1462" on="1"/>
        <pt x="969" y="835" on="1"/>
        <pt x="1307" y="867" on="1"/>
        <pt x="1345" y="870" on="0"/>
        <pt x="1371" y="902" on="0"/>
        <pt x="1371" y="934" on="1"/>
        <pt x="1371" y="1462" on="1"/>
        <pt x="1555" y="1462" on="1"/>
        <pt x="1555" y="912" on="1"/>
        <pt x="1555" y="828" on="0"/>
        <pt x="1529" y="756" on="0"/>
        <pt x="1463" y="723" on="0"/>
        <pt x="1355" y="713" on="1"/>
        <pt x="384" y="622" on="1"/>
        <pt x="384" y="262" on="1"/>
        <pt x="384" y="218" on="0"/>
        <pt x="399" y="178" on="0"/>
        <pt x="435" y="162" on="0"/>
        <pt x="484" y="162" on="1"/>
        <pt x="1505" y="162" on="1"/>
      </contour>
    </TTGlyph>
    <TTGlyph name="uni2C02" xMin="200" yMin="0" xMax="1976" yMax="1462">
      <contour>
        <pt x="1228" y="162" on="1"/>
        <pt x="1228" y="1262" on="1"/>
        <pt x="1228" y="1348" on="0"/>
        <pt x="1262" y="1428" on="0"/>
        <pt x="1344" y="1462" on="0"/>
        <pt x="1428" y="1462" on="1"/>
        <pt x="1776" y="1462" on="1"/>
        <pt x="1895" y="1462" on="0"/>
        <pt x="1976" y="1381" on="0"/>
        <pt x="1976" y="1262" on="1"/>
        <pt x="1976" y="200" on="1"/>
        <pt x="1976" y="81" on="0"/>
        <pt x="1897" y="0" on="0"/>
        <pt x="1776" y="0" on="1"/>
        <pt x="400" y="0" on="1"/>
        <pt x="314" y="0" on="0"/>
        <pt x="234" y="34" on="0"/>
        <pt x="200" y="115" on="0"/>
        <pt x="200" y="200" on="1"/>
        <pt x="200" y="1262" on="1"/>
        <pt x="200" y="1348" on="0"/>
        <pt x="234" y="1428" on="0"/>
        <pt x="316" y="1462" on="0"/>
        <pt x="400" y="1462" on="1"/>
        <pt x="748" y="1462" on="1"/>
        <pt x="867" y="1462" on="0"/>
        <pt x="948" y="1381" on="0"/>
        <pt x="948" y="1262" on="1"/>
        <pt x="948" y="162" on="1"/>
      </contour>
      <contour>
        <pt x="1692" y="162" on="1"/>
        <pt x="1751" y="162" on="0"/>
        <pt x="1792" y="201" on="0"/>
        <pt x="1792" y="262" on="1"/>
        <pt x="1792" y="1200" on="1"/>
        <pt x="1792" y="1259" on="0"/>
        <pt x="1753" y="1300" on="0"/>
        <pt x="1692" y="1300" on="1"/>
        <pt x="1512" y="1300" on="1"/>
        <pt x="1453" y="1300" on="0"/>
        <pt x="1412" y="1261" on="0"/>
        <pt x="1412" y="1200" on="1"/>
        <pt x="1412" y="162" on="1"/>
      </contour>
      <contour>
        <pt x="764" y="1200" on="1"/>
        <pt x="764" y="1259" on="0"/>
        <pt x="725" y="1300" on="0"/>
        <pt x="664" y="1300" on="1"/>
        <pt x="484" y="1300" on="1"/>
        <pt x="425" y="1300" on="0"/>
        <pt x="384" y="1261" on="0"/>
        <pt x="384" y="1200" on="1"/>
        <pt x="384" y="262" on="1"/>
        <pt x="384" y="203" on="0"/>
        <pt x="423" y="162" on="0"/>
        <pt x="484" y="162" on="1"/>
        <pt x="764" y="162" on="1"/>
      </contour>
    </TTGlyph>
    <TTGlyph name="uni2C03" xMin="160" yMin="0" xMax="1801" yMax="1462">
      <contour>
        <pt x="1195" y="0" on="1"/>
        <pt x="1109" y="0" on="0"/>
        <pt x="1029" y="34" on="0"/>
        <pt x="995" y="115" on="0"/>
        <pt x="995" y="200" on="1"/>
        <pt x="995" y="566" on="1"/>
        <pt x="780" y="566" on="1"/>
        <pt x="757" y="567" on="1"/>
        <pt x="546" y="0" on="1"/>
        <pt x="369" y="0" on="1"/>
        <pt x="591" y="597" on="1"/>
        <pt x="401" y="655" on="0"/>
        <pt x="160" y="970" on="0"/>
        <pt x="160" y="1177" on="1"/>
        <pt x="160" y="1363" on="1"/>
        <pt x="160" y="1407" on="0"/>
        <pt x="212" y="1462" on="0"/>
        <pt x="260" y="1462" on="1"/>
        <pt x="1090" y="1462" on="1"/>
        <pt x="817" y="728" on="1"/>
        <pt x="1000" y="728" on="1"/>
        <pt x="1012" y="796" on="0"/>
        <pt x="1098" y="846" on="0"/>
        <pt x="1195" y="846" on="1"/>
        <pt x="1601" y="846" on="1"/>
        <pt x="1720" y="846" on="0"/>
        <pt x="1801" y="765" on="0"/>
        <pt x="1801" y="646" on="1"/>
        <pt x="1801" y="0" on="1"/>
      </contour>
      <contour>
        <pt x="1617" y="584" on="1"/>
        <pt x="1617" y="643" on="0"/>
        <pt x="1578" y="684" on="0"/>
        <pt x="1517" y="684" on="1"/>
        <pt x="1279" y="684" on="1"/>
        <pt x="1220" y="684" on="0"/>
        <pt x="1179" y="645" on="0"/>
        <pt x="1179" y="584" on="1"/>
        <pt x="1179" y="262" on="1"/>
        <pt x="1179" y="203" on="0"/>
        <pt x="1218" y="162" on="0"/>
        <pt x="1279" y="162" on="1"/>
        <pt x="1617" y="162" on="1"/>
      </contour>
      <contour>
        <pt x="344" y="1152" on="1"/>
        <pt x="344" y="1005" on="0"/>
        <pt x="510" y="785" on="0"/>
        <pt x="647" y="747" on="1"/>
        <pt x="853" y="1300" on="1"/>
        <pt x="417" y="1300" on="1"/>
        <pt x="369" y="1300" on="0"/>
        <pt x="344" y="1246" on="0"/>
      </contour>
    </TTGlyph>
    <TTGlyph name="uni2C04" xMin="200" yMin="0" xMax="2034" yMax="1462">
      <contour>
        <pt x="1212" y="1462" on="1"/>
        <pt x="1331" y="1462" on="0"/>
        <pt x="1412" y="1381" on="0"/>
        <pt x="1412" y="1262" on="1"/>
        <pt x="1412" y="878" on="1"/>
        <pt x="1834" y="878" on="1"/>
        <pt x="1953" y="878" on="0"/>
        <pt x="2034" y="797" on="0"/>
        <pt x="2034" y="678" on="1"/>
        <pt x="2034" y="200" on="1"/>
        <pt x="2034" y="81" on="0"/>
        <pt x="1955" y="0" on="0"/>
        <pt x="1834" y="0" on="1"/>
        <pt x="1428" y="0" on="1"/>
        <pt x="1342" y="0" on="0"/>
        <pt x="1262" y="34" on="0"/>
        <pt x="1228" y="115" on="0"/>
        <pt x="1228" y="200" on="1"/>
        <pt x="1228" y="1200" on="1"/>
        <pt x="1228" y="1259" on="0"/>
        <pt x="1189" y="1300" on="0"/>
        <pt x="1128" y="1300" on="1"/>
        <pt x="948" y="1300" on="1"/>
        <pt x="948" y="200" on="1"/>
        <pt x="948" y="81" on="0"/>
        <pt x="869" y="0" on="0"/>
        <pt x="748" y="0" on="1"/>
        <pt x="400" y="0" on="1"/>
        <pt x="314" y="0" on="0"/>
        <pt x="234" y="34" on="0"/>
        <pt x="200" y="115" on="0"/>
        <pt x="200" y="200" on="1"/>
        <pt x="200" y="1262" on="1"/>
        <pt x="200" y="1348" on="0"/>
        <pt x="234" y="1428" on="0"/>
        <pt x="316" y="1462" on="0"/>
        <pt x="400" y="1462" on="1"/>
      </contour>
      <contour>
        <pt x="484" y="1300" on="1"/>
        <pt x="425" y="1300" on="0"/>
        <pt x="384" y="1261" on="0"/>
        <pt x="384" y="1200" on="1"/>
        <pt x="384" y="262" on="1"/>
        <pt x="384" y="203" on="0"/>
        <pt x="423" y="162" on="0"/>
        <pt x="484" y="162" on="1"/>
        <pt x="664" y="162" on="1"/>
        <pt x="723" y="162" on="0"/>
        <pt x="764" y="201" on="0"/>
        <pt x="764" y="262" on="1"/>
        <pt x="764" y="1300" on="1"/>
      </contour>
      <contour>
        <pt x="1412" y="262" on="1"/>
        <pt x="1412" y="203" on="0"/>
        <pt x="1451" y="162" on="0"/>
        <pt x="1512" y="162" on="1"/>
        <pt x="1750" y="162" on="1"/>
        <pt x="1809" y="162" on="0"/>
        <pt x="1850" y="201" on="0"/>
        <pt x="1850" y="262" on="1"/>
        <pt x="1850" y="616" on="1"/>
        <pt x="1850" y="675" on="0"/>
        <pt x="1811" y="716" on="0"/>
        <pt x="1750" y="716" on="1"/>
        <pt x="1412" y="716" on="1"/>
      </contour>
    </TTGlyph>
    <TTGlyph name="uni2C05" xMin="100" yMin="-20" xMax="1208" yMax="1483">
      <contour>
        <pt x="100" y="1397" on="1"/>
        <pt x="274" y="1483" on="0"/>
        <pt x="516" y="1483" on="1"/>
        <pt x="733" y="1483" on="0"/>
        <pt x="1046" y="1307" on="0"/>
        <pt x="1208" y="981" on="0"/>
        <pt x="1208" y="756" on="1"/>
        <pt x="1208" y="382" on="0"/>
        <pt x="843" y="-20" on="0"/>
        <pt x="502" y="-20" on="1"/>
        <pt x="389" y="-20" on="0"/>
        <pt x="214" y="4" on="0"/>
        <pt x="113" y="39" on="1"/>
        <pt x="113" y="199" on="1"/>
        <pt x="199" y="176" on="0"/>
        <pt x="374" y="141" on="0"/>
        <pt x="473" y="141" on="1"/>
        <pt x="737" y="141" on="0"/>
        <pt x="1006" y="421" on="0"/>
        <pt x="1014" y="684" on="1"/>
        <pt x="303" y="684" on="1"/>
        <pt x="303" y="846" on="1"/>
        <pt x="1012" y="846" on="1"/>
        <pt x="992" y="1068" on="0"/>
        <pt x="729" y="1321" on="0"/>
        <pt x="514" y="1321" on="1"/>
        <pt x="347" y="1321" on="0"/>
        <pt x="176" y="1243" on="1"/>
      </contour>
    </TTGlyph>
    <TTGlyph name="uni2C06" xMin="200" yMin="0" xMax="1976" yMax="1822">
      <contour>
        <pt x="948" y="1300" on="1"/>
        <pt x="948" y="200" on="1"/>
        <pt x="948" y="81" on="0"/>
        <pt x="869" y="0" on="0"/>
        <pt x="748" y="0" on="1"/>
        <pt x="400" y="0" on="1"/>
        <pt x="314" y="0" on="0"/>
        <pt x="234" y="34" on="0"/>
        <pt x="200" y="115" on="0"/>
        <pt x="200" y="200" on="1"/>
        <pt x="200" y="1262" on="1"/>
        <pt x="200" y="1348" on="0"/>
        <pt x="234" y="1428" on="0"/>
        <pt x="316" y="1462" on="0"/>
        <pt x="400" y="1462" on="1"/>
        <pt x="918" y="1462" on="1"/>
        <pt x="872" y="1569" on="0"/>
        <pt x="679" y="1660" on="0"/>
        <pt x="520" y="1660" on="1"/>
        <pt x="468" y="1660" on="1"/>
        <pt x="468" y="1822" on="1"/>
        <pt x="506" y="1822" on="1"/>
        <pt x="728" y="1822" on="0"/>
        <pt x="1027" y="1654" on="0"/>
        <pt x="1088" y="1495" on="1"/>
        <pt x="1149" y="1656" on="0"/>
        <pt x="1449" y="1822" on="0"/>
        <pt x="1670" y="1822" on="1"/>
        <pt x="1708" y="1822" on="1"/>
        <pt x="1708" y="1660" on="1"/>
        <pt x="1656" y="1660" on="1"/>
        <pt x="1486" y="1660" on="0"/>
        <pt x="1298" y="1561" on="0"/>
        <pt x="1258" y="1462" on="1"/>
        <pt x="1776" y="1462" on="1"/>
        <pt x="1895" y="1462" on="0"/>
        <pt x="1976" y="1381" on="0"/>
        <pt x="1976" y="1262" on="1"/>
        <pt x="1976" y="200" on="1"/>
        <pt x="1976" y="81" on="0"/>
        <pt x="1897" y="0" on="0"/>
        <pt x="1776" y="0" on="1"/>
        <pt x="1428" y="0" on="1"/>
        <pt x="1342" y="0" on="0"/>
        <pt x="1262" y="34" on="0"/>
        <pt x="1228" y="115" on="0"/>
        <pt x="1228" y="200" on="1"/>
        <pt x="1228" y="1300" on="1"/>
      </contour>
      <contour>
        <pt x="764" y="1300" on="1"/>
        <pt x="484" y="1300" on="1"/>
        <pt x="425" y="1300" on="0"/>
        <pt x="384" y="1261" on="0"/>
        <pt x="384" y="1200" on="1"/>
        <pt x="384" y="262" on="1"/>
        <pt x="384" y="203" on="0"/>
        <pt x="423" y="162" on="0"/>
        <pt x="484" y="162" on="1"/>
        <pt x="664" y="162" on="1"/>
        <pt x="723" y="162" on="0"/>
        <pt x="764" y="201" on="0"/>
        <pt x="764" y="262" on="1"/>
      </contour>
      <contour>
        <pt x="1412" y="1300" on="1"/>
        <pt x="1412" y="262" on="1"/>
        <pt x="1412" y="203" on="0"/>
        <pt x="1451" y="162" on="0"/>
        <pt x="1512" y="162" on="1"/>
        <pt x="1692" y="162" on="1"/>
        <pt x="1751" y="162" on="0"/>
        <pt x="1792" y="201" on="0"/>
        <pt x="1792" y="262" on="1"/>
        <pt x="1792" y="1200" on="1"/>
        <pt x="1792" y="1259" on="0"/>
        <pt x="1753" y="1300" on="0"/>
        <pt x="1692" y="1300" on="1"/>
      </contour>
    </TTGlyph>
    <TTGlyph name="uni2C07" xMin="200" yMin="0" xMax="1548" yMax="1462">
      <contour>
        <pt x="400" y="0" on="1"/>
        <pt x="314" y="0" on="0"/>
        <pt x="234" y="34" on="0"/>
        <pt x="200" y="115" on="0"/>
        <pt x="200" y="200" on="1"/>
        <pt x="200" y="646" on="1"/>
        <pt x="200" y="732" on="0"/>
        <pt x="234" y="812" on="0"/>
        <pt x="316" y="846" on="0"/>
        <pt x="400" y="846" on="1"/>
        <pt x="782" y="846" on="1"/>
        <pt x="782" y="1262" on="1"/>
        <pt x="782" y="1348" on="0"/>
        <pt x="816" y="1428" on="0"/>
        <pt x="898" y="1462" on="0"/>
        <pt x="982" y="1462" on="1"/>
        <pt x="1448" y="1462" on="1"/>
        <pt x="1496" y="1462" on="0"/>
        <pt x="1548" y="1407" on="0"/>
        <pt x="1548" y="1363" on="1"/>
        <pt x="1548" y="1249" on="1"/>
        <pt x="1548" y="1128" on="0"/>
        <pt x="1452" y="921" on="0"/>
        <pt x="1356" y="846" on="1"/>
        <pt x="1473" y="844" on="0"/>
        <pt x="1548" y="763" on="0"/>
        <pt x="1548" y="646" on="1"/>
        <pt x="1548" y="200" on="1"/>
        <pt x="1548" y="81" on="0"/>
        <pt x="1469" y="0" on="0"/>
        <pt x="1348" y="0" on="1"/>
      </contour>
      <contour>
        <pt x="484" y="684" on="1"/>
        <pt x="425" y="684" on="0"/>
        <pt x="384" y="645" on="0"/>
        <pt x="384" y="584" on="1"/>
        <pt x="384" y="262" on="1"/>
        <pt x="384" y="203" on="0"/>
        <pt x="423" y="162" on="0"/>
        <pt x="484" y="162" on="1"/>
        <pt x="782" y="162" on="1"/>
        <pt x="782" y="684" on="1"/>
      </contour>
      <contour>
        <pt x="1264" y="162" on="1"/>
        <pt x="1323" y="162" on="0"/>
        <pt x="1364" y="201" on="0"/>
        <pt x="1364" y="262" on="1"/>
        <pt x="1364" y="584" on="1"/>
        <pt x="1364" y="643" on="0"/>
        <pt x="1325" y="684" on="0"/>
        <pt x="1264" y="684" on="1"/>
        <pt x="966" y="684" on="1"/>
        <pt x="966" y="162" on="1"/>
      </contour>
      <contour>
        <pt x="999" y="846" on="1"/>
        <pt x="1109" y="858" on="0"/>
        <pt x="1274" y="955" on="0"/>
        <pt x="1364" y="1127" on="0"/>
        <pt x="1364" y="1233" on="1"/>
        <pt x="1364" y="1273" on="0"/>
        <pt x="1331" y="1300" on="0"/>
        <pt x="1291" y="1300" on="1"/>
        <pt x="1066" y="1300" on="1"/>
        <pt x="1007" y="1300" on="0"/>
        <pt x="966" y="1261" on="0"/>
        <pt x="966" y="1200" on="1"/>
        <pt x="966" y="846" on="1"/>
      </contour>
    </TTGlyph>
    <TTGlyph name="uni2C08" xMin="200" yMin="0" xMax="1926" yMax="1462">
      <contour>
        <pt x="438" y="1462" on="1"/>
        <pt x="669" y="1462" on="0"/>
        <pt x="933" y="1144" on="0"/>
        <pt x="952" y="846" on="1"/>
        <pt x="1726" y="846" on="1"/>
        <pt x="1845" y="846" on="0"/>
        <pt x="1926" y="765" on="0"/>
        <pt x="1926" y="646" on="1"/>
        <pt x="1926" y="200" on="1"/>
        <pt x="1926" y="81" on="0"/>
        <pt x="1847" y="0" on="0"/>
        <pt x="1726" y="0" on="1"/>
        <pt x="1320" y="0" on="1"/>
        <pt x="1234" y="0" on="0"/>
        <pt x="1154" y="34" on="0"/>
        <pt x="1120" y="115" on="0"/>
        <pt x="1120" y="200" on="1"/>
        <pt x="1120" y="684" on="1"/>
        <pt x="955" y="684" on="1"/>
        <pt x="943" y="347" on="0"/>
        <pt x="670" y="0" on="0"/>
        <pt x="420" y="0" on="1"/>
        <pt x="200" y="0" on="1"/>
        <pt x="200" y="1462" on="1"/>
      </contour>
      <contour>
        <pt x="1304" y="262" on="1"/>
        <pt x="1304" y="203" on="0"/>
        <pt x="1343" y="162" on="0"/>
        <pt x="1404" y="162" on="1"/>
        <pt x="1642" y="162" on="1"/>
        <pt x="1701" y="162" on="0"/>
        <pt x="1742" y="201" on="0"/>
        <pt x="1742" y="262" on="1"/>
        <pt x="1742" y="584" on="1"/>
        <pt x="1742" y="643" on="0"/>
        <pt x="1703" y="684" on="0"/>
        <pt x="1642" y="684" on="1"/>
        <pt x="1304" y="684" on="1"/>
      </contour>
      <contour>
        <pt x="384" y="162" on="1"/>
        <pt x="401" y="162" on="1"/>
        <pt x="583" y="162" on="0"/>
        <pt x="754" y="414" on="0"/>
        <pt x="761" y="684" on="1"/>
        <pt x="384" y="684" on="1"/>
      </contour>
      <contour>
        <pt x="384" y="846" on="1"/>
        <pt x="759" y="846" on="1"/>
        <pt x="745" y="1069" on="0"/>
        <pt x="582" y="1300" on="0"/>
        <pt x="436" y="1300" on="1"/>
        <pt x="384" y="1300" on="1"/>
      </contour>
    </TTGlyph>
    <TTGlyph name="uni2C09" xMin="160" yMin="0" xMax="2036" yMax="1462">
      <contour>
        <pt x="2036" y="1098" on="1"/>
        <pt x="2036" y="848" on="0"/>
        <pt x="1854" y="633" on="0"/>
        <pt x="1662" y="633" on="1"/>
        <pt x="1472" y="633" on="0"/>
        <pt x="1379" y="752" on="1"/>
        <pt x="1311" y="666" on="0"/>
        <pt x="1190" y="641" on="1"/>
        <pt x="1190" y="162" on="1"/>
        <pt x="1402" y="162" on="1"/>
        <pt x="1402" y="0" on="1"/>
        <pt x="794" y="0" on="1"/>
        <pt x="794" y="162" on="1"/>
        <pt x="1006" y="162" on="1"/>
        <pt x="1006" y="641" on="1"/>
        <pt x="883" y="665" on="0"/>
        <pt x="816" y="751" on="1"/>
        <pt x="724" y="633" on="0"/>
        <pt x="534" y="633" on="1"/>
        <pt x="342" y="633" on="0"/>
        <pt x="160" y="848" on="0"/>
        <pt x="160" y="1098" on="1"/>
        <pt x="160" y="1462" on="1"/>
        <pt x="2036" y="1462" on="1"/>
      </contour>
      <contour>
        <pt x="1472" y="1080" on="1"/>
        <pt x="1472" y="916" on="0"/>
        <pt x="1557" y="795" on="0"/>
        <pt x="1662" y="795" on="1"/>
        <pt x="1735" y="795" on="0"/>
        <pt x="1817" y="851" on="0"/>
        <pt x="1852" y="971" on="0"/>
        <pt x="1852" y="1098" on="1"/>
        <pt x="1852" y="1300" on="1"/>
        <pt x="1472" y="1300" on="1"/>
      </contour>
      <contour>
        <pt x="908" y="1082" on="1"/>
        <pt x="908" y="962" on="0"/>
        <pt x="944" y="849" on="0"/>
        <pt x="1026" y="795" on="0"/>
        <pt x="1098" y="795" on="1"/>
        <pt x="1169" y="795" on="0"/>
        <pt x="1252" y="849" on="0"/>
        <pt x="1288" y="965" on="0"/>
        <pt x="1288" y="1082" on="1"/>
        <pt x="1288" y="1300" on="1"/>
        <pt x="908" y="1300" on="1"/>
      </contour>
      <contour>
        <pt x="724" y="1300" on="1"/>
        <pt x="344" y="1300" on="1"/>
        <pt x="344" y="1098" on="1"/>
        <pt x="344" y="969" on="0"/>
        <pt x="380" y="850" on="0"/>
        <pt x="462" y="795" on="0"/>
        <pt x="534" y="795" on="1"/>
        <pt x="606" y="795" on="0"/>
        <pt x="688" y="850" on="0"/>
        <pt x="724" y="968" on="0"/>
        <pt x="724" y="1098" on="1"/>
      </contour>
    </TTGlyph>
    <TTGlyph name="uni2C0A" xMin="160" yMin="0" xMax="2036" yMax="1462">
      <contour>
        <pt x="2036" y="1098" on="1"/>
        <pt x="2036" y="848" on="0"/>
        <pt x="1854" y="633" on="0"/>
        <pt x="1662" y="633" on="1"/>
        <pt x="1472" y="633" on="0"/>
        <pt x="1379" y="752" on="1"/>
        <pt x="1364" y="732" on="0"/>
        <pt x="1346" y="716" on="1"/>
        <pt x="1472" y="608" on="0"/>
        <pt x="1472" y="344" on="1"/>
        <pt x="1472" y="0" on="1"/>
        <pt x="724" y="0" on="1"/>
        <pt x="724" y="344" on="1"/>
        <pt x="724" y="607" on="0"/>
        <pt x="849" y="716" on="1"/>
        <pt x="832" y="731" on="0"/>
        <pt x="816" y="751" on="1"/>
        <pt x="724" y="633" on="0"/>
        <pt x="534" y="633" on="1"/>
        <pt x="342" y="633" on="0"/>
        <pt x="160" y="848" on="0"/>
        <pt x="160" y="1098" on="1"/>
        <pt x="160" y="1462" on="1"/>
        <pt x="2036" y="1462" on="1"/>
      </contour>
      <contour>
        <pt x="1472" y="1098" on="1"/>
        <pt x="1472" y="922" on="0"/>
        <pt x="1557" y="795" on="0"/>
        <pt x="1662" y="795" on="1"/>
        <pt x="1735" y="795" on="0"/>
        <pt x="1817" y="851" on="0"/>
        <pt x="1852" y="971" on="0"/>
        <pt x="1852" y="1098" on="1"/>
        <pt x="1852" y="1300" on="1"/>
        <pt x="1472" y="1300" on="1"/>
      </contour>
      <contour>
        <pt x="908" y="1300" on="1"/>
        <pt x="908" y="1098" on="1"/>
        <pt x="908" y="968" on="0"/>
        <pt x="944" y="850" on="0"/>
        <pt x="1025" y="795" on="0"/>
        <pt x="1098" y="795" on="1"/>
        <pt x="1169" y="795" on="0"/>
        <pt x="1251" y="848" on="0"/>
        <pt x="1288" y="966" on="0"/>
        <pt x="1288" y="1098" on="1"/>
        <pt x="1288" y="1300" on="1"/>
      </contour>
      <contour>
        <pt x="344" y="1300" on="1"/>
        <pt x="344" y="1098" on="1"/>
        <pt x="344" y="969" on="0"/>
        <pt x="380" y="850" on="0"/>
        <pt x="462" y="795" on="0"/>
        <pt x="534" y="795" on="1"/>
        <pt x="606" y="795" on="0"/>
        <pt x="688" y="850" on="0"/>
        <pt x="724" y="968" on="0"/>
        <pt x="724" y="1098" on="1"/>
        <pt x="724" y="1300" on="1"/>
      </contour>
      <contour>
        <pt x="1288" y="344" on="1"/>
        <pt x="1288" y="470" on="0"/>
        <pt x="1253" y="583" on="0"/>
        <pt x="1170" y="633" on="0"/>
        <pt x="1098" y="633" on="1"/>
        <pt x="1024" y="633" on="0"/>
        <pt x="943" y="582" on="0"/>
        <pt x="908" y="473" on="0"/>
        <pt x="908" y="344" on="1"/>
        <pt x="908" y="162" on="1"/>
        <pt x="1288" y="162" on="1"/>
      </contour>
    </TTGlyph>
    <TTGlyph name="uni2C0B" xMin="160" yMin="0" xMax="908" yMax="1462">
      <contour>
        <pt x="908" y="1118" on="1"/>
        <pt x="908" y="854" on="0"/>
        <pt x="782" y="745" on="1"/>
        <pt x="908" y="633" on="0"/>
        <pt x="908" y="364" on="1"/>
        <pt x="908" y="0" on="1"/>
        <pt x="160" y="0" on="1"/>
        <pt x="160" y="364" on="1"/>
        <pt x="160" y="631" on="0"/>
        <pt x="285" y="746" on="1"/>
        <pt x="160" y="855" on="0"/>
        <pt x="160" y="1118" on="1"/>
        <pt x="160" y="1462" on="1"/>
        <pt x="908" y="1462" on="1"/>
      </contour>
      <contour>
        <pt x="724" y="364" on="1"/>
        <pt x="724" y="493" on="0"/>
        <pt x="688" y="612" on="0"/>
        <pt x="606" y="667" on="0"/>
        <pt x="534" y="667" on="1"/>
        <pt x="461" y="667" on="0"/>
        <pt x="381" y="612" on="0"/>
        <pt x="344" y="496" on="0"/>
        <pt x="344" y="364" on="1"/>
        <pt x="344" y="162" on="1"/>
        <pt x="724" y="162" on="1"/>
      </contour>
      <contour>
        <pt x="344" y="1300" on="1"/>
        <pt x="344" y="1118" on="1"/>
        <pt x="344" y="990" on="0"/>
        <pt x="379" y="880" on="0"/>
        <pt x="460" y="829" on="0"/>
        <pt x="534" y="829" on="1"/>
        <pt x="608" y="829" on="0"/>
        <pt x="690" y="881" on="0"/>
        <pt x="724" y="996" on="0"/>
        <pt x="724" y="1118" on="1"/>
        <pt x="724" y="1300" on="1"/>
      </contour>
    </TTGlyph>
    <TTGlyph name="uni2C0C" xMin="200" yMin="0" xMax="2084" yMax="1462">
      <contour>
        <pt x="1258" y="0" on="1"/>
        <pt x="1258" y="616" on="1"/>
        <pt x="948" y="616" on="1"/>
        <pt x="948" y="0" on="1"/>
        <pt x="764" y="0" on="1"/>
        <pt x="764" y="1200" on="1"/>
        <pt x="764" y="1259" on="0"/>
        <pt x="725" y="1300" on="0"/>
        <pt x="664" y="1300" on="1"/>
        <pt x="484" y="1300" on="1"/>
        <pt x="425" y="1300" on="0"/>
        <pt x="384" y="1261" on="0"/>
        <pt x="384" y="1200" on="1"/>
        <pt x="384" y="0" on="1"/>
        <pt x="200" y="0" on="1"/>
        <pt x="200" y="1262" on="1"/>
        <pt x="200" y="1348" on="0"/>
        <pt x="234" y="1428" on="0"/>
        <pt x="316" y="1462" on="0"/>
        <pt x="400" y="1462" on="1"/>
        <pt x="748" y="1462" on="1"/>
        <pt x="867" y="1462" on="0"/>
        <pt x="948" y="1381" on="0"/>
        <pt x="948" y="1262" on="1"/>
        <pt x="948" y="778" on="1"/>
        <pt x="1258" y="778" on="1"/>
        <pt x="1258" y="1262" on="1"/>
        <pt x="1258" y="1348" on="0"/>
        <pt x="1292" y="1428" on="0"/>
        <pt x="1374" y="1462" on="0"/>
        <pt x="1458" y="1462" on="1"/>
        <pt x="1984" y="1462" on="1"/>
        <pt x="2032" y="1462" on="0"/>
        <pt x="2084" y="1407" on="0"/>
        <pt x="2084" y="1363" on="1"/>
        <pt x="2084" y="1177" on="1"/>
        <pt x="2084" y="933" on="0"/>
        <pt x="1731" y="630" on="0"/>
        <pt x="1442" y="616" on="1"/>
        <pt x="1442" y="0" on="1"/>
      </contour>
      <contour>
        <pt x="1442" y="778" on="1"/>
        <pt x="1658" y="790" on="0"/>
        <pt x="1900" y="984" on="0"/>
        <pt x="1900" y="1152" on="1"/>
        <pt x="1900" y="1249" on="0"/>
        <pt x="1874" y="1300" on="0"/>
        <pt x="1827" y="1300" on="1"/>
        <pt x="1542" y="1300" on="1"/>
        <pt x="1483" y="1300" on="0"/>
        <pt x="1442" y="1261" on="0"/>
        <pt x="1442" y="1200" on="1"/>
      </contour>
    </TTGlyph>
    <TTGlyph name="uni2C0D" xMin="80" yMin="0" xMax="752" yMax="1462">
      <contour>
        <pt x="552" y="846" on="1"/>
        <pt x="671" y="846" on="0"/>
        <pt x="752" y="765" on="0"/>
        <pt x="752" y="646" on="1"/>
        <pt x="752" y="0" on="1"/>
        <pt x="568" y="0" on="1"/>
        <pt x="568" y="584" on="1"/>
        <pt x="568" y="643" on="0"/>
        <pt x="529" y="684" on="0"/>
        <pt x="468" y="684" on="1"/>
        <pt x="80" y="684" on="1"/>
        <pt x="242" y="1462" on="1"/>
        <pt x="418" y="1462" on="1"/>
        <pt x="289" y="846" on="1"/>
      </contour>
    </TTGlyph>
    <TTGlyph name="uni2C0E" xMin="160" yMin="0" xMax="1966" yMax="1462">
      <contour>
        <pt x="908" y="684" on="1"/>
        <pt x="908" y="200" on="1"/>
        <pt x="908" y="81" on="0"/>
        <pt x="829" y="0" on="0"/>
        <pt x="708" y="0" on="1"/>
        <pt x="360" y="0" on="1"/>
        <pt x="274" y="0" on="0"/>
        <pt x="194" y="34" on="0"/>
        <pt x="160" y="115" on="0"/>
        <pt x="160" y="200" on="1"/>
        <pt x="160" y="646" on="1"/>
        <pt x="160" y="732" on="0"/>
        <pt x="194" y="812" on="0"/>
        <pt x="276" y="846" on="0"/>
        <pt x="360" y="846" on="1"/>
        <pt x="724" y="846" on="1"/>
        <pt x="724" y="1262" on="1"/>
        <pt x="724" y="1348" on="0"/>
        <pt x="758" y="1428" on="0"/>
        <pt x="840" y="1462" on="0"/>
        <pt x="924" y="1462" on="1"/>
        <pt x="1202" y="1462" on="1"/>
        <pt x="1321" y="1462" on="0"/>
        <pt x="1402" y="1381" on="0"/>
        <pt x="1402" y="1262" on="1"/>
        <pt x="1402" y="846" on="1"/>
        <pt x="1766" y="846" on="1"/>
        <pt x="1885" y="846" on="0"/>
        <pt x="1966" y="765" on="0"/>
        <pt x="1966" y="646" on="1"/>
        <pt x="1966" y="200" on="1"/>
        <pt x="1966" y="81" on="0"/>
        <pt x="1887" y="0" on="0"/>
        <pt x="1766" y="0" on="1"/>
        <pt x="1418" y="0" on="1"/>
        <pt x="1332" y="0" on="0"/>
        <pt x="1252" y="34" on="0"/>
        <pt x="1218" y="115" on="0"/>
        <pt x="1218" y="200" on="1"/>
        <pt x="1218" y="684" on="1"/>
      </contour>
      <contour>
        <pt x="444" y="684" on="1"/>
        <pt x="385" y="684" on="0"/>
        <pt x="344" y="645" on="0"/>
        <pt x="344" y="584" on="1"/>
        <pt x="344" y="262" on="1"/>
        <pt x="344" y="203" on="0"/>
        <pt x="383" y="162" on="0"/>
        <pt x="444" y="162" on="1"/>
        <pt x="624" y="162" on="1"/>
        <pt x="683" y="162" on="0"/>
        <pt x="724" y="201" on="0"/>
        <pt x="724" y="262" on="1"/>
        <pt x="724" y="684" on="1"/>
      </contour>
      <contour>
        <pt x="1402" y="262" on="1"/>
        <pt x="1402" y="203" on="0"/>
        <pt x="1441" y="162" on="0"/>
        <pt x="1502" y="162" on="1"/>
        <pt x="1682" y="162" on="1"/>
        <pt x="1741" y="162" on="0"/>
        <pt x="1782" y="201" on="0"/>
        <pt x="1782" y="262" on="1"/>
        <pt x="1782" y="584" on="1"/>
        <pt x="1782" y="643" on="0"/>
        <pt x="1743" y="684" on="0"/>
        <pt x="1682" y="684" on="1"/>
        <pt x="1402" y="684" on="1"/>
      </contour>
      <contour>
        <pt x="1218" y="846" on="1"/>
        <pt x="1218" y="1200" on="1"/>
        <pt x="1218" y="1259" on="0"/>
        <pt x="1179" y="1300" on="0"/>
        <pt x="1118" y="1300" on="1"/>
        <pt x="1008" y="1300" on="1"/>
        <pt x="949" y="1300" on="0"/>
        <pt x="908" y="1261" on="0"/>
        <pt x="908" y="1200" on="1"/>
        <pt x="908" y="846" on="1"/>
      </contour>
    </TTGlyph>
    <TTGlyph name="uni2C0F" xMin="200" yMin="0" xMax="1512" yMax="1482">
      <contour>
        <pt x="200" y="0" on="1"/>
        <pt x="200" y="977" on="1"/>
        <pt x="200" y="1244" on="0"/>
        <pt x="386" y="1482" on="0"/>
        <pt x="574" y="1482" on="1"/>
        <pt x="766" y="1482" on="0"/>
        <pt x="857" y="1362" on="1"/>
        <pt x="950" y="1482" on="0"/>
        <pt x="1138" y="1482" on="1"/>
        <pt x="1269" y="1482" on="0"/>
        <pt x="1433" y="1372" on="0"/>
        <pt x="1512" y="1161" on="0"/>
        <pt x="1512" y="977" on="1"/>
        <pt x="1512" y="0" on="1"/>
        <pt x="1328" y="0" on="1"/>
        <pt x="1328" y="977" on="1"/>
        <pt x="1328" y="1113" on="0"/>
        <pt x="1291" y="1250" on="0"/>
        <pt x="1208" y="1320" on="0"/>
        <pt x="1138" y="1320" on="1"/>
        <pt x="1039" y="1320" on="0"/>
        <pt x="948" y="1175" on="0"/>
        <pt x="948" y="998" on="1"/>
        <pt x="948" y="0" on="1"/>
        <pt x="764" y="0" on="1"/>
        <pt x="764" y="993" on="1"/>
        <pt x="764" y="1177" on="0"/>
        <pt x="672" y="1320" on="0"/>
        <pt x="574" y="1320" on="1"/>
        <pt x="504" y="1320" on="0"/>
        <pt x="422" y="1251" on="0"/>
        <pt x="384" y="1117" on="0"/>
        <pt x="384" y="977" on="1"/>
        <pt x="384" y="0" on="1"/>
      </contour>
    </TTGlyph>
    <TTGlyph name="uni2C10" xMin="200" yMin="0" xMax="1026" yMax="1462">
      <contour>
        <pt x="200" y="0" on="1"/>
        <pt x="200" y="1262" on="1"/>
        <pt x="200" y="1348" on="0"/>
        <pt x="234" y="1428" on="0"/>
        <pt x="316" y="1462" on="0"/>
        <pt x="400" y="1462" on="1"/>
        <pt x="926" y="1462" on="1"/>
        <pt x="974" y="1462" on="0"/>
        <pt x="1026" y="1407" on="0"/>
        <pt x="1026" y="1363" on="1"/>
        <pt x="1026" y="1177" on="1"/>
        <pt x="1026" y="933" on="0"/>
        <pt x="673" y="630" on="0"/>
        <pt x="384" y="616" on="1"/>
        <pt x="384" y="0" on="1"/>
      </contour>
      <contour>
        <pt x="384" y="778" on="1"/>
        <pt x="600" y="790" on="0"/>
        <pt x="842" y="984" on="0"/>
        <pt x="842" y="1152" on="1"/>
        <pt x="842" y="1249" on="0"/>
        <pt x="816" y="1300" on="0"/>
        <pt x="769" y="1300" on="1"/>
        <pt x="484" y="1300" on="1"/>
        <pt x="425" y="1300" on="0"/>
        <pt x="384" y="1261" on="0"/>
        <pt x="384" y="1200" on="1"/>
      </contour>
    </TTGlyph>
    <TTGlyph name="uni2C11" xMin="140" yMin="0" xMax="966" yMax="1462">
      <contour>
        <pt x="426" y="754" on="1"/>
        <pt x="286" y="818" on="0"/>
        <pt x="140" y="1034" on="0"/>
        <pt x="140" y="1177" on="1"/>
        <pt x="140" y="1331" on="0"/>
        <pt x="255" y="1462" on="0"/>
        <pt x="367" y="1462" on="1"/>
        <pt x="766" y="1462" on="1"/>
        <pt x="858" y="1462" on="0"/>
        <pt x="935" y="1431" on="0"/>
        <pt x="966" y="1354" on="0"/>
        <pt x="966" y="1262" on="1"/>
        <pt x="966" y="200" on="1"/>
        <pt x="966" y="108" on="0"/>
        <pt x="935" y="31" on="0"/>
        <pt x="858" y="0" on="0"/>
        <pt x="766" y="0" on="1"/>
        <pt x="367" y="0" on="1"/>
        <pt x="254" y="0" on="0"/>
        <pt x="140" y="131" on="0"/>
        <pt x="140" y="285" on="1"/>
        <pt x="140" y="432" on="0"/>
        <pt x="290" y="677" on="0"/>
      </contour>
      <contour>
        <pt x="782" y="684" on="1"/>
        <pt x="652" y="683" on="0"/>
        <pt x="442" y="588" on="0"/>
        <pt x="324" y="420" on="0"/>
        <pt x="324" y="317" on="1"/>
        <pt x="324" y="247" on="0"/>
        <pt x="345" y="190" on="0"/>
        <pt x="391" y="162" on="0"/>
        <pt x="431" y="162" on="1"/>
        <pt x="707" y="162" on="1"/>
        <pt x="782" y="162" on="0"/>
        <pt x="782" y="250" on="1"/>
      </contour>
      <contour>
        <pt x="782" y="846" on="1"/>
        <pt x="782" y="1212" on="1"/>
        <pt x="782" y="1300" on="0"/>
        <pt x="707" y="1300" on="1"/>
        <pt x="431" y="1300" on="1"/>
        <pt x="390" y="1300" on="0"/>
        <pt x="344" y="1271" on="0"/>
        <pt x="324" y="1214" on="0"/>
        <pt x="324" y="1145" on="1"/>
        <pt x="324" y="1008" on="0"/>
        <pt x="577" y="846" on="0"/>
      </contour>
    </TTGlyph>
    <TTGlyph name="uni2C12" xMin="200" yMin="0" xMax="1415" yMax="1462">
      <contour>
        <pt x="484" y="1300" on="1"/>
        <pt x="425" y="1300" on="0"/>
        <pt x="384" y="1261" on="0"/>
        <pt x="384" y="1200" on="1"/>
        <pt x="384" y="0" on="1"/>
        <pt x="200" y="0" on="1"/>
        <pt x="200" y="1262" on="1"/>
        <pt x="200" y="1348" on="0"/>
        <pt x="234" y="1428" on="0"/>
        <pt x="316" y="1462" on="0"/>
        <pt x="400" y="1462" on="1"/>
        <pt x="1215" y="1462" on="1"/>
        <pt x="1334" y="1462" on="0"/>
        <pt x="1415" y="1381" on="0"/>
        <pt x="1415" y="1262" on="1"/>
        <pt x="1415" y="600" on="1"/>
        <pt x="1415" y="481" on="0"/>
        <pt x="1336" y="400" on="0"/>
        <pt x="1215" y="400" on="1"/>
        <pt x="867" y="400" on="1"/>
        <pt x="781" y="400" on="0"/>
        <pt x="701" y="434" on="0"/>
        <pt x="667" y="515" on="0"/>
        <pt x="667" y="600" on="1"/>
        <pt x="667" y="1300" on="1"/>
      </contour>
      <contour>
        <pt x="851" y="662" on="1"/>
        <pt x="851" y="603" on="0"/>
        <pt x="890" y="562" on="0"/>
        <pt x="951" y="562" on="1"/>
        <pt x="1131" y="562" on="1"/>
        <pt x="1190" y="562" on="0"/>
        <pt x="1231" y="601" on="0"/>
        <pt x="1231" y="662" on="1"/>
        <pt x="1231" y="1200" on="1"/>
        <pt x="1231" y="1259" on="0"/>
        <pt x="1192" y="1300" on="0"/>
        <pt x="1131" y="1300" on="1"/>
        <pt x="851" y="1300" on="1"/>
      </contour>
    </TTGlyph>
    <TTGlyph name="uni2C13" xMin="200" yMin="0" xMax="1026" yMax="1462">
      <contour>
        <pt x="384" y="846" on="1"/>
        <pt x="560" y="845" on="0"/>
        <pt x="858" y="696" on="0"/>
        <pt x="1026" y="439" on="0"/>
        <pt x="1026" y="285" on="1"/>
        <pt x="1026" y="131" on="0"/>
        <pt x="912" y="0" on="0"/>
        <pt x="799" y="0" on="1"/>
        <pt x="400" y="0" on="1"/>
        <pt x="308" y="0" on="0"/>
        <pt x="231" y="31" on="0"/>
        <pt x="200" y="108" on="0"/>
        <pt x="200" y="200" on="1"/>
        <pt x="200" y="1462" on="1"/>
        <pt x="384" y="1462" on="1"/>
      </contour>
      <contour>
        <pt x="384" y="250" on="1"/>
        <pt x="384" y="162" on="0"/>
        <pt x="459" y="162" on="1"/>
        <pt x="735" y="162" on="1"/>
        <pt x="776" y="162" on="0"/>
        <pt x="822" y="191" on="0"/>
        <pt x="842" y="248" on="0"/>
        <pt x="842" y="317" on="1"/>
        <pt x="842" y="412" on="0"/>
        <pt x="720" y="583" on="0"/>
        <pt x="507" y="683" on="0"/>
        <pt x="384" y="684" on="1"/>
      </contour>
    </TTGlyph>
    <TTGlyph name="uni2C14" xMin="140" yMin="0" xMax="1506" yMax="1485">
      <contour>
        <pt x="456" y="0" on="1"/>
        <pt x="456" y="389" on="1"/>
        <pt x="457" y="414" on="1"/>
        <pt x="307" y="485" on="0"/>
        <pt x="140" y="748" on="0"/>
        <pt x="140" y="911" on="1"/>
        <pt x="140" y="1078" on="0"/>
        <pt x="314" y="1347" on="0"/>
        <pt x="620" y="1485" on="0"/>
        <pt x="824" y="1485" on="1"/>
        <pt x="1024" y="1485" on="0"/>
        <pt x="1329" y="1351" on="0"/>
        <pt x="1506" y="1085" on="0"/>
        <pt x="1506" y="923" on="1"/>
        <pt x="1506" y="758" on="0"/>
        <pt x="1344" y="491" on="0"/>
        <pt x="1202" y="420" on="1"/>
        <pt x="1204" y="364" on="1"/>
        <pt x="1204" y="0" on="1"/>
      </contour>
      <contour>
        <pt x="1168" y="604" on="1"/>
        <pt x="1316" y="713" on="0"/>
        <pt x="1316" y="913" on="1"/>
        <pt x="1316" y="1039" on="0"/>
        <pt x="1193" y="1224" on="0"/>
        <pt x="966" y="1323" on="0"/>
        <pt x="822" y="1323" on="1"/>
        <pt x="683" y="1323" on="0"/>
        <pt x="455" y="1218" on="0"/>
        <pt x="330" y="1033" on="0"/>
        <pt x="330" y="913" on="1"/>
        <pt x="330" y="702" on="0"/>
        <pt x="487" y="594" on="1"/>
        <pt x="564" y="829" on="0"/>
        <pt x="830" y="829" on="1"/>
        <pt x="1085" y="829" on="0"/>
      </contour>
      <contour>
        <pt x="1020" y="364" on="1"/>
        <pt x="1020" y="493" on="0"/>
        <pt x="984" y="612" on="0"/>
        <pt x="902" y="667" on="0"/>
        <pt x="830" y="667" on="1"/>
        <pt x="757" y="667" on="0"/>
        <pt x="677" y="612" on="0"/>
        <pt x="640" y="496" on="0"/>
        <pt x="640" y="364" on="1"/>
        <pt x="640" y="162" on="1"/>
        <pt x="1020" y="162" on="1"/>
      </contour>
    </TTGlyph>
    <TTGlyph name="uni2C15" xMin="200" yMin="0" xMax="1976" yMax="1462">
      <contour>
        <pt x="948" y="1300" on="1"/>
        <pt x="948" y="200" on="1"/>
        <pt x="948" y="81" on="0"/>
        <pt x="869" y="0" on="0"/>
        <pt x="748" y="0" on="1"/>
        <pt x="400" y="0" on="1"/>
        <pt x="314" y="0" on="0"/>
        <pt x="234" y="34" on="0"/>
        <pt x="200" y="115" on="0"/>
        <pt x="200" y="200" on="1"/>
        <pt x="200" y="1262" on="1"/>
        <pt x="200" y="1348" on="0"/>
        <pt x="234" y="1428" on="0"/>
        <pt x="316" y="1462" on="0"/>
        <pt x="400" y="1462" on="1"/>
        <pt x="1776" y="1462" on="1"/>
        <pt x="1895" y="1462" on="0"/>
        <pt x="1976" y="1381" on="0"/>
        <pt x="1976" y="1262" on="1"/>
        <pt x="1976" y="200" on="1"/>
        <pt x="1976" y="81" on="0"/>
        <pt x="1897" y="0" on="0"/>
        <pt x="1776" y="0" on="1"/>
        <pt x="1428" y="0" on="1"/>
        <pt x="1342" y="0" on="0"/>
        <pt x="1262" y="34" on="0"/>
        <pt x="1228" y="115" on="0"/>
        <pt x="1228" y="200" on="1"/>
        <pt x="1228" y="1300" on="1"/>
      </contour>
      <contour>
        <pt x="1412" y="262" on="1"/>
        <pt x="1412" y="203" on="0"/>
        <pt x="1451" y="162" on="0"/>
        <pt x="1512" y="162" on="1"/>
        <pt x="1692" y="162" on="1"/>
        <pt x="1751" y="162" on="0"/>
        <pt x="1792" y="201" on="0"/>
        <pt x="1792" y="262" on="1"/>
        <pt x="1792" y="1200" on="1"/>
        <pt x="1792" y="1259" on="0"/>
        <pt x="1753" y="1300" on="0"/>
        <pt x="1692" y="1300" on="1"/>
        <pt x="1412" y="1300" on="1"/>
      </contour>
      <contour>
        <pt x="484" y="1300" on="1"/>
        <pt x="425" y="1300" on="0"/>
        <pt x="384" y="1261" on="0"/>
        <pt x="384" y="1200" on="1"/>
        <pt x="384" y="262" on="1"/>
        <pt x="384" y="203" on="0"/>
        <pt x="423" y="162" on="0"/>
        <pt x="484" y="162" on="1"/>
        <pt x="664" y="162" on="1"/>
        <pt x="723" y="162" on="0"/>
        <pt x="764" y="201" on="0"/>
        <pt x="764" y="262" on="1"/>
        <pt x="764" y="1300" on="1"/>
      </contour>
    </TTGlyph>
    <TTGlyph name="uni2C16" xMin="160" yMin="0" xMax="1550" yMax="1462">
      <contour>
        <pt x="452" y="761" on="1"/>
        <pt x="300" y="838" on="0"/>
        <pt x="160" y="1043" on="0"/>
        <pt x="160" y="1177" on="1"/>
        <pt x="160" y="1331" on="0"/>
        <pt x="275" y="1462" on="0"/>
        <pt x="387" y="1462" on="1"/>
        <pt x="1350" y="1462" on="1"/>
        <pt x="1469" y="1462" on="0"/>
        <pt x="1550" y="1381" on="0"/>
        <pt x="1550" y="1262" on="1"/>
        <pt x="1550" y="200" on="1"/>
        <pt x="1550" y="81" on="0"/>
        <pt x="1471" y="0" on="0"/>
        <pt x="1350" y="0" on="1"/>
        <pt x="387" y="0" on="1"/>
        <pt x="274" y="0" on="0"/>
        <pt x="160" y="131" on="0"/>
        <pt x="160" y="285" on="1"/>
        <pt x="160" y="433" on="0"/>
        <pt x="319" y="691" on="0"/>
      </contour>
      <contour>
        <pt x="802" y="684" on="1"/>
        <pt x="596" y="682" on="0"/>
        <pt x="344" y="484" on="0"/>
        <pt x="344" y="317" on="1"/>
        <pt x="344" y="247" on="0"/>
        <pt x="365" y="190" on="0"/>
        <pt x="411" y="162" on="0"/>
        <pt x="451" y="162" on="1"/>
        <pt x="802" y="162" on="1"/>
      </contour>
      <contour>
        <pt x="986" y="162" on="1"/>
        <pt x="1266" y="162" on="1"/>
        <pt x="1325" y="162" on="0"/>
        <pt x="1366" y="201" on="0"/>
        <pt x="1366" y="262" on="1"/>
        <pt x="1366" y="684" on="1"/>
        <pt x="986" y="684" on="1"/>
      </contour>
      <contour>
        <pt x="451" y="1300" on="1"/>
        <pt x="410" y="1300" on="0"/>
        <pt x="364" y="1271" on="0"/>
        <pt x="344" y="1214" on="0"/>
        <pt x="344" y="1145" on="1"/>
        <pt x="344" y="1004" on="0"/>
        <pt x="589" y="846" on="0"/>
        <pt x="802" y="846" on="1"/>
        <pt x="802" y="1300" on="1"/>
      </contour>
      <contour>
        <pt x="986" y="846" on="1"/>
        <pt x="1366" y="846" on="1"/>
        <pt x="1366" y="1200" on="1"/>
        <pt x="1366" y="1259" on="0"/>
        <pt x="1327" y="1300" on="0"/>
        <pt x="1266" y="1300" on="1"/>
        <pt x="986" y="1300" on="1"/>
      </contour>
    </TTGlyph>
    <TTGlyph name="uni2C17" xMin="140" yMin="-220" xMax="1490" yMax="1662">
      <contour>
        <pt x="906" y="1480" on="1"/>
        <pt x="1183" y="1453" on="0"/>
        <pt x="1490" y="1060" on="0"/>
        <pt x="1490" y="733" on="1"/>
        <pt x="1490" y="408" on="0"/>
        <pt x="1185" y="13" on="0"/>
        <pt x="906" y="-15" on="1"/>
        <pt x="906" y="-220" on="1"/>
        <pt x="722" y="-220" on="1"/>
        <pt x="722" y="-15" on="1"/>
        <pt x="442" y="14" on="0"/>
        <pt x="140" y="401" on="0"/>
        <pt x="140" y="735" on="1"/>
        <pt x="140" y="1066" on="0"/>
        <pt x="441" y="1451" on="0"/>
        <pt x="722" y="1480" on="1"/>
        <pt x="722" y="1662" on="1"/>
        <pt x="906" y="1662" on="1"/>
      </contour>
      <contour>
        <pt x="906" y="140" on="1"/>
        <pt x="1101" y="169" on="0"/>
        <pt x="1304" y="472" on="0"/>
        <pt x="1304" y="733" on="1"/>
        <pt x="1304" y="996" on="0"/>
        <pt x="1100" y="1295" on="0"/>
        <pt x="906" y="1322" on="1"/>
      </contour>
      <contour>
        <pt x="722" y="1321" on="1"/>
        <pt x="529" y="1292" on="0"/>
        <pt x="326" y="989" on="0"/>
        <pt x="326" y="733" on="1"/>
        <pt x="326" y="475" on="0"/>
        <pt x="529" y="170" on="0"/>
        <pt x="722" y="141" on="1"/>
      </contour>
    </TTGlyph>
    <TTGlyph name="uni2C18" xMin="100" yMin="0" xMax="1591" yMax="1462">
      <contour>
        <pt x="100" y="1462" on="1"/>
        <pt x="880" y="1462" on="1"/>
        <pt x="607" y="728" on="1"/>
        <pt x="790" y="728" on="1"/>
        <pt x="802" y="796" on="0"/>
        <pt x="888" y="846" on="0"/>
        <pt x="985" y="846" on="1"/>
        <pt x="1391" y="846" on="1"/>
        <pt x="1510" y="846" on="0"/>
        <pt x="1591" y="765" on="0"/>
        <pt x="1591" y="646" on="1"/>
        <pt x="1591" y="0" on="1"/>
        <pt x="985" y="0" on="1"/>
        <pt x="899" y="0" on="0"/>
        <pt x="819" y="34" on="0"/>
        <pt x="785" y="115" on="0"/>
        <pt x="785" y="200" on="1"/>
        <pt x="785" y="566" on="1"/>
        <pt x="570" y="566" on="1"/>
        <pt x="547" y="567" on="1"/>
        <pt x="336" y="0" on="1"/>
        <pt x="159" y="0" on="1"/>
        <pt x="643" y="1300" on="1"/>
        <pt x="100" y="1300" on="1"/>
      </contour>
      <contour>
        <pt x="1407" y="584" on="1"/>
        <pt x="1407" y="643" on="0"/>
        <pt x="1368" y="684" on="0"/>
        <pt x="1307" y="684" on="1"/>
        <pt x="1069" y="684" on="1"/>
        <pt x="1010" y="684" on="0"/>
        <pt x="969" y="645" on="0"/>
        <pt x="969" y="584" on="1"/>
        <pt x="969" y="262" on="1"/>
        <pt x="969" y="203" on="0"/>
        <pt x="1008" y="162" on="0"/>
        <pt x="1069" y="162" on="1"/>
        <pt x="1407" y="162" on="1"/>
      </contour>
    </TTGlyph>
    <TTGlyph name="uni2C19" xMin="140" yMin="-20" xMax="1490" yMax="1485">
      <contour>
        <pt x="1490" y="733" on="1"/>
        <pt x="1490" y="382" on="0"/>
        <pt x="1135" y="-20" on="0"/>
        <pt x="816" y="-20" on="1"/>
        <pt x="493" y="-20" on="0"/>
        <pt x="140" y="375" on="0"/>
        <pt x="140" y="735" on="1"/>
        <pt x="140" y="1092" on="0"/>
        <pt x="491" y="1485" on="0"/>
        <pt x="818" y="1485" on="1"/>
        <pt x="1136" y="1485" on="0"/>
        <pt x="1490" y="1086" on="0"/>
      </contour>
      <contour>
        <pt x="591" y="224" on="1"/>
        <pt x="591" y="321" on="0"/>
        <pt x="726" y="451" on="0"/>
        <pt x="818" y="451" on="1"/>
        <pt x="909" y="451" on="0"/>
        <pt x="1044" y="321" on="0"/>
        <pt x="1044" y="224" on="1"/>
        <pt x="1044" y="200" on="0"/>
        <pt x="1037" y="167" on="1"/>
        <pt x="1164" y="226" on="0"/>
        <pt x="1300" y="516" on="0"/>
        <pt x="1300" y="733" on="1"/>
        <pt x="1300" y="948" on="0"/>
        <pt x="1164" y="1237" on="0"/>
        <pt x="1036" y="1296" on="1"/>
        <pt x="1044" y="1266" on="0"/>
        <pt x="1044" y="1237" on="1"/>
        <pt x="1044" y="1143" on="0"/>
        <pt x="912" y="1011" on="0"/>
        <pt x="818" y="1011" on="1"/>
        <pt x="723" y="1011" on="0"/>
        <pt x="591" y="1143" on="0"/>
        <pt x="591" y="1237" on="1"/>
        <pt x="591" y="1267" on="0"/>
        <pt x="599" y="1297" on="1"/>
        <pt x="469" y="1241" on="0"/>
        <pt x="329" y="951" on="0"/>
        <pt x="329" y="733" on="1"/>
        <pt x="329" y="517" on="0"/>
        <pt x="468" y="225" on="0"/>
        <pt x="598" y="165" on="1"/>
        <pt x="591" y="192" on="0"/>
      </contour>
      <contour>
        <pt x="717" y="1238" on="1"/>
        <pt x="717" y="1196" on="0"/>
        <pt x="776" y="1137" on="0"/>
        <pt x="818" y="1137" on="1"/>
        <pt x="860" y="1137" on="0"/>
        <pt x="919" y="1196" on="0"/>
        <pt x="919" y="1238" on="1"/>
        <pt x="919" y="1279" on="0"/>
        <pt x="862" y="1339" on="0"/>
        <pt x="814" y="1339" on="1"/>
        <pt x="773" y="1339" on="0"/>
        <pt x="717" y="1280" on="0"/>
      </contour>
      <contour>
        <pt x="717" y="225" on="1"/>
        <pt x="717" y="183" on="0"/>
        <pt x="776" y="124" on="0"/>
        <pt x="818" y="124" on="1"/>
        <pt x="860" y="124" on="0"/>
        <pt x="919" y="183" on="0"/>
        <pt x="919" y="225" on="1"/>
        <pt x="919" y="267" on="0"/>
        <pt x="860" y="326" on="0"/>
        <pt x="818" y="326" on="1"/>
        <pt x="776" y="326" on="0"/>
        <pt x="717" y="267" on="0"/>
      </contour>
    </TTGlyph>
    <TTGlyph name="uni2C1A" xMin="160" yMin="0" xMax="1571" yMax="1462">
      <contour>
        <pt x="1387" y="0" on="1"/>
        <pt x="1387" y="1200" on="1"/>
        <pt x="1387" y="1259" on="0"/>
        <pt x="1348" y="1300" on="0"/>
        <pt x="1287" y="1300" on="1"/>
        <pt x="1066" y="1300" on="1"/>
        <pt x="1007" y="1300" on="0"/>
        <pt x="966" y="1261" on="0"/>
        <pt x="966" y="1200" on="1"/>
        <pt x="966" y="200" on="1"/>
        <pt x="966" y="81" on="0"/>
        <pt x="887" y="0" on="0"/>
        <pt x="766" y="0" on="1"/>
        <pt x="360" y="0" on="1"/>
        <pt x="274" y="0" on="0"/>
        <pt x="194" y="34" on="0"/>
        <pt x="160" y="115" on="0"/>
        <pt x="160" y="200" on="1"/>
        <pt x="160" y="646" on="1"/>
        <pt x="160" y="732" on="0"/>
        <pt x="194" y="812" on="0"/>
        <pt x="276" y="846" on="0"/>
        <pt x="360" y="846" on="1"/>
        <pt x="782" y="846" on="1"/>
        <pt x="782" y="1262" on="1"/>
        <pt x="782" y="1348" on="0"/>
        <pt x="816" y="1428" on="0"/>
        <pt x="898" y="1462" on="0"/>
        <pt x="982" y="1462" on="1"/>
        <pt x="1371" y="1462" on="1"/>
        <pt x="1490" y="1462" on="0"/>
        <pt x="1571" y="1381" on="0"/>
        <pt x="1571" y="1262" on="1"/>
        <pt x="1571" y="0" on="1"/>
      </contour>
      <contour>
        <pt x="444" y="684" on="1"/>
        <pt x="385" y="684" on="0"/>
        <pt x="344" y="645" on="0"/>
        <pt x="344" y="584" on="1"/>
        <pt x="344" y="262" on="1"/>
        <pt x="344" y="203" on="0"/>
        <pt x="383" y="162" on="0"/>
        <pt x="444" y="162" on="1"/>
        <pt x="682" y="162" on="1"/>
        <pt x="741" y="162" on="0"/>
        <pt x="782" y="201" on="0"/>
        <pt x="782" y="262" on="1"/>
        <pt x="782" y="684" on="1"/>
      </contour>
    </TTGlyph>
    <TTGlyph name="uni2C1B" xMin="160" yMin="0" xMax="1515" yMax="1462">
      <contour>
        <pt x="1515" y="1462" on="1"/>
        <pt x="1515" y="884" on="1"/>
        <pt x="1515" y="765" on="0"/>
        <pt x="1436" y="684" on="0"/>
        <pt x="1315" y="684" on="1"/>
        <pt x="1152" y="684" on="1"/>
        <pt x="1212" y="575" on="0"/>
        <pt x="1212" y="395" on="1"/>
        <pt x="1212" y="0" on="1"/>
        <pt x="464" y="0" on="1"/>
        <pt x="464" y="395" on="1"/>
        <pt x="464" y="580" on="0"/>
        <pt x="522" y="684" on="1"/>
        <pt x="360" y="684" on="1"/>
        <pt x="274" y="684" on="0"/>
        <pt x="194" y="718" on="0"/>
        <pt x="160" y="799" on="0"/>
        <pt x="160" y="884" on="1"/>
        <pt x="160" y="1462" on="1"/>
        <pt x="344" y="1462" on="1"/>
        <pt x="344" y="946" on="1"/>
        <pt x="344" y="887" on="0"/>
        <pt x="383" y="846" on="0"/>
        <pt x="444" y="846" on="1"/>
        <pt x="745" y="846" on="1"/>
        <pt x="745" y="1462" on="1"/>
        <pt x="930" y="1462" on="1"/>
        <pt x="930" y="846" on="1"/>
        <pt x="1231" y="846" on="1"/>
        <pt x="1290" y="846" on="0"/>
        <pt x="1331" y="885" on="0"/>
        <pt x="1331" y="946" on="1"/>
        <pt x="1331" y="1462" on="1"/>
      </contour>
      <contour>
        <pt x="1028" y="395" on="1"/>
        <pt x="1028" y="521" on="0"/>
        <pt x="993" y="632" on="0"/>
        <pt x="912" y="682" on="0"/>
        <pt x="838" y="682" on="1"/>
        <pt x="764" y="682" on="0"/>
        <pt x="684" y="633" on="0"/>
        <pt x="648" y="525" on="0"/>
        <pt x="648" y="395" on="1"/>
        <pt x="648" y="162" on="1"/>
        <pt x="1028" y="162" on="1"/>
      </contour>
    </TTGlyph>
    <TTGlyph name="uni2C1C" xMin="140" yMin="0" xMax="1620" yMax="1462">
      <contour>
        <pt x="1310" y="0" on="1"/>
        <pt x="1025" y="0" on="1"/>
        <pt x="989" y="0" on="0"/>
        <pt x="943" y="37" on="0"/>
        <pt x="915" y="112" on="0"/>
        <pt x="902" y="200" on="1"/>
        <pt x="832" y="684" on="1"/>
        <pt x="789" y="684" on="1"/>
        <pt x="598" y="684" on="0"/>
        <pt x="301" y="804" on="0"/>
        <pt x="140" y="1029" on="0"/>
        <pt x="140" y="1177" on="1"/>
        <pt x="140" y="1331" on="0"/>
        <pt x="255" y="1462" on="0"/>
        <pt x="367" y="1462" on="1"/>
        <pt x="729" y="1462" on="1"/>
        <pt x="793" y="1462" on="0"/>
        <pt x="864" y="1447" on="0"/>
        <pt x="902" y="1403" on="0"/>
        <pt x="919" y="1325" on="0"/>
        <pt x="929" y="1262" on="1"/>
        <pt x="1082" y="262" on="1"/>
        <pt x="1091" y="196" on="0"/>
        <pt x="1125" y="162" on="0"/>
        <pt x="1167" y="162" on="1"/>
        <pt x="1210" y="162" on="0"/>
        <pt x="1243" y="195" on="0"/>
        <pt x="1253" y="262" on="1"/>
        <pt x="1440" y="1462" on="1"/>
        <pt x="1620" y="1462" on="1"/>
        <pt x="1433" y="200" on="1"/>
        <pt x="1415" y="79" on="0"/>
        <pt x="1360" y="0" on="0"/>
      </contour>
      <contour>
        <pt x="677" y="1300" on="1"/>
        <pt x="431" y="1300" on="1"/>
        <pt x="390" y="1300" on="0"/>
        <pt x="344" y="1271" on="0"/>
        <pt x="324" y="1214" on="0"/>
        <pt x="324" y="1145" on="1"/>
        <pt x="324" y="1003" on="0"/>
        <pt x="560" y="846" on="0"/>
        <pt x="759" y="846" on="1"/>
        <pt x="808" y="846" on="1"/>
        <pt x="752" y="1212" on="1"/>
        <pt x="744" y="1266" on="0"/>
        <pt x="708" y="1300" on="0"/>
      </contour>
    </TTGlyph>
    <TTGlyph name="uni2C1D" xMin="100" yMin="0" xMax="1761" yMax="1462">
      <contour>
        <pt x="1761" y="684" on="1"/>
        <pt x="1212" y="684" on="1"/>
        <pt x="1305" y="571" on="0"/>
        <pt x="1305" y="346" on="1"/>
        <pt x="1305" y="0" on="1"/>
        <pt x="557" y="0" on="1"/>
        <pt x="557" y="346" on="1"/>
        <pt x="557" y="573" on="0"/>
        <pt x="648" y="684" on="1"/>
        <pt x="100" y="684" on="1"/>
        <pt x="407" y="1462" on="1"/>
        <pt x="591" y="1462" on="1"/>
        <pt x="501" y="1234" on="1"/>
        <pt x="1360" y="1234" on="1"/>
        <pt x="1270" y="1462" on="1"/>
        <pt x="1454" y="1462" on="1"/>
      </contour>
      <contour>
        <pt x="1121" y="346" on="1"/>
        <pt x="1121" y="472" on="0"/>
        <pt x="1086" y="585" on="0"/>
        <pt x="1003" y="635" on="0"/>
        <pt x="931" y="635" on="1"/>
        <pt x="857" y="635" on="0"/>
        <pt x="776" y="584" on="0"/>
        <pt x="741" y="475" on="0"/>
        <pt x="741" y="346" on="1"/>
        <pt x="741" y="162" on="1"/>
        <pt x="1121" y="162" on="1"/>
      </contour>
      <contour>
        <pt x="1424" y="1072" on="1"/>
        <pt x="1023" y="1072" on="1"/>
        <pt x="1023" y="846" on="1"/>
        <pt x="1513" y="846" on="1"/>
      </contour>
      <contour>
        <pt x="838" y="846" on="1"/>
        <pt x="838" y="1072" on="1"/>
        <pt x="437" y="1072" on="1"/>
        <pt x="348" y="846" on="1"/>
      </contour>
    </TTGlyph>
    <TTGlyph name="uni2C1E" xMin="200" yMin="0" xMax="1555" yMax="1462">
      <contour>
        <pt x="1555" y="200" on="1"/>
        <pt x="1555" y="81" on="0"/>
        <pt x="1476" y="0" on="0"/>
        <pt x="1355" y="0" on="1"/>
        <pt x="400" y="0" on="1"/>
        <pt x="314" y="0" on="0"/>
        <pt x="234" y="34" on="0"/>
        <pt x="200" y="115" on="0"/>
        <pt x="200" y="200" on="1"/>
        <pt x="200" y="1462" on="1"/>
        <pt x="384" y="1462" on="1"/>
        <pt x="384" y="262" on="1"/>
        <pt x="384" y="203" on="0"/>
        <pt x="423" y="162" on="0"/>
        <pt x="484" y="162" on="1"/>
        <pt x="785" y="162" on="1"/>
        <pt x="785" y="1462" on="1"/>
        <pt x="969" y="1462" on="1"/>
        <pt x="969" y="162" on="1"/>
        <pt x="1271" y="162" on="1"/>
        <pt x="1330" y="162" on="0"/>
        <pt x="1371" y="201" on="0"/>
        <pt x="1371" y="262" on="1"/>
        <pt x="1371" y="1462" on="1"/>
        <pt x="1555" y="1462" on="1"/>
      </contour>
    </TTGlyph>
    <TTGlyph name="uni2C1F" xMin="60" yMin="0" xMax="1360" yMax="1462">
      <contour>
        <pt x="1360" y="1118" on="1"/>
        <pt x="1360" y="854" on="0"/>
        <pt x="1234" y="745" on="1"/>
        <pt x="1360" y="633" on="0"/>
        <pt x="1360" y="364" on="1"/>
        <pt x="1360" y="0" on="1"/>
        <pt x="612" y="0" on="1"/>
        <pt x="612" y="364" on="1"/>
        <pt x="612" y="571" on="0"/>
        <pt x="685" y="684" on="1"/>
        <pt x="512" y="684" on="1"/>
        <pt x="522" y="650" on="0"/>
        <pt x="522" y="616" on="1"/>
        <pt x="522" y="520" on="0"/>
        <pt x="387" y="385" on="0"/>
        <pt x="291" y="385" on="1"/>
        <pt x="195" y="385" on="0"/>
        <pt x="60" y="520" on="0"/>
        <pt x="60" y="616" on="1"/>
        <pt x="60" y="712" on="0"/>
        <pt x="195" y="847" on="0"/>
        <pt x="291" y="847" on="1"/>
        <pt x="313" y="846" on="1"/>
        <pt x="661" y="846" on="1"/>
        <pt x="612" y="947" on="0"/>
        <pt x="612" y="1118" on="1"/>
        <pt x="612" y="1462" on="1"/>
        <pt x="1360" y="1462" on="1"/>
      </contour>
      <contour>
        <pt x="1176" y="364" on="1"/>
        <pt x="1176" y="493" on="0"/>
        <pt x="1140" y="612" on="0"/>
        <pt x="1058" y="667" on="0"/>
        <pt x="986" y="667" on="1"/>
        <pt x="913" y="667" on="0"/>
        <pt x="833" y="612" on="0"/>
        <pt x="796" y="496" on="0"/>
        <pt x="796" y="364" on="1"/>
        <pt x="796" y="162" on="1"/>
        <pt x="1176" y="162" on="1"/>
      </contour>
      <contour>
        <pt x="796" y="1300" on="1"/>
        <pt x="796" y="1118" on="1"/>
        <pt x="796" y="990" on="0"/>
        <pt x="831" y="880" on="0"/>
        <pt x="912" y="829" on="0"/>
        <pt x="986" y="829" on="1"/>
        <pt x="1060" y="829" on="0"/>
        <pt x="1142" y="881" on="0"/>
        <pt x="1176" y="996" on="0"/>
        <pt x="1176" y="1118" on="1"/>
        <pt x="1176" y="1300" on="1"/>
      </contour>
      <contour>
        <pt x="190" y="616" on="1"/>
        <pt x="190" y="574" on="0"/>
        <pt x="249" y="515" on="0"/>
        <pt x="291" y="515" on="1"/>
        <pt x="333" y="515" on="0"/>
        <pt x="392" y="574" on="0"/>
        <pt x="392" y="616" on="1"/>
        <pt x="392" y="657" on="0"/>
        <pt x="335" y="717" on="0"/>
        <pt x="287" y="717" on="1"/>
        <pt x="246" y="717" on="0"/>
        <pt x="190" y="658" on="0"/>
      </contour>
    </TTGlyph>
    <TTGlyph name="uni2C20" xMin="60" yMin="0" xMax="1272" yMax="1462">
      <contour>
        <pt x="524" y="0" on="1"/>
        <pt x="524" y="364" on="1"/>
        <pt x="524" y="571" on="0"/>
        <pt x="597" y="684" on="1"/>
        <pt x="420" y="684" on="1"/>
        <pt x="424" y="640" on="1"/>
        <pt x="424" y="553" on="0"/>
        <pt x="317" y="434" on="0"/>
        <pt x="242" y="434" on="1"/>
        <pt x="165" y="434" on="0"/>
        <pt x="60" y="556" on="0"/>
        <pt x="60" y="640" on="1"/>
        <pt x="60" y="725" on="0"/>
        <pt x="165" y="847" on="0"/>
        <pt x="242" y="847" on="1"/>
        <pt x="260" y="846" on="1"/>
        <pt x="573" y="846" on="1"/>
        <pt x="524" y="947" on="0"/>
        <pt x="524" y="1118" on="1"/>
        <pt x="524" y="1462" on="1"/>
        <pt x="1272" y="1462" on="1"/>
        <pt x="1272" y="1118" on="1"/>
        <pt x="1272" y="854" on="0"/>
        <pt x="1146" y="745" on="1"/>
        <pt x="1272" y="633" on="0"/>
        <pt x="1272" y="364" on="1"/>
        <pt x="1272" y="0" on="1"/>
      </contour>
      <contour>
        <pt x="1088" y="364" on="1"/>
        <pt x="1088" y="493" on="0"/>
        <pt x="1052" y="612" on="0"/>
        <pt x="970" y="667" on="0"/>
        <pt x="898" y="667" on="1"/>
        <pt x="825" y="667" on="0"/>
        <pt x="745" y="612" on="0"/>
        <pt x="708" y="496" on="0"/>
        <pt x="708" y="364" on="1"/>
        <pt x="708" y="162" on="1"/>
        <pt x="1088" y="162" on="1"/>
      </contour>
      <contour>
        <pt x="708" y="1300" on="1"/>
        <pt x="708" y="1118" on="1"/>
        <pt x="708" y="990" on="0"/>
        <pt x="743" y="880" on="0"/>
        <pt x="824" y="829" on="0"/>
        <pt x="898" y="829" on="1"/>
        <pt x="972" y="829" on="0"/>
        <pt x="1054" y="881" on="0"/>
        <pt x="1088" y="996" on="0"/>
        <pt x="1088" y="1118" on="1"/>
        <pt x="1088" y="1300" on="1"/>
      </contour>
    </TTGlyph>
    <TTGlyph name="uni2C21" xMin="100" yMin="0" xMax="1816" yMax="1462">
      <contour>
        <pt x="100" y="0" on="1"/>
        <pt x="724" y="1342" on="1"/>
        <pt x="750" y="1398" on="0"/>
        <pt x="808" y="1462" on="0"/>
        <pt x="861" y="1462" on="1"/>
        <pt x="1055" y="1462" on="1"/>
        <pt x="1108" y="1462" on="0"/>
        <pt x="1166" y="1398" on="0"/>
        <pt x="1192" y="1342" on="1"/>
        <pt x="1816" y="0" on="1"/>
      </contour>
      <contour>
        <pt x="645" y="780" on="1"/>
        <pt x="1271" y="780" on="1"/>
        <pt x="1062" y="1230" on="1"/>
        <pt x="1043" y="1270" on="0"/>
        <pt x="1008" y="1300" on="0"/>
        <pt x="982" y="1300" on="1"/>
        <pt x="934" y="1300" on="1"/>
        <pt x="909" y="1300" on="0"/>
        <pt x="873" y="1271" on="0"/>
        <pt x="854" y="1230" on="1"/>
      </contour>
      <contour>
        <pt x="570" y="618" on="1"/>
        <pt x="358" y="162" on="1"/>
        <pt x="871" y="162" on="1"/>
        <pt x="871" y="618" on="1"/>
      </contour>
      <contour>
        <pt x="1056" y="162" on="1"/>
        <pt x="1558" y="162" on="1"/>
        <pt x="1346" y="618" on="1"/>
        <pt x="1056" y="618" on="1"/>
      </contour>
    </TTGlyph>
    <TTGlyph name="uni2C22" xMin="140" yMin="-70" xMax="1453" yMax="1527">
      <contour>
        <pt x="941" y="-70" on="1"/>
        <pt x="941" y="63" on="1"/>
        <pt x="867" y="50" on="0"/>
        <pt x="797" y="50" on="1"/>
        <pt x="590" y="50" on="0"/>
        <pt x="293" y="216" on="0"/>
        <pt x="140" y="523" on="0"/>
        <pt x="140" y="731" on="1"/>
        <pt x="140" y="933" on="0"/>
        <pt x="225" y="1091" on="1"/>
        <pt x="225" y="1527" on="1"/>
        <pt x="379" y="1527" on="1"/>
        <pt x="379" y="1275" on="1"/>
        <pt x="446" y="1329" on="0"/>
        <pt x="535" y="1362" on="1"/>
        <pt x="535" y="1527" on="1"/>
        <pt x="689" y="1527" on="1"/>
        <pt x="689" y="1399" on="1"/>
        <pt x="741" y="1407" on="0"/>
        <pt x="799" y="1407" on="1"/>
        <pt x="1000" y="1407" on="0"/>
        <pt x="1297" y="1239" on="0"/>
        <pt x="1453" y="930" on="0"/>
        <pt x="1453" y="729" on="1"/>
        <pt x="1453" y="583" on="0"/>
        <pt x="1405" y="455" on="1"/>
        <pt x="1405" y="-70" on="1"/>
        <pt x="1251" y="-70" on="1"/>
        <pt x="1251" y="219" on="1"/>
        <pt x="1182" y="154" on="0"/>
        <pt x="1095" y="112" on="1"/>
        <pt x="1095" y="-70" on="1"/>
      </contour>
      <contour>
        <pt x="334" y="729" on="1"/>
        <pt x="334" y="477" on="0"/>
        <pt x="573" y="209" on="0"/>
        <pt x="797" y="209" on="1"/>
        <pt x="1020" y="209" on="0"/>
        <pt x="1258" y="474" on="0"/>
        <pt x="1258" y="729" on="1"/>
        <pt x="1258" y="982" on="0"/>
        <pt x="1023" y="1245" on="0"/>
        <pt x="799" y="1245" on="1"/>
        <pt x="573" y="1245" on="0"/>
        <pt x="334" y="979" on="0"/>
      </contour>
    </TTGlyph>
    <TTGlyph name="uni2C23" xMin="200" yMin="-167" xMax="1555" yMax="1462">
      <contour>
        <pt x="200" y="1262" on="1"/>
        <pt x="200" y="1348" on="0"/>
        <pt x="234" y="1428" on="0"/>
        <pt x="316" y="1462" on="0"/>
        <pt x="400" y="1462" on="1"/>
        <pt x="1355" y="1462" on="1"/>
        <pt x="1474" y="1462" on="0"/>
        <pt x="1555" y="1381" on="0"/>
        <pt x="1555" y="1262" on="1"/>
        <pt x="1555" y="477" on="1"/>
        <pt x="1555" y="355" on="0"/>
        <pt x="1519" y="269" on="0"/>
        <pt x="1476" y="255" on="1"/>
        <pt x="200" y="-167" on="1"/>
      </contour>
      <contour>
        <pt x="484" y="1300" on="1"/>
        <pt x="425" y="1300" on="0"/>
        <pt x="384" y="1261" on="0"/>
        <pt x="384" y="1200" on="1"/>
        <pt x="384" y="67" on="1"/>
        <pt x="785" y="200" on="1"/>
        <pt x="785" y="1300" on="1"/>
      </contour>
      <contour>
        <pt x="969" y="262" on="1"/>
        <pt x="1305" y="373" on="1"/>
        <pt x="1371" y="396" on="0"/>
        <pt x="1371" y="470" on="1"/>
        <pt x="1371" y="1200" on="1"/>
        <pt x="1371" y="1259" on="0"/>
        <pt x="1332" y="1300" on="0"/>
        <pt x="1271" y="1300" on="1"/>
        <pt x="969" y="1300" on="1"/>
      </contour>
    </TTGlyph>
    <TTGlyph name="uni2C24" xMin="40" yMin="-20" xMax="1389" yMax="1483">
      <contour>
        <pt x="40" y="846" on="1"/>
        <pt x="285" y="846" on="1"/>
        <pt x="309" y="1147" on="0"/>
        <pt x="670" y="1483" on="0"/>
        <pt x="973" y="1483" on="1"/>
        <pt x="1215" y="1483" on="0"/>
        <pt x="1389" y="1397" on="1"/>
        <pt x="1313" y="1243" on="1"/>
        <pt x="1142" y="1321" on="0"/>
        <pt x="975" y="1321" on="1"/>
        <pt x="760" y="1321" on="0"/>
        <pt x="497" y="1068" on="0"/>
        <pt x="477" y="846" on="1"/>
        <pt x="1186" y="846" on="1"/>
        <pt x="1186" y="684" on="1"/>
        <pt x="475" y="684" on="1"/>
        <pt x="482" y="421" on="0"/>
        <pt x="752" y="141" on="0"/>
        <pt x="1016" y="141" on="1"/>
        <pt x="1115" y="141" on="0"/>
        <pt x="1290" y="176" on="0"/>
        <pt x="1376" y="199" on="1"/>
        <pt x="1376" y="39" on="1"/>
        <pt x="1276" y="4" on="0"/>
        <pt x="1103" y="-20" on="0"/>
        <pt x="987" y="-20" on="1"/>
        <pt x="666" y="-20" on="0"/>
        <pt x="301" y="339" on="0"/>
        <pt x="282" y="684" on="1"/>
        <pt x="40" y="684" on="1"/>
      </contour>
    </TTGlyph>
    <TTGlyph name="uni2C25" xMin="60" yMin="-20" xMax="1640" yMax="1483">
      <contour>
        <pt x="1564" y="1243" on="1"/>
        <pt x="1393" y="1321" on="0"/>
        <pt x="1226" y="1321" on="1"/>
        <pt x="1011" y="1321" on="0"/>
        <pt x="748" y="1068" on="0"/>
        <pt x="728" y="846" on="1"/>
        <pt x="1437" y="846" on="1"/>
        <pt x="1437" y="684" on="1"/>
        <pt x="726" y="684" on="1"/>
        <pt x="733" y="421" on="0"/>
        <pt x="1003" y="141" on="0"/>
        <pt x="1267" y="141" on="1"/>
        <pt x="1366" y="141" on="0"/>
        <pt x="1541" y="176" on="0"/>
        <pt x="1627" y="199" on="1"/>
        <pt x="1627" y="39" on="1"/>
        <pt x="1527" y="4" on="0"/>
        <pt x="1354" y="-20" on="0"/>
        <pt x="1238" y="-20" on="1"/>
        <pt x="917" y="-20" on="0"/>
        <pt x="552" y="339" on="0"/>
        <pt x="533" y="684" on="1"/>
        <pt x="420" y="684" on="1"/>
        <pt x="424" y="640" on="1"/>
        <pt x="424" y="553" on="0"/>
        <pt x="317" y="434" on="0"/>
        <pt x="242" y="434" on="1"/>
        <pt x="165" y="434" on="0"/>
        <pt x="60" y="556" on="0"/>
        <pt x="60" y="640" on="1"/>
        <pt x="60" y="725" on="0"/>
        <pt x="165" y="847" on="0"/>
        <pt x="242" y="847" on="1"/>
        <pt x="260" y="846" on="1"/>
        <pt x="536" y="846" on="1"/>
        <pt x="560" y="1147" on="0"/>
        <pt x="921" y="1483" on="0"/>
        <pt x="1224" y="1483" on="1"/>
        <pt x="1466" y="1483" on="0"/>
        <pt x="1640" y="1397" on="1"/>
      </contour>
    </TTGlyph>
    <TTGlyph name="uni2C26" xMin="100" yMin="0" xMax="1661" yMax="1462">
      <contour>
        <pt x="1661" y="684" on="1"/>
        <pt x="1162" y="684" on="1"/>
        <pt x="1255" y="571" on="0"/>
        <pt x="1255" y="346" on="1"/>
        <pt x="1255" y="0" on="1"/>
        <pt x="507" y="0" on="1"/>
        <pt x="507" y="346" on="1"/>
        <pt x="507" y="573" on="0"/>
        <pt x="598" y="684" on="1"/>
        <pt x="100" y="684" on="1"/>
        <pt x="507" y="1462" on="1"/>
        <pt x="1254" y="1462" on="1"/>
      </contour>
      <contour>
        <pt x="1071" y="346" on="1"/>
        <pt x="1071" y="472" on="0"/>
        <pt x="1036" y="585" on="0"/>
        <pt x="953" y="635" on="0"/>
        <pt x="881" y="635" on="1"/>
        <pt x="807" y="635" on="0"/>
        <pt x="726" y="584" on="0"/>
        <pt x="691" y="475" on="0"/>
        <pt x="691" y="346" on="1"/>
        <pt x="691" y="162" on="1"/>
        <pt x="1071" y="162" on="1"/>
      </contour>
      <contour>
        <pt x="1156" y="1300" on="1"/>
        <pt x="973" y="1300" on="1"/>
        <pt x="973" y="846" on="1"/>
        <pt x="1398" y="846" on="1"/>
      </contour>
      <contour>
        <pt x="788" y="846" on="1"/>
        <pt x="788" y="1300" on="1"/>
        <pt x="604" y="1300" on="1"/>
        <pt x="363" y="846" on="1"/>
      </contour>
    </TTGlyph>
    <TTGlyph name="uni2C27" xMin="100" yMin="-20" xMax="2010" yMax="1483">
      <contour>
        <pt x="106" y="190" on="1"/>
        <pt x="268" y="141" on="0"/>
        <pt x="376" y="141" on="1"/>
        <pt x="558" y="141" on="0"/>
        <pt x="747" y="421" on="0"/>
        <pt x="747" y="684" on="1"/>
        <pt x="286" y="684" on="1"/>
        <pt x="286" y="846" on="1"/>
        <pt x="745" y="846" on="1"/>
        <pt x="739" y="1066" on="0"/>
        <pt x="562" y="1321" on="0"/>
        <pt x="421" y="1321" on="1"/>
        <pt x="273" y="1321" on="0"/>
        <pt x="170" y="1250" on="1"/>
        <pt x="100" y="1400" on="1"/>
        <pt x="173" y="1444" on="0"/>
        <pt x="322" y="1483" on="0"/>
        <pt x="423" y="1483" on="1"/>
        <pt x="653" y="1483" on="0"/>
        <pt x="918" y="1158" on="0"/>
        <pt x="938" y="846" on="1"/>
        <pt x="1171" y="846" on="1"/>
        <pt x="1188" y="1152" on="0"/>
        <pt x="1455" y="1483" on="0"/>
        <pt x="1687" y="1483" on="1"/>
        <pt x="1788" y="1483" on="0"/>
        <pt x="1935" y="1445" on="0"/>
        <pt x="2010" y="1400" on="1"/>
        <pt x="1940" y="1250" on="1"/>
        <pt x="1837" y="1321" on="0"/>
        <pt x="1689" y="1321" on="1"/>
        <pt x="1547" y="1321" on="0"/>
        <pt x="1371" y="1065" on="0"/>
        <pt x="1365" y="846" on="1"/>
        <pt x="1824" y="846" on="1"/>
        <pt x="1824" y="684" on="1"/>
        <pt x="1363" y="684" on="1"/>
        <pt x="1363" y="421" on="0"/>
        <pt x="1552" y="141" on="0"/>
        <pt x="1734" y="141" on="1"/>
        <pt x="1842" y="141" on="0"/>
        <pt x="2004" y="190" on="1"/>
        <pt x="2004" y="26" on="1"/>
        <pt x="1859" y="-20" on="0"/>
        <pt x="1705" y="-20" on="1"/>
        <pt x="1456" y="-20" on="0"/>
        <pt x="1184" y="330" on="0"/>
        <pt x="1170" y="684" on="1"/>
        <pt x="939" y="684" on="1"/>
        <pt x="925" y="331" on="0"/>
        <pt x="653" y="-20" on="0"/>
        <pt x="405" y="-20" on="1"/>
        <pt x="251" y="-20" on="0"/>
        <pt x="106" y="26" on="1"/>
      </contour>
    </TTGlyph>
    <TTGlyph name="uni2C28" xMin="160" yMin="-20" xMax="2030" yMax="1483">
      <contour>
        <pt x="2024" y="26" on="1"/>
        <pt x="1879" y="-20" on="0"/>
        <pt x="1725" y="-20" on="1"/>
        <pt x="1476" y="-20" on="0"/>
        <pt x="1204" y="330" on="0"/>
        <pt x="1190" y="684" on="1"/>
        <pt x="986" y="684" on="1"/>
        <pt x="986" y="200" on="1"/>
        <pt x="986" y="108" on="0"/>
        <pt x="955" y="31" on="0"/>
        <pt x="878" y="0" on="0"/>
        <pt x="786" y="0" on="1"/>
        <pt x="387" y="0" on="1"/>
        <pt x="274" y="0" on="0"/>
        <pt x="160" y="131" on="0"/>
        <pt x="160" y="285" on="1"/>
        <pt x="160" y="432" on="0"/>
        <pt x="310" y="677" on="0"/>
        <pt x="446" y="754" on="1"/>
        <pt x="306" y="818" on="0"/>
        <pt x="160" y="1034" on="0"/>
        <pt x="160" y="1177" on="1"/>
        <pt x="160" y="1331" on="0"/>
        <pt x="275" y="1462" on="0"/>
        <pt x="387" y="1462" on="1"/>
        <pt x="786" y="1462" on="1"/>
        <pt x="878" y="1462" on="0"/>
        <pt x="955" y="1431" on="0"/>
        <pt x="986" y="1354" on="0"/>
        <pt x="986" y="1262" on="1"/>
        <pt x="986" y="846" on="1"/>
        <pt x="1191" y="846" on="1"/>
        <pt x="1208" y="1152" on="0"/>
        <pt x="1475" y="1483" on="0"/>
        <pt x="1707" y="1483" on="1"/>
        <pt x="1808" y="1483" on="0"/>
        <pt x="1955" y="1445" on="0"/>
        <pt x="2030" y="1400" on="1"/>
        <pt x="1960" y="1250" on="1"/>
        <pt x="1857" y="1321" on="0"/>
        <pt x="1709" y="1321" on="1"/>
        <pt x="1567" y="1321" on="0"/>
        <pt x="1391" y="1065" on="0"/>
        <pt x="1385" y="846" on="1"/>
        <pt x="1844" y="846" on="1"/>
        <pt x="1844" y="684" on="1"/>
        <pt x="1383" y="684" on="1"/>
        <pt x="1383" y="421" on="0"/>
        <pt x="1572" y="141" on="0"/>
        <pt x="1754" y="141" on="1"/>
        <pt x="1862" y="141" on="0"/>
        <pt x="2024" y="190" on="1"/>
      </contour>
      <contour>
        <pt x="802" y="684" on="1"/>
        <pt x="677" y="683" on="0"/>
        <pt x="465" y="582" on="0"/>
        <pt x="344" y="412" on="0"/>
        <pt x="344" y="317" on="1"/>
        <pt x="344" y="247" on="0"/>
        <pt x="365" y="190" on="0"/>
        <pt x="411" y="162" on="0"/>
        <pt x="451" y="162" on="1"/>
        <pt x="727" y="162" on="1"/>
        <pt x="802" y="162" on="0"/>
        <pt x="802" y="247" on="1"/>
      </contour>
      <contour>
        <pt x="802" y="1212" on="1"/>
        <pt x="802" y="1300" on="0"/>
        <pt x="727" y="1300" on="1"/>
        <pt x="451" y="1300" on="1"/>
        <pt x="410" y="1300" on="0"/>
        <pt x="364" y="1271" on="0"/>
        <pt x="344" y="1214" on="0"/>
        <pt x="344" y="1145" on="1"/>
        <pt x="344" y="1008" on="0"/>
        <pt x="597" y="846" on="0"/>
        <pt x="802" y="846" on="1"/>
      </contour>
    </TTGlyph>
    <TTGlyph name="uni2C29" xMin="100" yMin="-20" xMax="2570" yMax="1483">
      <contour>
        <pt x="507" y="0" on="1"/>
        <pt x="507" y="346" on="1"/>
        <pt x="507" y="573" on="0"/>
        <pt x="598" y="684" on="1"/>
        <pt x="100" y="684" on="1"/>
        <pt x="507" y="1462" on="1"/>
        <pt x="1254" y="1462" on="1"/>
        <pt x="1576" y="846" on="1"/>
        <pt x="1731" y="846" on="1"/>
        <pt x="1748" y="1152" on="0"/>
        <pt x="2015" y="1483" on="0"/>
        <pt x="2247" y="1483" on="1"/>
        <pt x="2348" y="1483" on="0"/>
        <pt x="2495" y="1445" on="0"/>
        <pt x="2570" y="1400" on="1"/>
        <pt x="2500" y="1250" on="1"/>
        <pt x="2397" y="1321" on="0"/>
        <pt x="2249" y="1321" on="1"/>
        <pt x="2107" y="1321" on="0"/>
        <pt x="1931" y="1065" on="0"/>
        <pt x="1925" y="846" on="1"/>
        <pt x="2384" y="846" on="1"/>
        <pt x="2384" y="684" on="1"/>
        <pt x="1923" y="684" on="1"/>
        <pt x="1923" y="421" on="0"/>
        <pt x="2112" y="141" on="0"/>
        <pt x="2294" y="141" on="1"/>
        <pt x="2402" y="141" on="0"/>
        <pt x="2564" y="190" on="1"/>
        <pt x="2564" y="26" on="1"/>
        <pt x="2419" y="-20" on="0"/>
        <pt x="2265" y="-20" on="1"/>
        <pt x="2016" y="-20" on="0"/>
        <pt x="1744" y="330" on="0"/>
        <pt x="1730" y="684" on="1"/>
        <pt x="1162" y="684" on="1"/>
        <pt x="1255" y="571" on="0"/>
        <pt x="1255" y="346" on="1"/>
        <pt x="1255" y="0" on="1"/>
      </contour>
      <contour>
        <pt x="1071" y="346" on="1"/>
        <pt x="1071" y="472" on="0"/>
        <pt x="1036" y="585" on="0"/>
        <pt x="953" y="635" on="0"/>
        <pt x="881" y="635" on="1"/>
        <pt x="807" y="635" on="0"/>
        <pt x="726" y="584" on="0"/>
        <pt x="691" y="475" on="0"/>
        <pt x="691" y="346" on="1"/>
        <pt x="691" y="162" on="1"/>
        <pt x="1071" y="162" on="1"/>
      </contour>
      <contour>
        <pt x="1156" y="1300" on="1"/>
        <pt x="973" y="1300" on="1"/>
        <pt x="973" y="846" on="1"/>
        <pt x="1398" y="846" on="1"/>
      </contour>
      <contour>
        <pt x="788" y="846" on="1"/>
        <pt x="788" y="1300" on="1"/>
        <pt x="604" y="1300" on="1"/>
        <pt x="363" y="846" on="1"/>
      </contour>
    </TTGlyph>
    <TTGlyph name="uni2C2A" xMin="140" yMin="-20" xMax="1758" yMax="1485">
      <contour>
        <pt x="1594" y="545" on="1"/>
        <pt x="1594" y="584" on="1"/>
        <pt x="1594" y="643" on="0"/>
        <pt x="1555" y="684" on="0"/>
        <pt x="1494" y="684" on="1"/>
        <pt x="1463" y="684" on="1"/>
        <pt x="1455" y="347" on="0"/>
        <pt x="1193" y="-20" on="0"/>
        <pt x="960" y="-20" on="1"/>
        <pt x="722" y="-20" on="0"/>
        <pt x="464" y="336" on="0"/>
        <pt x="455" y="684" on="1"/>
        <pt x="424" y="684" on="1"/>
        <pt x="365" y="684" on="0"/>
        <pt x="324" y="645" on="0"/>
        <pt x="324" y="584" on="1"/>
        <pt x="324" y="545" on="1"/>
        <pt x="140" y="545" on="1"/>
        <pt x="140" y="646" on="1"/>
        <pt x="140" y="732" on="0"/>
        <pt x="174" y="812" on="0"/>
        <pt x="256" y="846" on="0"/>
        <pt x="340" y="846" on="1"/>
        <pt x="457" y="846" on="1"/>
        <pt x="476" y="1160" on="0"/>
        <pt x="733" y="1485" on="0"/>
        <pt x="962" y="1485" on="1"/>
        <pt x="1182" y="1485" on="0"/>
        <pt x="1438" y="1156" on="0"/>
        <pt x="1460" y="846" on="1"/>
        <pt x="1558" y="846" on="1"/>
        <pt x="1677" y="846" on="0"/>
        <pt x="1758" y="765" on="0"/>
        <pt x="1758" y="646" on="1"/>
        <pt x="1758" y="545" on="1"/>
      </contour>
      <contour>
        <pt x="960" y="139" on="1"/>
        <pt x="1113" y="139" on="0"/>
        <pt x="1270" y="405" on="0"/>
        <pt x="1277" y="684" on="1"/>
        <pt x="640" y="684" on="1"/>
        <pt x="653" y="139" on="0"/>
      </contour>
      <contour>
        <pt x="962" y="1323" on="1"/>
        <pt x="816" y="1323" on="0"/>
        <pt x="658" y="1088" on="0"/>
        <pt x="643" y="846" on="1"/>
        <pt x="1275" y="846" on="1"/>
        <pt x="1249" y="1323" on="0"/>
      </contour>
    </TTGlyph>
    <TTGlyph name="uni2C2B" xMin="160" yMin="0" xMax="1150" yMax="1462">
      <contour>
        <pt x="1150" y="684" on="1"/>
        <pt x="881" y="684" on="1"/>
        <pt x="862" y="568" on="0"/>
        <pt x="770" y="494" on="1"/>
        <pt x="822" y="448" on="0"/>
        <pt x="888" y="298" on="0"/>
        <pt x="888" y="234" on="1"/>
        <pt x="888" y="0" on="1"/>
        <pt x="160" y="0" on="1"/>
        <pt x="160" y="234" on="1"/>
        <pt x="160" y="313" on="0"/>
        <pt x="216" y="447" on="0"/>
        <pt x="268" y="495" on="1"/>
        <pt x="211" y="542" on="0"/>
        <pt x="161" y="668" on="0"/>
        <pt x="161" y="731" on="1"/>
        <pt x="161" y="794" on="0"/>
        <pt x="211" y="919" on="0"/>
        <pt x="268" y="966" on="1"/>
        <pt x="160" y="1064" on="0"/>
        <pt x="160" y="1228" on="1"/>
        <pt x="160" y="1462" on="1"/>
        <pt x="888" y="1462" on="1"/>
        <pt x="888" y="1228" on="1"/>
        <pt x="888" y="1162" on="0"/>
        <pt x="820" y="1013" on="0"/>
        <pt x="768" y="966" on="1"/>
        <pt x="828" y="917" on="0"/>
        <pt x="859" y="846" on="1"/>
        <pt x="1150" y="846" on="1"/>
      </contour>
      <contour>
        <pt x="524" y="883" on="1"/>
        <pt x="443" y="883" on="0"/>
        <pt x="346" y="797" on="0"/>
        <pt x="346" y="731" on="1"/>
        <pt x="346" y="665" on="0"/>
        <pt x="443" y="579" on="0"/>
        <pt x="524" y="579" on="1"/>
        <pt x="605" y="579" on="0"/>
        <pt x="702" y="664" on="0"/>
        <pt x="702" y="731" on="1"/>
        <pt x="702" y="799" on="0"/>
        <pt x="602" y="883" on="0"/>
      </contour>
      <contour>
        <pt x="704" y="162" on="1"/>
        <pt x="704" y="234" on="1"/>
        <pt x="704" y="321" on="0"/>
        <pt x="608" y="417" on="0"/>
        <pt x="524" y="417" on="1"/>
        <pt x="441" y="417" on="0"/>
        <pt x="344" y="322" on="0"/>
        <pt x="344" y="234" on="1"/>
        <pt x="344" y="162" on="1"/>
      </contour>
      <contour>
        <pt x="344" y="1300" on="1"/>
        <pt x="344" y="1228" on="1"/>
        <pt x="344" y="1141" on="0"/>
        <pt x="441" y="1045" on="0"/>
        <pt x="524" y="1045" on="1"/>
        <pt x="607" y="1045" on="0"/>
        <pt x="704" y="1140" on="0"/>
        <pt x="704" y="1228" on="1"/>
        <pt x="704" y="1300" on="1"/>
      </contour>
    </TTGlyph>
    <TTGlyph name="uni2C2C" xMin="100" yMin="0" xMax="554" yMax="1462">
      <contour>
        <pt x="100" y="1462" on="1"/>
        <pt x="554" y="1462" on="1"/>
        <pt x="554" y="0" on="1"/>
        <pt x="370" y="0" on="1"/>
        <pt x="370" y="1300" on="1"/>
        <pt x="100" y="1300" on="1"/>
      </contour>
    </TTGlyph>
    <TTGlyph name="uni2C2D" xMin="160" yMin="0" xMax="1382" yMax="1462">
      <contour>
        <pt x="1382" y="1462" on="1"/>
        <pt x="1382" y="0" on="1"/>
        <pt x="1198" y="0" on="1"/>
        <pt x="1198" y="597" on="1"/>
        <pt x="160" y="83" on="1"/>
        <pt x="160" y="1382" on="1"/>
        <pt x="1198" y="858" on="1"/>
        <pt x="1198" y="1462" on="1"/>
      </contour>
      <contour>
        <pt x="334" y="1115" on="1"/>
        <pt x="334" y="808" on="1"/>
        <pt x="961" y="808" on="1"/>
      </contour>
      <contour>
        <pt x="334" y="646" on="1"/>
        <pt x="334" y="350" on="1"/>
        <pt x="961" y="646" on="1"/>
      </contour>
    </TTGlyph>
    <TTGlyph name="uni2C2E" xMin="100" yMin="-20" xMax="1926" yMax="1485">
      <contour>
        <pt x="1576" y="910" on="1"/>
        <pt x="1576" y="1092" on="0"/>
        <pt x="1336" y="1306" on="0"/>
        <pt x="1105" y="1324" on="1"/>
        <pt x="1105" y="0" on="1"/>
        <pt x="921" y="0" on="1"/>
        <pt x="921" y="1324" on="1"/>
        <pt x="771" y="1312" on="0"/>
        <pt x="563" y="1213" on="0"/>
        <pt x="450" y="1032" on="0"/>
        <pt x="450" y="910" on="1"/>
        <pt x="450" y="810" on="0"/>
        <pt x="518" y="636" on="0"/>
        <pt x="589" y="547" on="1"/>
        <pt x="664" y="450" on="0"/>
        <pt x="727" y="305" on="0"/>
        <pt x="727" y="225" on="1"/>
        <pt x="727" y="109" on="0"/>
        <pt x="573" y="-20" on="0"/>
        <pt x="430" y="-20" on="1"/>
        <pt x="283" y="-20" on="0"/>
        <pt x="113" y="120" on="0"/>
        <pt x="100" y="259" on="1"/>
        <pt x="276" y="288" on="1"/>
        <pt x="309" y="144" on="0"/>
        <pt x="422" y="144" on="1"/>
        <pt x="480" y="144" on="0"/>
        <pt x="541" y="201" on="0"/>
        <pt x="541" y="255" on="1"/>
        <pt x="541" y="299" on="0"/>
        <pt x="495" y="388" on="0"/>
        <pt x="403" y="513" on="1"/>
        <pt x="264" y="700" on="0"/>
        <pt x="264" y="910" on="1"/>
        <pt x="264" y="1082" on="0"/>
        <pt x="453" y="1351" on="0"/>
        <pt x="786" y="1485" on="0"/>
        <pt x="1013" y="1485" on="1"/>
        <pt x="1237" y="1485" on="0"/>
        <pt x="1572" y="1352" on="0"/>
        <pt x="1762" y="1083" on="0"/>
        <pt x="1762" y="910" on="1"/>
        <pt x="1762" y="700" on="0"/>
        <pt x="1624" y="513" on="1"/>
        <pt x="1532" y="389" on="0"/>
        <pt x="1485" y="300" on="0"/>
        <pt x="1485" y="255" on="1"/>
        <pt x="1485" y="200" on="0"/>
        <pt x="1547" y="142" on="0"/>
        <pt x="1604" y="142" on="1"/>
        <pt x="1716" y="142" on="0"/>
        <pt x="1750" y="288" on="1"/>
        <pt x="1926" y="259" on="1"/>
        <pt x="1910" y="120" on="0"/>
        <pt x="1737" y="-20" on="0"/>
        <pt x="1596" y="-20" on="1"/>
        <pt x="1501" y="-20" on="0"/>
        <pt x="1369" y="44" on="0"/>
        <pt x="1299" y="158" on="0"/>
        <pt x="1299" y="232" on="1"/>
        <pt x="1299" y="302" on="0"/>
        <pt x="1359" y="435" on="0"/>
        <pt x="1438" y="539" on="1"/>
        <pt x="1507" y="630" on="0"/>
        <pt x="1576" y="809" on="0"/>
      </contour>
    </TTGlyph>
    <TTGlyph name="uni2C30" xMin="140" yMin="0" xMax="1308" yMax="1098">
      <contour>
        <pt x="812" y="1098" on="1"/>
        <pt x="812" y="640" on="1"/>
        <pt x="1170" y="640" on="1"/>
        <pt x="1225" y="640" on="0"/>
        <pt x="1284" y="610" on="0"/>
        <pt x="1308" y="544" on="0"/>
        <pt x="1308" y="460" on="1"/>
        <pt x="1308" y="0" on="1"/>
        <pt x="1132" y="0" on="1"/>
        <pt x="1132" y="415" on="1"/>
        <pt x="1132" y="460" on="0"/>
        <pt x="1107" y="495" on="0"/>
        <pt x="1062" y="495" on="1"/>
        <pt x="812" y="495" on="1"/>
        <pt x="812" y="0" on="1"/>
        <pt x="636" y="0" on="1"/>
        <pt x="636" y="495" on="1"/>
        <pt x="386" y="495" on="1"/>
        <pt x="341" y="495" on="0"/>
        <pt x="316" y="460" on="0"/>
        <pt x="316" y="415" on="1"/>
        <pt x="316" y="0" on="1"/>
        <pt x="140" y="0" on="1"/>
        <pt x="140" y="460" on="1"/>
        <pt x="140" y="546" on="0"/>
        <pt x="165" y="611" on="0"/>
        <pt x="225" y="640" on="0"/>
        <pt x="278" y="640" on="1"/>
        <pt x="636" y="640" on="1"/>
        <pt x="636" y="1098" on="1"/>
      </contour>
    </TTGlyph>
    <TTGlyph name="uni2C31" xMin="180" yMin="0" xMax="1348" yMax="1098">
      <contour>
        <pt x="852" y="1098" on="1"/>
        <pt x="852" y="618" on="1"/>
        <pt x="1106" y="641" on="1"/>
        <pt x="1147" y="645" on="0"/>
        <pt x="1172" y="677" on="0"/>
        <pt x="1172" y="725" on="1"/>
        <pt x="1172" y="1098" on="1"/>
        <pt x="1348" y="1098" on="1"/>
        <pt x="1348" y="664" on="1"/>
        <pt x="1348" y="589" on="0"/>
        <pt x="1323" y="540" on="0"/>
        <pt x="1260" y="515" on="0"/>
        <pt x="1195" y="509" on="1"/>
        <pt x="356" y="427" on="1"/>
        <pt x="356" y="225" on="1"/>
        <pt x="356" y="194" on="0"/>
        <pt x="368" y="159" on="0"/>
        <pt x="390" y="145" on="0"/>
        <pt x="426" y="145" on="1"/>
        <pt x="1322" y="145" on="1"/>
        <pt x="1322" y="0" on="1"/>
        <pt x="318" y="0" on="1"/>
        <pt x="260" y="0" on="0"/>
        <pt x="203" y="29" on="0"/>
        <pt x="180" y="95" on="0"/>
        <pt x="180" y="180" on="1"/>
        <pt x="180" y="1098" on="1"/>
        <pt x="356" y="1098" on="1"/>
        <pt x="356" y="573" on="1"/>
        <pt x="676" y="602" on="1"/>
        <pt x="676" y="1098" on="1"/>
      </contour>
    </TTGlyph>
    <TTGlyph name="uni2C32" xMin="180" yMin="0" xMax="1704" yMax="1098">
      <contour>
        <pt x="1052" y="145" on="1"/>
        <pt x="1052" y="918" on="1"/>
        <pt x="1052" y="1001" on="0"/>
        <pt x="1077" y="1068" on="0"/>
        <pt x="1136" y="1098" on="0"/>
        <pt x="1190" y="1098" on="1"/>
        <pt x="1566" y="1098" on="1"/>
        <pt x="1621" y="1098" on="0"/>
        <pt x="1679" y="1067" on="0"/>
        <pt x="1704" y="1000" on="0"/>
        <pt x="1704" y="918" on="1"/>
        <pt x="1704" y="180" on="1"/>
        <pt x="1704" y="97" on="0"/>
        <pt x="1679" y="30" on="0"/>
        <pt x="1620" y="0" on="0"/>
        <pt x="1566" y="0" on="1"/>
        <pt x="318" y="0" on="1"/>
        <pt x="263" y="0" on="0"/>
        <pt x="205" y="31" on="0"/>
        <pt x="180" y="98" on="0"/>
        <pt x="180" y="180" on="1"/>
        <pt x="180" y="918" on="1"/>
        <pt x="180" y="1001" on="0"/>
        <pt x="205" y="1068" on="0"/>
        <pt x="264" y="1098" on="0"/>
        <pt x="318" y="1098" on="1"/>
        <pt x="694" y="1098" on="1"/>
        <pt x="749" y="1098" on="0"/>
        <pt x="807" y="1067" on="0"/>
        <pt x="832" y="1000" on="0"/>
        <pt x="832" y="918" on="1"/>
        <pt x="832" y="145" on="1"/>
      </contour>
      <contour>
        <pt x="656" y="873" on="1"/>
        <pt x="656" y="918" on="0"/>
        <pt x="630" y="953" on="0"/>
        <pt x="586" y="953" on="1"/>
        <pt x="426" y="953" on="1"/>
        <pt x="382" y="953" on="0"/>
        <pt x="356" y="918" on="0"/>
        <pt x="356" y="873" on="1"/>
        <pt x="356" y="225" on="1"/>
        <pt x="356" y="180" on="0"/>
        <pt x="382" y="145" on="0"/>
        <pt x="426" y="145" on="1"/>
        <pt x="656" y="145" on="1"/>
      </contour>
      <contour>
        <pt x="1458" y="145" on="1"/>
        <pt x="1502" y="145" on="0"/>
        <pt x="1528" y="180" on="0"/>
        <pt x="1528" y="225" on="1"/>
        <pt x="1528" y="873" on="1"/>
        <pt x="1528" y="918" on="0"/>
        <pt x="1502" y="953" on="0"/>
        <pt x="1458" y="953" on="1"/>
        <pt x="1298" y="953" on="1"/>
        <pt x="1254" y="953" on="0"/>
        <pt x="1228" y="918" on="0"/>
        <pt x="1228" y="873" on="1"/>
        <pt x="1228" y="145" on="1"/>
      </contour>
    </TTGlyph>
    <TTGlyph name="uni2C33" xMin="140" yMin="0" xMax="1495" yMax="1098">
      <contour>
        <pt x="991" y="0" on="1"/>
        <pt x="936" y="0" on="0"/>
        <pt x="878" y="31" on="0"/>
        <pt x="853" y="98" on="0"/>
        <pt x="853" y="180" on="1"/>
        <pt x="853" y="397" on="1"/>
        <pt x="638" y="397" on="1"/>
        <pt x="485" y="0" on="1"/>
        <pt x="319" y="0" on="1"/>
        <pt x="479" y="416" on="1"/>
        <pt x="326" y="458" on="0"/>
        <pt x="140" y="710" on="0"/>
        <pt x="140" y="874" on="1"/>
        <pt x="140" y="1024" on="1"/>
        <pt x="140" y="1059" on="0"/>
        <pt x="185" y="1098" on="0"/>
        <pt x="223" y="1098" on="1"/>
        <pt x="908" y="1098" on="1"/>
        <pt x="694" y="542" on="1"/>
        <pt x="857" y="542" on="1"/>
        <pt x="865" y="594" on="0"/>
        <pt x="923" y="640" on="0"/>
        <pt x="991" y="640" on="1"/>
        <pt x="1357" y="640" on="1"/>
        <pt x="1412" y="640" on="0"/>
        <pt x="1470" y="609" on="0"/>
        <pt x="1495" y="542" on="0"/>
        <pt x="1495" y="460" on="1"/>
        <pt x="1495" y="0" on="1"/>
      </contour>
      <contour>
        <pt x="377" y="953" on="1"/>
        <pt x="341" y="953" on="0"/>
        <pt x="316" y="923" on="0"/>
        <pt x="316" y="869" on="1"/>
        <pt x="316" y="610" on="0"/>
        <pt x="534" y="557" on="1"/>
        <pt x="686" y="953" on="1"/>
      </contour>
      <contour>
        <pt x="1319" y="415" on="1"/>
        <pt x="1319" y="460" on="0"/>
        <pt x="1293" y="495" on="0"/>
        <pt x="1249" y="495" on="1"/>
        <pt x="1099" y="495" on="1"/>
        <pt x="1055" y="495" on="0"/>
        <pt x="1029" y="460" on="0"/>
        <pt x="1029" y="415" on="1"/>
        <pt x="1029" y="225" on="1"/>
        <pt x="1029" y="180" on="0"/>
        <pt x="1055" y="145" on="0"/>
        <pt x="1099" y="145" on="1"/>
        <pt x="1319" y="145" on="1"/>
      </contour>
    </TTGlyph>
    <TTGlyph name="uni2C34" xMin="180" yMin="0" xMax="1694" yMax="1098">
      <contour>
        <pt x="832" y="200" on="1"/>
        <pt x="832" y="84" on="0"/>
        <pt x="749" y="0" on="0"/>
        <pt x="632" y="0" on="1"/>
        <pt x="380" y="0" on="1"/>
        <pt x="266" y="0" on="0"/>
        <pt x="180" y="83" on="0"/>
        <pt x="180" y="200" on="1"/>
        <pt x="180" y="898" on="1"/>
        <pt x="180" y="1017" on="0"/>
        <pt x="265" y="1098" on="0"/>
        <pt x="380" y="1098" on="1"/>
        <pt x="1090" y="1098" on="1"/>
        <pt x="1145" y="1098" on="0"/>
        <pt x="1203" y="1067" on="0"/>
        <pt x="1228" y="1000" on="0"/>
        <pt x="1228" y="918" on="1"/>
        <pt x="1228" y="680" on="1"/>
        <pt x="1556" y="680" on="1"/>
        <pt x="1611" y="680" on="0"/>
        <pt x="1669" y="649" on="0"/>
        <pt x="1694" y="582" on="0"/>
        <pt x="1694" y="500" on="1"/>
        <pt x="1694" y="180" on="1"/>
        <pt x="1694" y="97" on="0"/>
        <pt x="1669" y="30" on="0"/>
        <pt x="1610" y="0" on="0"/>
        <pt x="1556" y="0" on="1"/>
        <pt x="1190" y="0" on="1"/>
        <pt x="1135" y="0" on="0"/>
        <pt x="1077" y="31" on="0"/>
        <pt x="1052" y="98" on="0"/>
        <pt x="1052" y="180" on="1"/>
        <pt x="1052" y="873" on="1"/>
        <pt x="1052" y="918" on="0"/>
        <pt x="1026" y="953" on="0"/>
        <pt x="982" y="953" on="1"/>
        <pt x="832" y="953" on="1"/>
      </contour>
      <contour>
        <pt x="456" y="953" on="1"/>
        <pt x="397" y="953" on="0"/>
        <pt x="356" y="914" on="0"/>
        <pt x="356" y="853" on="1"/>
        <pt x="356" y="245" on="1"/>
        <pt x="356" y="186" on="0"/>
        <pt x="395" y="145" on="0"/>
        <pt x="456" y="145" on="1"/>
        <pt x="556" y="145" on="1"/>
        <pt x="615" y="145" on="0"/>
        <pt x="656" y="184" on="0"/>
        <pt x="656" y="245" on="1"/>
        <pt x="656" y="953" on="1"/>
      </contour>
      <contour>
        <pt x="1228" y="225" on="1"/>
        <pt x="1228" y="180" on="0"/>
        <pt x="1254" y="145" on="0"/>
        <pt x="1298" y="145" on="1"/>
        <pt x="1448" y="145" on="1"/>
        <pt x="1492" y="145" on="0"/>
        <pt x="1518" y="180" on="0"/>
        <pt x="1518" y="225" on="1"/>
        <pt x="1518" y="455" on="1"/>
        <pt x="1518" y="500" on="0"/>
        <pt x="1492" y="535" on="0"/>
        <pt x="1448" y="535" on="1"/>
        <pt x="1228" y="535" on="1"/>
      </contour>
    </TTGlyph>
    <TTGlyph name="uni2C35" xMin="80" yMin="-20" xMax="920" yMax="1118">
      <contour>
        <pt x="371" y="-20" on="1"/>
        <pt x="202" y="-20" on="0"/>
        <pt x="80" y="39" on="1"/>
        <pt x="80" y="195" on="1"/>
        <pt x="234" y="133" on="0"/>
        <pt x="375" y="133" on="1"/>
        <pt x="711" y="133" on="0"/>
        <pt x="734" y="493" on="1"/>
        <pt x="193" y="493" on="1"/>
        <pt x="193" y="640" on="1"/>
        <pt x="732" y="640" on="1"/>
        <pt x="718" y="808" on="0"/>
        <pt x="556" y="963" on="0"/>
        <pt x="400" y="963" on="1"/>
        <pt x="295" y="963" on="0"/>
        <pt x="144" y="909" on="1"/>
        <pt x="93" y="1055" on="1"/>
        <pt x="157" y="1084" on="0"/>
        <pt x="322" y="1118" on="0"/>
        <pt x="398" y="1118" on="1"/>
        <pt x="655" y="1118" on="0"/>
        <pt x="920" y="827" on="0"/>
        <pt x="920" y="549" on="1"/>
        <pt x="920" y="278" on="0"/>
        <pt x="633" y="-20" on="0"/>
      </contour>
    </TTGlyph>
    <TTGlyph name="uni2C36" xMin="180" yMin="0" xMax="1704" yMax="1392">
      <contour>
        <pt x="1052" y="953" on="1"/>
        <pt x="832" y="953" on="1"/>
        <pt x="832" y="180" on="1"/>
        <pt x="832" y="97" on="0"/>
        <pt x="807" y="30" on="0"/>
        <pt x="748" y="0" on="0"/>
        <pt x="694" y="0" on="1"/>
        <pt x="318" y="0" on="1"/>
        <pt x="263" y="0" on="0"/>
        <pt x="205" y="31" on="0"/>
        <pt x="180" y="98" on="0"/>
        <pt x="180" y="180" on="1"/>
        <pt x="180" y="918" on="1"/>
        <pt x="180" y="1001" on="0"/>
        <pt x="205" y="1068" on="0"/>
        <pt x="264" y="1098" on="0"/>
        <pt x="318" y="1098" on="1"/>
        <pt x="816" y="1098" on="1"/>
        <pt x="751" y="1247" on="0"/>
        <pt x="512" y="1247" on="1"/>
        <pt x="471" y="1247" on="1"/>
        <pt x="471" y="1392" on="1"/>
        <pt x="501" y="1392" on="1"/>
        <pt x="655" y="1392" on="0"/>
        <pt x="880" y="1287" on="0"/>
        <pt x="942" y="1180" on="1"/>
        <pt x="1003" y="1286" on="0"/>
        <pt x="1227" y="1392" on="0"/>
        <pt x="1383" y="1392" on="1"/>
        <pt x="1413" y="1392" on="1"/>
        <pt x="1413" y="1247" on="1"/>
        <pt x="1372" y="1247" on="1"/>
        <pt x="1129" y="1247" on="0"/>
        <pt x="1068" y="1098" on="1"/>
        <pt x="1566" y="1098" on="1"/>
        <pt x="1621" y="1098" on="0"/>
        <pt x="1679" y="1067" on="0"/>
        <pt x="1704" y="1000" on="0"/>
        <pt x="1704" y="918" on="1"/>
        <pt x="1704" y="180" on="1"/>
        <pt x="1704" y="97" on="0"/>
        <pt x="1679" y="30" on="0"/>
        <pt x="1620" y="0" on="0"/>
        <pt x="1566" y="0" on="1"/>
        <pt x="1190" y="0" on="1"/>
        <pt x="1135" y="0" on="0"/>
        <pt x="1077" y="31" on="0"/>
        <pt x="1052" y="98" on="0"/>
        <pt x="1052" y="180" on="1"/>
      </contour>
      <contour>
        <pt x="1228" y="225" on="1"/>
        <pt x="1228" y="180" on="0"/>
        <pt x="1254" y="145" on="0"/>
        <pt x="1298" y="145" on="1"/>
        <pt x="1458" y="145" on="1"/>
        <pt x="1502" y="145" on="0"/>
        <pt x="1528" y="180" on="0"/>
        <pt x="1528" y="225" on="1"/>
        <pt x="1528" y="873" on="1"/>
        <pt x="1528" y="918" on="0"/>
        <pt x="1502" y="953" on="0"/>
        <pt x="1458" y="953" on="1"/>
        <pt x="1228" y="953" on="1"/>
      </contour>
      <contour>
        <pt x="426" y="953" on="1"/>
        <pt x="382" y="953" on="0"/>
        <pt x="356" y="918" on="0"/>
        <pt x="356" y="873" on="1"/>
        <pt x="356" y="225" on="1"/>
        <pt x="356" y="180" on="0"/>
        <pt x="382" y="145" on="0"/>
        <pt x="426" y="145" on="1"/>
        <pt x="586" y="145" on="1"/>
        <pt x="630" y="145" on="0"/>
        <pt x="656" y="180" on="0"/>
        <pt x="656" y="225" on="1"/>
        <pt x="656" y="953" on="1"/>
      </contour>
    </TTGlyph>
    <TTGlyph name="uni2C37" xMin="140" yMin="0" xMax="1248" yMax="1098">
      <contour>
        <pt x="278" y="0" on="1"/>
        <pt x="223" y="0" on="0"/>
        <pt x="165" y="31" on="0"/>
        <pt x="140" y="98" on="0"/>
        <pt x="140" y="180" on="1"/>
        <pt x="140" y="460" on="1"/>
        <pt x="140" y="543" on="0"/>
        <pt x="165" y="610" on="0"/>
        <pt x="224" y="640" on="0"/>
        <pt x="278" y="640" on="1"/>
        <pt x="606" y="640" on="1"/>
        <pt x="606" y="958" on="1"/>
        <pt x="606" y="1035" on="0"/>
        <pt x="663" y="1098" on="0"/>
        <pt x="727" y="1098" on="1"/>
        <pt x="1142" y="1098" on="1"/>
        <pt x="1184" y="1098" on="0"/>
        <pt x="1248" y="1052" on="0"/>
        <pt x="1248" y="1004" on="1"/>
        <pt x="1248" y="934" on="1"/>
        <pt x="1248" y="753" on="0"/>
        <pt x="1128" y="639" on="1"/>
        <pt x="1196" y="636" on="0"/>
        <pt x="1248" y="567" on="0"/>
        <pt x="1248" y="460" on="1"/>
        <pt x="1248" y="180" on="1"/>
        <pt x="1248" y="97" on="0"/>
        <pt x="1223" y="30" on="0"/>
        <pt x="1164" y="0" on="0"/>
        <pt x="1110" y="0" on="1"/>
      </contour>
      <contour>
        <pt x="782" y="145" on="1"/>
        <pt x="1002" y="145" on="1"/>
        <pt x="1046" y="145" on="0"/>
        <pt x="1072" y="180" on="0"/>
        <pt x="1072" y="225" on="1"/>
        <pt x="1072" y="415" on="1"/>
        <pt x="1072" y="460" on="0"/>
        <pt x="1046" y="495" on="0"/>
        <pt x="1002" y="495" on="1"/>
        <pt x="782" y="495" on="1"/>
      </contour>
      <contour>
        <pt x="386" y="495" on="1"/>
        <pt x="342" y="495" on="0"/>
        <pt x="316" y="460" on="0"/>
        <pt x="316" y="415" on="1"/>
        <pt x="316" y="225" on="1"/>
        <pt x="316" y="180" on="0"/>
        <pt x="342" y="145" on="0"/>
        <pt x="386" y="145" on="1"/>
        <pt x="606" y="145" on="1"/>
        <pt x="606" y="495" on="1"/>
      </contour>
      <contour>
        <pt x="797" y="640" on="1"/>
        <pt x="885" y="640" on="0"/>
        <pt x="1009" y="701" on="0"/>
        <pt x="1078" y="806" on="0"/>
        <pt x="1078" y="868" on="1"/>
        <pt x="1078" y="924" on="0"/>
        <pt x="1055" y="953" on="0"/>
        <pt x="1027" y="953" on="1"/>
        <pt x="832" y="953" on="1"/>
        <pt x="797" y="953" on="0"/>
        <pt x="782" y="916" on="0"/>
        <pt x="782" y="878" on="1"/>
        <pt x="782" y="640" on="1"/>
      </contour>
    </TTGlyph>
    <TTGlyph name="uni2C38" xMin="180" yMin="0" xMax="1568" yMax="1098">
      <contour>
        <pt x="1430" y="640" on="1"/>
        <pt x="1485" y="640" on="0"/>
        <pt x="1543" y="609" on="0"/>
        <pt x="1568" y="542" on="0"/>
        <pt x="1568" y="460" on="1"/>
        <pt x="1568" y="180" on="1"/>
        <pt x="1568" y="97" on="0"/>
        <pt x="1543" y="30" on="0"/>
        <pt x="1484" y="0" on="0"/>
        <pt x="1430" y="0" on="1"/>
        <pt x="1064" y="0" on="1"/>
        <pt x="1009" y="0" on="0"/>
        <pt x="951" y="31" on="0"/>
        <pt x="926" y="98" on="0"/>
        <pt x="926" y="180" on="1"/>
        <pt x="926" y="495" on="1"/>
        <pt x="791" y="495" on="1"/>
        <pt x="777" y="266" on="0"/>
        <pt x="551" y="0" on="0"/>
        <pt x="371" y="0" on="1"/>
        <pt x="180" y="0" on="1"/>
        <pt x="180" y="1098" on="1"/>
        <pt x="371" y="1098" on="1"/>
        <pt x="554" y="1098" on="0"/>
        <pt x="771" y="859" on="0"/>
        <pt x="789" y="639" on="1"/>
      </contour>
      <contour>
        <pt x="1102" y="225" on="1"/>
        <pt x="1102" y="180" on="0"/>
        <pt x="1128" y="145" on="0"/>
        <pt x="1172" y="145" on="1"/>
        <pt x="1322" y="145" on="1"/>
        <pt x="1366" y="145" on="0"/>
        <pt x="1392" y="180" on="0"/>
        <pt x="1392" y="225" on="1"/>
        <pt x="1392" y="415" on="1"/>
        <pt x="1392" y="460" on="0"/>
        <pt x="1366" y="495" on="0"/>
        <pt x="1322" y="495" on="1"/>
        <pt x="1102" y="495" on="1"/>
      </contour>
      <contour>
        <pt x="399" y="145" on="1"/>
        <pt x="491" y="145" on="0"/>
        <pt x="599" y="325" on="0"/>
        <pt x="607" y="495" on="1"/>
        <pt x="356" y="495" on="1"/>
        <pt x="356" y="145" on="1"/>
      </contour>
      <contour>
        <pt x="356" y="639" on="1"/>
        <pt x="606" y="639" on="1"/>
        <pt x="593" y="792" on="0"/>
        <pt x="488" y="955" on="0"/>
        <pt x="401" y="955" on="1"/>
        <pt x="356" y="955" on="1"/>
      </contour>
    </TTGlyph>
    <TTGlyph name="uni2C39" xMin="140" yMin="0" xMax="1732" yMax="1098">
      <contour>
        <pt x="1732" y="842" on="1"/>
        <pt x="1732" y="656" on="0"/>
        <pt x="1564" y="469" on="0"/>
        <pt x="1407" y="469" on="1"/>
        <pt x="1257" y="469" on="0"/>
        <pt x="1172" y="574" on="1"/>
        <pt x="1112" y="503" on="0"/>
        <pt x="1024" y="479" on="1"/>
        <pt x="1024" y="145" on="1"/>
        <pt x="1187" y="145" on="1"/>
        <pt x="1187" y="0" on="1"/>
        <pt x="685" y="0" on="1"/>
        <pt x="685" y="145" on="1"/>
        <pt x="848" y="145" on="1"/>
        <pt x="848" y="478" on="1"/>
        <pt x="754" y="498" on="0"/>
        <pt x="695" y="568" on="1"/>
        <pt x="609" y="469" on="0"/>
        <pt x="465" y="469" on="1"/>
        <pt x="308" y="469" on="0"/>
        <pt x="140" y="656" on="0"/>
        <pt x="140" y="842" on="1"/>
        <pt x="140" y="1098" on="1"/>
        <pt x="1732" y="1098" on="1"/>
      </contour>
      <contour>
        <pt x="316" y="953" on="1"/>
        <pt x="316" y="843" on="1"/>
        <pt x="316" y="750" on="0"/>
        <pt x="345" y="661" on="0"/>
        <pt x="410" y="616" on="0"/>
        <pt x="465" y="616" on="1"/>
        <pt x="521" y="616" on="0"/>
        <pt x="584" y="656" on="0"/>
        <pt x="612" y="740" on="0"/>
        <pt x="612" y="842" on="1"/>
        <pt x="612" y="953" on="1"/>
      </contour>
      <contour>
        <pt x="788" y="953" on="1"/>
        <pt x="788" y="831" on="1"/>
        <pt x="788" y="712" on="0"/>
        <pt x="858" y="616" on="0"/>
        <pt x="937" y="616" on="1"/>
        <pt x="993" y="616" on="0"/>
        <pt x="1056" y="656" on="0"/>
        <pt x="1084" y="740" on="0"/>
        <pt x="1084" y="844" on="1"/>
        <pt x="1084" y="953" on="1"/>
      </contour>
      <contour>
        <pt x="1260" y="953" on="1"/>
        <pt x="1260" y="831" on="1"/>
        <pt x="1260" y="705" on="0"/>
        <pt x="1326" y="616" on="0"/>
        <pt x="1407" y="616" on="1"/>
        <pt x="1462" y="616" on="0"/>
        <pt x="1527" y="661" on="0"/>
        <pt x="1556" y="751" on="0"/>
        <pt x="1556" y="843" on="1"/>
        <pt x="1556" y="953" on="1"/>
      </contour>
    </TTGlyph>
    <TTGlyph name="uni2C3A" xMin="140" yMin="0" xMax="1732" yMax="1098">
      <contour>
        <pt x="1732" y="842" on="1"/>
        <pt x="1732" y="656" on="0"/>
        <pt x="1564" y="469" on="0"/>
        <pt x="1407" y="469" on="1"/>
        <pt x="1257" y="469" on="0"/>
        <pt x="1172" y="574" on="1"/>
        <pt x="1144" y="544" on="1"/>
        <pt x="1197" y="498" on="0"/>
        <pt x="1260" y="348" on="0"/>
        <pt x="1260" y="254" on="1"/>
        <pt x="1260" y="0" on="1"/>
        <pt x="612" y="0" on="1"/>
        <pt x="612" y="256" on="1"/>
        <pt x="612" y="453" on="0"/>
        <pt x="717" y="544" on="1"/>
        <pt x="695" y="568" on="1"/>
        <pt x="609" y="469" on="0"/>
        <pt x="465" y="469" on="1"/>
        <pt x="308" y="469" on="0"/>
        <pt x="140" y="656" on="0"/>
        <pt x="140" y="842" on="1"/>
        <pt x="140" y="1098" on="1"/>
        <pt x="1732" y="1098" on="1"/>
      </contour>
      <contour>
        <pt x="788" y="953" on="1"/>
        <pt x="788" y="831" on="1"/>
        <pt x="788" y="712" on="0"/>
        <pt x="858" y="616" on="0"/>
        <pt x="937" y="616" on="1"/>
        <pt x="993" y="616" on="0"/>
        <pt x="1056" y="656" on="0"/>
        <pt x="1084" y="740" on="0"/>
        <pt x="1084" y="842" on="1"/>
        <pt x="1084" y="953" on="1"/>
      </contour>
      <contour>
        <pt x="316" y="953" on="1"/>
        <pt x="316" y="843" on="1"/>
        <pt x="316" y="750" on="0"/>
        <pt x="345" y="661" on="0"/>
        <pt x="410" y="616" on="0"/>
        <pt x="465" y="616" on="1"/>
        <pt x="521" y="616" on="0"/>
        <pt x="584" y="656" on="0"/>
        <pt x="612" y="740" on="0"/>
        <pt x="612" y="842" on="1"/>
        <pt x="612" y="953" on="1"/>
      </contour>
      <contour>
        <pt x="1260" y="953" on="1"/>
        <pt x="1260" y="831" on="1"/>
        <pt x="1260" y="705" on="0"/>
        <pt x="1326" y="616" on="0"/>
        <pt x="1407" y="616" on="1"/>
        <pt x="1462" y="616" on="0"/>
        <pt x="1527" y="661" on="0"/>
        <pt x="1556" y="751" on="0"/>
        <pt x="1556" y="843" on="1"/>
        <pt x="1556" y="953" on="1"/>
      </contour>
      <contour>
        <pt x="1084" y="256" on="1"/>
        <pt x="1084" y="351" on="0"/>
        <pt x="1056" y="431" on="0"/>
        <pt x="994" y="469" on="0"/>
        <pt x="937" y="469" on="1"/>
        <pt x="859" y="469" on="0"/>
        <pt x="788" y="379" on="0"/>
        <pt x="788" y="255" on="1"/>
        <pt x="788" y="145" on="1"/>
        <pt x="1084" y="145" on="1"/>
      </contour>
    </TTGlyph>
    <TTGlyph name="uni2C3B" xMin="160" yMin="0" xMax="808" yMax="1098">
      <contour>
        <pt x="808" y="864" on="1"/>
        <pt x="808" y="770" on="0"/>
        <pt x="746" y="614" on="0"/>
        <pt x="692" y="564" on="1"/>
        <pt x="745" y="518" on="0"/>
        <pt x="808" y="368" on="0"/>
        <pt x="808" y="274" on="1"/>
        <pt x="808" y="0" on="1"/>
        <pt x="160" y="0" on="1"/>
        <pt x="160" y="276" on="1"/>
        <pt x="160" y="473" on="0"/>
        <pt x="265" y="564" on="1"/>
        <pt x="160" y="662" on="0"/>
        <pt x="160" y="862" on="1"/>
        <pt x="160" y="1098" on="1"/>
        <pt x="808" y="1098" on="1"/>
      </contour>
      <contour>
        <pt x="632" y="276" on="1"/>
        <pt x="632" y="371" on="0"/>
        <pt x="604" y="451" on="0"/>
        <pt x="542" y="489" on="0"/>
        <pt x="485" y="489" on="1"/>
        <pt x="407" y="489" on="0"/>
        <pt x="336" y="399" on="0"/>
        <pt x="336" y="275" on="1"/>
        <pt x="336" y="145" on="1"/>
        <pt x="632" y="145" on="1"/>
      </contour>
      <contour>
        <pt x="336" y="953" on="1"/>
        <pt x="336" y="863" on="1"/>
        <pt x="336" y="770" on="0"/>
        <pt x="365" y="681" on="0"/>
        <pt x="430" y="636" on="0"/>
        <pt x="485" y="636" on="1"/>
        <pt x="541" y="636" on="0"/>
        <pt x="604" y="676" on="0"/>
        <pt x="632" y="760" on="0"/>
        <pt x="632" y="862" on="1"/>
        <pt x="632" y="953" on="1"/>
      </contour>
    </TTGlyph>
    <TTGlyph name="uni2C3C" xMin="180" yMin="0" xMax="1742" yMax="1098">
      <contour>
        <pt x="1052" y="455" on="1"/>
        <pt x="832" y="455" on="1"/>
        <pt x="832" y="0" on="1"/>
        <pt x="656" y="0" on="1"/>
        <pt x="656" y="853" on="1"/>
        <pt x="656" y="909" on="0"/>
        <pt x="644" y="940" on="0"/>
        <pt x="612" y="953" on="0"/>
        <pt x="576" y="953" on="1"/>
        <pt x="436" y="953" on="1"/>
        <pt x="402" y="953" on="0"/>
        <pt x="369" y="942" on="0"/>
        <pt x="356" y="914" on="0"/>
        <pt x="356" y="853" on="1"/>
        <pt x="356" y="0" on="1"/>
        <pt x="180" y="0" on="1"/>
        <pt x="180" y="908" on="1"/>
        <pt x="180" y="1009" on="0"/>
        <pt x="209" y="1073" on="0"/>
        <pt x="281" y="1098" on="0"/>
        <pt x="350" y="1098" on="1"/>
        <pt x="662" y="1098" on="1"/>
        <pt x="734" y="1098" on="0"/>
        <pt x="804" y="1069" on="0"/>
        <pt x="832" y="1000" on="0"/>
        <pt x="832" y="898" on="1"/>
        <pt x="832" y="599" on="1"/>
        <pt x="1052" y="599" on="1"/>
        <pt x="1052" y="928" on="1"/>
        <pt x="1052" y="1002" on="0"/>
        <pt x="1079" y="1067" on="0"/>
        <pt x="1140" y="1098" on="0"/>
        <pt x="1193" y="1098" on="1"/>
        <pt x="1648" y="1098" on="1"/>
        <pt x="1690" y="1098" on="0"/>
        <pt x="1742" y="1052" on="0"/>
        <pt x="1742" y="1004" on="1"/>
        <pt x="1742" y="874" on="1"/>
        <pt x="1742" y="680" on="0"/>
        <pt x="1480" y="465" on="0"/>
        <pt x="1228" y="453" on="1"/>
        <pt x="1228" y="0" on="1"/>
        <pt x="1052" y="0" on="1"/>
      </contour>
      <contour>
        <pt x="1228" y="597" on="1"/>
        <pt x="1393" y="602" on="0"/>
        <pt x="1566" y="733" on="0"/>
        <pt x="1566" y="868" on="1"/>
        <pt x="1566" y="909" on="0"/>
        <pt x="1547" y="953" on="0"/>
        <pt x="1515" y="953" on="1"/>
        <pt x="1294" y="953" on="1"/>
        <pt x="1228" y="953" on="0"/>
        <pt x="1228" y="878" on="1"/>
      </contour>
    </TTGlyph>
    <TTGlyph name="uni2C3D" xMin="60" yMin="0" xMax="634" yMax="1098">
      <contour>
        <pt x="221" y="1098" on="1"/>
        <pt x="387" y="1098" on="1"/>
        <pt x="264" y="640" on="1"/>
        <pt x="496" y="640" on="1"/>
        <pt x="551" y="640" on="0"/>
        <pt x="609" y="609" on="0"/>
        <pt x="634" y="542" on="0"/>
        <pt x="634" y="460" on="1"/>
        <pt x="634" y="0" on="1"/>
        <pt x="458" y="0" on="1"/>
        <pt x="458" y="415" on="1"/>
        <pt x="458" y="460" on="0"/>
        <pt x="432" y="495" on="0"/>
        <pt x="388" y="495" on="1"/>
        <pt x="60" y="495" on="1"/>
      </contour>
    </TTGlyph>
    <TTGlyph name="uni2C3E" xMin="140" yMin="0" xMax="1644" yMax="1098">
      <contour>
        <pt x="782" y="495" on="1"/>
        <pt x="782" y="180" on="1"/>
        <pt x="782" y="97" on="0"/>
        <pt x="757" y="30" on="0"/>
        <pt x="698" y="0" on="0"/>
        <pt x="644" y="0" on="1"/>
        <pt x="278" y="0" on="1"/>
        <pt x="223" y="0" on="0"/>
        <pt x="165" y="31" on="0"/>
        <pt x="140" y="98" on="0"/>
        <pt x="140" y="180" on="1"/>
        <pt x="140" y="460" on="1"/>
        <pt x="140" y="543" on="0"/>
        <pt x="165" y="610" on="0"/>
        <pt x="224" y="640" on="0"/>
        <pt x="278" y="640" on="1"/>
        <pt x="606" y="640" on="1"/>
        <pt x="606" y="928" on="1"/>
        <pt x="606" y="1021" on="0"/>
        <pt x="628" y="1076" on="0"/>
        <pt x="683" y="1098" on="0"/>
        <pt x="756" y="1098" on="1"/>
        <pt x="1028" y="1098" on="1"/>
        <pt x="1103" y="1098" on="0"/>
        <pt x="1157" y="1075" on="0"/>
        <pt x="1178" y="1015" on="0"/>
        <pt x="1178" y="928" on="1"/>
        <pt x="1178" y="640" on="1"/>
        <pt x="1506" y="640" on="1"/>
        <pt x="1561" y="640" on="0"/>
        <pt x="1619" y="609" on="0"/>
        <pt x="1644" y="542" on="0"/>
        <pt x="1644" y="460" on="1"/>
        <pt x="1644" y="180" on="1"/>
        <pt x="1644" y="97" on="0"/>
        <pt x="1619" y="30" on="0"/>
        <pt x="1560" y="0" on="0"/>
        <pt x="1506" y="0" on="1"/>
        <pt x="1140" y="0" on="1"/>
        <pt x="1085" y="0" on="0"/>
        <pt x="1027" y="31" on="0"/>
        <pt x="1002" y="98" on="0"/>
        <pt x="1002" y="180" on="1"/>
        <pt x="1002" y="495" on="1"/>
      </contour>
      <contour>
        <pt x="1178" y="225" on="1"/>
        <pt x="1178" y="180" on="0"/>
        <pt x="1204" y="145" on="0"/>
        <pt x="1248" y="145" on="1"/>
        <pt x="1398" y="145" on="1"/>
        <pt x="1442" y="145" on="0"/>
        <pt x="1468" y="180" on="0"/>
        <pt x="1468" y="225" on="1"/>
        <pt x="1468" y="415" on="1"/>
        <pt x="1468" y="460" on="0"/>
        <pt x="1442" y="495" on="0"/>
        <pt x="1398" y="495" on="1"/>
        <pt x="1178" y="495" on="1"/>
      </contour>
      <contour>
        <pt x="386" y="495" on="1"/>
        <pt x="342" y="495" on="0"/>
        <pt x="316" y="460" on="0"/>
        <pt x="316" y="415" on="1"/>
        <pt x="316" y="225" on="1"/>
        <pt x="316" y="180" on="0"/>
        <pt x="342" y="145" on="0"/>
        <pt x="386" y="145" on="1"/>
        <pt x="536" y="145" on="1"/>
        <pt x="580" y="145" on="0"/>
        <pt x="606" y="180" on="0"/>
        <pt x="606" y="225" on="1"/>
        <pt x="606" y="495" on="1"/>
      </contour>
      <contour>
        <pt x="1002" y="853" on="1"/>
        <pt x="1002" y="911" on="0"/>
        <pt x="993" y="941" on="0"/>
        <pt x="968" y="953" on="0"/>
        <pt x="942" y="953" on="1"/>
        <pt x="842" y="953" on="1"/>
        <pt x="816" y="953" on="0"/>
        <pt x="792" y="941" on="0"/>
        <pt x="782" y="912" on="0"/>
        <pt x="782" y="853" on="1"/>
        <pt x="782" y="640" on="1"/>
        <pt x="1002" y="640" on="1"/>
      </contour>
    </TTGlyph>
    <TTGlyph name="uni2C3F" xMin="180" yMin="0" xMax="1300" yMax="1118">
      <contour>
        <pt x="1124" y="0" on="1"/>
        <pt x="1124" y="757" on="1"/>
        <pt x="1124" y="881" on="0"/>
        <pt x="1053" y="971" on="0"/>
        <pt x="975" y="971" on="1"/>
        <pt x="919" y="971" on="0"/>
        <pt x="856" y="934" on="0"/>
        <pt x="828" y="855" on="0"/>
        <pt x="828" y="758" on="1"/>
        <pt x="828" y="0" on="1"/>
        <pt x="652" y="0" on="1"/>
        <pt x="652" y="756" on="1"/>
        <pt x="652" y="882" on="0"/>
        <pt x="588" y="971" on="0"/>
        <pt x="505" y="971" on="1"/>
        <pt x="427" y="971" on="0"/>
        <pt x="356" y="881" on="0"/>
        <pt x="356" y="757" on="1"/>
        <pt x="356" y="0" on="1"/>
        <pt x="180" y="0" on="1"/>
        <pt x="180" y="758" on="1"/>
        <pt x="180" y="935" on="0"/>
        <pt x="350" y="1118" on="0"/>
        <pt x="505" y="1118" on="1"/>
        <pt x="654" y="1118" on="0"/>
        <pt x="740" y="1019" on="1"/>
        <pt x="826" y="1118" on="0"/>
        <pt x="975" y="1118" on="1"/>
        <pt x="1130" y="1118" on="0"/>
        <pt x="1300" y="934" on="0"/>
        <pt x="1300" y="758" on="1"/>
        <pt x="1300" y="0" on="1"/>
      </contour>
    </TTGlyph>
    <TTGlyph name="uni2C40" xMin="180" yMin="0" xMax="870" yMax="1098">
      <contour>
        <pt x="180" y="928" on="1"/>
        <pt x="180" y="1021" on="0"/>
        <pt x="257" y="1098" on="0"/>
        <pt x="341" y="1098" on="1"/>
        <pt x="776" y="1098" on="1"/>
        <pt x="818" y="1098" on="0"/>
        <pt x="870" y="1052" on="0"/>
        <pt x="870" y="1004" on="1"/>
        <pt x="870" y="874" on="1"/>
        <pt x="870" y="680" on="0"/>
        <pt x="608" y="465" on="0"/>
        <pt x="356" y="453" on="1"/>
        <pt x="356" y="0" on="1"/>
        <pt x="180" y="0" on="1"/>
      </contour>
      <contour>
        <pt x="356" y="597" on="1"/>
        <pt x="521" y="602" on="0"/>
        <pt x="694" y="733" on="0"/>
        <pt x="694" y="868" on="1"/>
        <pt x="694" y="909" on="0"/>
        <pt x="675" y="953" on="0"/>
        <pt x="643" y="953" on="1"/>
        <pt x="422" y="953" on="1"/>
        <pt x="356" y="953" on="0"/>
        <pt x="356" y="878" on="1"/>
      </contour>
    </TTGlyph>
    <TTGlyph name="uni2C41" xMin="160" yMin="0" xMax="856" yMax="1098">
      <contour>
        <pt x="675" y="0" on="1"/>
        <pt x="359" y="0" on="1"/>
        <pt x="260" y="0" on="0"/>
        <pt x="160" y="96" on="0"/>
        <pt x="160" y="214" on="1"/>
        <pt x="160" y="321" on="0"/>
        <pt x="288" y="504" on="0"/>
        <pt x="402" y="563" on="1"/>
        <pt x="291" y="611" on="0"/>
        <pt x="160" y="774" on="0"/>
        <pt x="160" y="884" on="1"/>
        <pt x="160" y="1098" on="0"/>
        <pt x="339" y="1098" on="1"/>
        <pt x="695" y="1098" on="1"/>
        <pt x="765" y="1098" on="0"/>
        <pt x="831" y="1078" on="0"/>
        <pt x="856" y="1028" on="0"/>
        <pt x="856" y="951" on="1"/>
        <pt x="856" y="147" on="1"/>
        <pt x="856" y="80" on="0"/>
        <pt x="829" y="23" on="0"/>
        <pt x="764" y="0" on="0"/>
      </contour>
      <contour>
        <pt x="680" y="498" on="1"/>
        <pt x="525" y="487" on="0"/>
        <pt x="334" y="343" on="0"/>
        <pt x="334" y="238" on="1"/>
        <pt x="334" y="186" on="0"/>
        <pt x="361" y="145" on="0"/>
        <pt x="396" y="145" on="1"/>
        <pt x="631" y="145" on="1"/>
        <pt x="661" y="145" on="0"/>
        <pt x="680" y="180" on="0"/>
        <pt x="680" y="211" on="1"/>
      </contour>
      <contour>
        <pt x="680" y="640" on="1"/>
        <pt x="680" y="887" on="1"/>
        <pt x="680" y="918" on="0"/>
        <pt x="660" y="953" on="0"/>
        <pt x="623" y="953" on="1"/>
        <pt x="420" y="953" on="1"/>
        <pt x="386" y="953" on="0"/>
        <pt x="350" y="937" on="0"/>
        <pt x="334" y="906" on="0"/>
        <pt x="334" y="860" on="1"/>
        <pt x="334" y="761" on="0"/>
        <pt x="506" y="648" on="0"/>
      </contour>
    </TTGlyph>
    <TTGlyph name="uni2C42" xMin="180" yMin="0" xMax="1218" yMax="1098">
      <contour>
        <pt x="436" y="953" on="1"/>
        <pt x="402" y="953" on="0"/>
        <pt x="369" y="942" on="0"/>
        <pt x="356" y="914" on="0"/>
        <pt x="356" y="853" on="1"/>
        <pt x="356" y="0" on="1"/>
        <pt x="180" y="0" on="1"/>
        <pt x="180" y="908" on="1"/>
        <pt x="180" y="1009" on="0"/>
        <pt x="209" y="1073" on="0"/>
        <pt x="281" y="1098" on="0"/>
        <pt x="350" y="1098" on="1"/>
        <pt x="1080" y="1098" on="1"/>
        <pt x="1135" y="1098" on="0"/>
        <pt x="1193" y="1067" on="0"/>
        <pt x="1218" y="1000" on="0"/>
        <pt x="1218" y="918" on="1"/>
        <pt x="1218" y="498" on="1"/>
        <pt x="1218" y="415" on="0"/>
        <pt x="1193" y="348" on="0"/>
        <pt x="1134" y="318" on="0"/>
        <pt x="1080" y="318" on="1"/>
        <pt x="714" y="318" on="1"/>
        <pt x="659" y="318" on="0"/>
        <pt x="601" y="349" on="0"/>
        <pt x="576" y="416" on="0"/>
        <pt x="576" y="498" on="1"/>
        <pt x="576" y="953" on="1"/>
      </contour>
      <contour>
        <pt x="752" y="543" on="1"/>
        <pt x="752" y="498" on="0"/>
        <pt x="778" y="463" on="0"/>
        <pt x="822" y="463" on="1"/>
        <pt x="972" y="463" on="1"/>
        <pt x="1016" y="463" on="0"/>
        <pt x="1042" y="498" on="0"/>
        <pt x="1042" y="543" on="1"/>
        <pt x="1042" y="873" on="1"/>
        <pt x="1042" y="918" on="0"/>
        <pt x="1016" y="953" on="0"/>
        <pt x="972" y="953" on="1"/>
        <pt x="752" y="953" on="1"/>
      </contour>
    </TTGlyph>
    <TTGlyph name="uni2C43" xMin="180" yMin="0" xMax="856" yMax="1098">
      <contour>
        <pt x="356" y="640" on="1"/>
        <pt x="585" y="638" on="0"/>
        <pt x="856" y="407" on="0"/>
        <pt x="856" y="214" on="1"/>
        <pt x="856" y="134" on="0"/>
        <pt x="815" y="48" on="0"/>
        <pt x="730" y="0" on="0"/>
        <pt x="657" y="0" on="1"/>
        <pt x="361" y="0" on="1"/>
        <pt x="275" y="0" on="0"/>
        <pt x="208" y="22" on="0"/>
        <pt x="180" y="79" on="0"/>
        <pt x="180" y="147" on="1"/>
        <pt x="180" y="1098" on="1"/>
        <pt x="356" y="1098" on="1"/>
      </contour>
      <contour>
        <pt x="682" y="238" on="1"/>
        <pt x="682" y="358" on="0"/>
        <pt x="511" y="494" on="0"/>
        <pt x="356" y="499" on="1"/>
        <pt x="356" y="211" on="1"/>
        <pt x="356" y="180" on="0"/>
        <pt x="375" y="145" on="0"/>
        <pt x="405" y="145" on="1"/>
        <pt x="620" y="145" on="1"/>
        <pt x="654" y="145" on="0"/>
        <pt x="682" y="185" on="0"/>
      </contour>
    </TTGlyph>
    <TTGlyph name="uni2C44" xMin="120" yMin="0" xMax="1194" yMax="1118">
      <contour>
        <pt x="333" y="0" on="1"/>
        <pt x="333" y="322" on="1"/>
        <pt x="231" y="382" on="0"/>
        <pt x="120" y="582" on="0"/>
        <pt x="120" y="692" on="1"/>
        <pt x="120" y="813" on="0"/>
        <pt x="248" y="1009" on="0"/>
        <pt x="490" y="1118" on="0"/>
        <pt x="657" y="1118" on="1"/>
        <pt x="825" y="1118" on="0"/>
        <pt x="1066" y="1008" on="0"/>
        <pt x="1194" y="814" on="0"/>
        <pt x="1194" y="692" on="1"/>
        <pt x="1194" y="580" on="0"/>
        <pt x="1080" y="379" on="0"/>
        <pt x="981" y="322" on="1"/>
        <pt x="981" y="0" on="1"/>
      </contour>
      <contour>
        <pt x="297" y="694" on="1"/>
        <pt x="297" y="568" on="0"/>
        <pt x="371" y="494" on="1"/>
        <pt x="445" y="660" on="0"/>
        <pt x="658" y="660" on="1"/>
        <pt x="853" y="660" on="0"/>
        <pt x="938" y="490" on="1"/>
        <pt x="1017" y="566" on="0"/>
        <pt x="1017" y="694" on="1"/>
        <pt x="1017" y="827" on="0"/>
        <pt x="822" y="971" on="0"/>
        <pt x="657" y="971" on="1"/>
        <pt x="488" y="971" on="0"/>
        <pt x="297" y="827" on="0"/>
      </contour>
      <contour>
        <pt x="805" y="276" on="1"/>
        <pt x="805" y="376" on="0"/>
        <pt x="776" y="467" on="0"/>
        <pt x="712" y="513" on="0"/>
        <pt x="658" y="513" on="1"/>
        <pt x="584" y="513" on="0"/>
        <pt x="509" y="408" on="0"/>
        <pt x="509" y="275" on="1"/>
        <pt x="509" y="145" on="1"/>
        <pt x="805" y="145" on="1"/>
      </contour>
    </TTGlyph>
    <TTGlyph name="uni2C45" xMin="180" yMin="0" xMax="1704" yMax="1098">
      <contour>
        <pt x="832" y="953" on="1"/>
        <pt x="832" y="180" on="1"/>
        <pt x="832" y="97" on="0"/>
        <pt x="807" y="30" on="0"/>
        <pt x="748" y="0" on="0"/>
        <pt x="694" y="0" on="1"/>
        <pt x="318" y="0" on="1"/>
        <pt x="263" y="0" on="0"/>
        <pt x="205" y="31" on="0"/>
        <pt x="180" y="98" on="0"/>
        <pt x="180" y="180" on="1"/>
        <pt x="180" y="918" on="1"/>
        <pt x="180" y="1001" on="0"/>
        <pt x="205" y="1068" on="0"/>
        <pt x="264" y="1098" on="0"/>
        <pt x="318" y="1098" on="1"/>
        <pt x="1566" y="1098" on="1"/>
        <pt x="1621" y="1098" on="0"/>
        <pt x="1679" y="1067" on="0"/>
        <pt x="1704" y="1000" on="0"/>
        <pt x="1704" y="918" on="1"/>
        <pt x="1704" y="180" on="1"/>
        <pt x="1704" y="97" on="0"/>
        <pt x="1679" y="30" on="0"/>
        <pt x="1620" y="0" on="0"/>
        <pt x="1566" y="0" on="1"/>
        <pt x="1190" y="0" on="1"/>
        <pt x="1135" y="0" on="0"/>
        <pt x="1077" y="31" on="0"/>
        <pt x="1052" y="98" on="0"/>
        <pt x="1052" y="180" on="1"/>
        <pt x="1052" y="953" on="1"/>
      </contour>
      <contour>
        <pt x="1228" y="225" on="1"/>
        <pt x="1228" y="180" on="0"/>
        <pt x="1254" y="145" on="0"/>
        <pt x="1298" y="145" on="1"/>
        <pt x="1458" y="145" on="1"/>
        <pt x="1502" y="145" on="0"/>
        <pt x="1528" y="180" on="0"/>
        <pt x="1528" y="225" on="1"/>
        <pt x="1528" y="873" on="1"/>
        <pt x="1528" y="918" on="0"/>
        <pt x="1502" y="953" on="0"/>
        <pt x="1458" y="953" on="1"/>
        <pt x="1228" y="953" on="1"/>
      </contour>
      <contour>
        <pt x="426" y="953" on="1"/>
        <pt x="382" y="953" on="0"/>
        <pt x="356" y="918" on="0"/>
        <pt x="356" y="873" on="1"/>
        <pt x="356" y="225" on="1"/>
        <pt x="356" y="180" on="0"/>
        <pt x="382" y="145" on="0"/>
        <pt x="426" y="145" on="1"/>
        <pt x="586" y="145" on="1"/>
        <pt x="630" y="145" on="0"/>
        <pt x="656" y="180" on="0"/>
        <pt x="656" y="225" on="1"/>
        <pt x="656" y="953" on="1"/>
      </contour>
    </TTGlyph>
    <TTGlyph name="uni2C46" xMin="160" yMin="0" xMax="1332" yMax="1098">
      <contour>
        <pt x="402" y="563" on="1"/>
        <pt x="291" y="611" on="0"/>
        <pt x="160" y="774" on="0"/>
        <pt x="160" y="884" on="1"/>
        <pt x="160" y="1098" on="0"/>
        <pt x="339" y="1098" on="1"/>
        <pt x="1194" y="1098" on="1"/>
        <pt x="1249" y="1098" on="0"/>
        <pt x="1307" y="1067" on="0"/>
        <pt x="1332" y="1000" on="0"/>
        <pt x="1332" y="918" on="1"/>
        <pt x="1332" y="180" on="1"/>
        <pt x="1332" y="97" on="0"/>
        <pt x="1307" y="30" on="0"/>
        <pt x="1248" y="0" on="0"/>
        <pt x="1194" y="0" on="1"/>
        <pt x="359" y="0" on="1"/>
        <pt x="260" y="0" on="0"/>
        <pt x="160" y="96" on="0"/>
        <pt x="160" y="214" on="1"/>
        <pt x="160" y="321" on="0"/>
        <pt x="288" y="504" on="0"/>
      </contour>
      <contour>
        <pt x="856" y="145" on="1"/>
        <pt x="1086" y="145" on="1"/>
        <pt x="1130" y="145" on="0"/>
        <pt x="1156" y="180" on="0"/>
        <pt x="1156" y="225" on="1"/>
        <pt x="1156" y="495" on="1"/>
        <pt x="856" y="495" on="1"/>
      </contour>
      <contour>
        <pt x="680" y="498" on="1"/>
        <pt x="525" y="487" on="0"/>
        <pt x="334" y="343" on="0"/>
        <pt x="334" y="238" on="1"/>
        <pt x="334" y="186" on="0"/>
        <pt x="361" y="145" on="0"/>
        <pt x="396" y="145" on="1"/>
        <pt x="680" y="145" on="1"/>
      </contour>
      <contour>
        <pt x="856" y="639" on="1"/>
        <pt x="1156" y="639" on="1"/>
        <pt x="1156" y="873" on="1"/>
        <pt x="1156" y="918" on="0"/>
        <pt x="1130" y="953" on="0"/>
        <pt x="1086" y="953" on="1"/>
        <pt x="856" y="953" on="1"/>
      </contour>
      <contour>
        <pt x="680" y="953" on="1"/>
        <pt x="420" y="953" on="1"/>
        <pt x="386" y="953" on="0"/>
        <pt x="350" y="937" on="0"/>
        <pt x="334" y="906" on="0"/>
        <pt x="334" y="860" on="1"/>
        <pt x="334" y="761" on="0"/>
        <pt x="506" y="648" on="0"/>
        <pt x="680" y="640" on="1"/>
      </contour>
    </TTGlyph>
    <TTGlyph name="uni2C47" xMin="130" yMin="-342" xMax="1391" yMax="1416">
      <contour>
        <pt x="1391" y="549" on="1"/>
        <pt x="1391" y="304" on="0"/>
        <pt x="1104" y="4" on="0"/>
        <pt x="848" y="-16" on="1"/>
        <pt x="848" y="-342" on="1"/>
        <pt x="672" y="-342" on="1"/>
        <pt x="672" y="-16" on="1"/>
        <pt x="420" y="5" on="0"/>
        <pt x="130" y="305" on="0"/>
        <pt x="130" y="549" on="1"/>
        <pt x="130" y="799" on="0"/>
        <pt x="418" y="1094" on="0"/>
        <pt x="678" y="1114" on="1"/>
        <pt x="678" y="1416" on="1"/>
        <pt x="848" y="1416" on="1"/>
        <pt x="848" y="1114" on="1"/>
        <pt x="1101" y="1089" on="0"/>
        <pt x="1391" y="789" on="0"/>
      </contour>
      <contour>
        <pt x="318" y="549" on="1"/>
        <pt x="318" y="168" on="0"/>
        <pt x="678" y="131" on="1"/>
        <pt x="678" y="965" on="1"/>
        <pt x="490" y="946" on="0"/>
        <pt x="318" y="735" on="0"/>
      </contour>
      <contour>
        <pt x="1205" y="549" on="1"/>
        <pt x="1205" y="924" on="0"/>
        <pt x="848" y="963" on="1"/>
        <pt x="848" y="131" on="1"/>
        <pt x="1205" y="170" on="0"/>
      </contour>
    </TTGlyph>
    <TTGlyph name="uni2C48" xMin="80" yMin="0" xMax="1292" yMax="1098">
      <contour>
        <pt x="80" y="1098" on="1"/>
        <pt x="705" y="1098" on="1"/>
        <pt x="491" y="542" on="1"/>
        <pt x="654" y="542" on="1"/>
        <pt x="662" y="594" on="0"/>
        <pt x="720" y="640" on="0"/>
        <pt x="788" y="640" on="1"/>
        <pt x="1154" y="640" on="1"/>
        <pt x="1209" y="640" on="0"/>
        <pt x="1267" y="609" on="0"/>
        <pt x="1292" y="542" on="0"/>
        <pt x="1292" y="460" on="1"/>
        <pt x="1292" y="0" on="1"/>
        <pt x="788" y="0" on="1"/>
        <pt x="733" y="0" on="0"/>
        <pt x="675" y="31" on="0"/>
        <pt x="650" y="98" on="0"/>
        <pt x="650" y="180" on="1"/>
        <pt x="650" y="397" on="1"/>
        <pt x="435" y="397" on="1"/>
        <pt x="282" y="0" on="1"/>
        <pt x="116" y="0" on="1"/>
        <pt x="483" y="953" on="1"/>
        <pt x="80" y="953" on="1"/>
      </contour>
      <contour>
        <pt x="1116" y="415" on="1"/>
        <pt x="1116" y="460" on="0"/>
        <pt x="1090" y="495" on="0"/>
        <pt x="1046" y="495" on="1"/>
        <pt x="896" y="495" on="1"/>
        <pt x="852" y="495" on="0"/>
        <pt x="826" y="460" on="0"/>
        <pt x="826" y="415" on="1"/>
        <pt x="826" y="225" on="1"/>
        <pt x="826" y="180" on="0"/>
        <pt x="852" y="145" on="0"/>
        <pt x="896" y="145" on="1"/>
        <pt x="1116" y="145" on="1"/>
      </contour>
    </TTGlyph>
    <TTGlyph name="uni2C49" xMin="130" yMin="-210" xMax="1145" yMax="1115">
      <contour>
        <pt x="1145" y="548" on="1"/>
        <pt x="1145" y="307" on="0"/>
        <pt x="924" y="12" on="0"/>
        <pt x="724" y="-17" on="1"/>
        <pt x="724" y="-210" on="1"/>
        <pt x="546" y="-210" on="1"/>
        <pt x="546" y="-16" on="1"/>
        <pt x="352" y="14" on="0"/>
        <pt x="130" y="313" on="0"/>
        <pt x="130" y="548" on="1"/>
        <pt x="130" y="816" on="0"/>
        <pt x="398" y="1115" on="0"/>
        <pt x="640" y="1115" on="1"/>
        <pt x="872" y="1115" on="0"/>
        <pt x="1145" y="810" on="0"/>
      </contour>
      <contour>
        <pt x="441" y="898" on="1"/>
        <pt x="444" y="934" on="1"/>
        <pt x="381" y="882" on="0"/>
        <pt x="312" y="682" on="0"/>
        <pt x="312" y="548" on="1"/>
        <pt x="312" y="422" on="0"/>
        <pt x="376" y="217" on="0"/>
        <pt x="443" y="160" on="1"/>
        <pt x="441" y="190" on="1"/>
        <pt x="441" y="268" on="0"/>
        <pt x="552" y="384" on="0"/>
        <pt x="635" y="384" on="1"/>
        <pt x="716" y="384" on="0"/>
        <pt x="829" y="271" on="0"/>
        <pt x="829" y="190" on="1"/>
        <pt x="826" y="155" on="1"/>
        <pt x="895" y="212" on="0"/>
        <pt x="963" y="420" on="0"/>
        <pt x="963" y="548" on="1"/>
        <pt x="963" y="682" on="0"/>
        <pt x="891" y="885" on="0"/>
        <pt x="825" y="936" on="1"/>
        <pt x="829" y="920" on="0"/>
        <pt x="829" y="898" on="1"/>
        <pt x="829" y="815" on="0"/>
        <pt x="713" y="704" on="0"/>
        <pt x="635" y="704" on="1"/>
        <pt x="555" y="704" on="0"/>
        <pt x="441" y="819" on="0"/>
      </contour>
      <contour>
        <pt x="549" y="190" on="1"/>
        <pt x="549" y="155" on="0"/>
        <pt x="600" y="104" on="0"/>
        <pt x="635" y="104" on="1"/>
        <pt x="671" y="104" on="0"/>
        <pt x="722" y="155" on="0"/>
        <pt x="722" y="190" on="1"/>
        <pt x="722" y="226" on="0"/>
        <pt x="671" y="277" on="0"/>
        <pt x="635" y="277" on="1"/>
        <pt x="600" y="277" on="0"/>
        <pt x="549" y="226" on="0"/>
      </contour>
      <contour>
        <pt x="549" y="898" on="1"/>
        <pt x="549" y="863" on="0"/>
        <pt x="600" y="812" on="0"/>
        <pt x="635" y="812" on="1"/>
        <pt x="671" y="812" on="0"/>
        <pt x="722" y="863" on="0"/>
        <pt x="722" y="898" on="1"/>
        <pt x="722" y="934" on="0"/>
        <pt x="671" y="985" on="0"/>
        <pt x="635" y="985" on="1"/>
        <pt x="600" y="985" on="0"/>
        <pt x="549" y="934" on="0"/>
      </contour>
    </TTGlyph>
    <TTGlyph name="uni2C4A" xMin="140" yMin="0" xMax="1258" yMax="1098">
      <contour>
        <pt x="1082" y="0" on="1"/>
        <pt x="1082" y="853" on="1"/>
        <pt x="1082" y="909" on="0"/>
        <pt x="1070" y="940" on="0"/>
        <pt x="1038" y="953" on="0"/>
        <pt x="1002" y="953" on="1"/>
        <pt x="862" y="953" on="1"/>
        <pt x="828" y="953" on="0"/>
        <pt x="795" y="942" on="0"/>
        <pt x="782" y="914" on="0"/>
        <pt x="782" y="853" on="1"/>
        <pt x="782" y="180" on="1"/>
        <pt x="782" y="97" on="0"/>
        <pt x="757" y="30" on="0"/>
        <pt x="698" y="0" on="0"/>
        <pt x="644" y="0" on="1"/>
        <pt x="278" y="0" on="1"/>
        <pt x="223" y="0" on="0"/>
        <pt x="165" y="31" on="0"/>
        <pt x="140" y="98" on="0"/>
        <pt x="140" y="180" on="1"/>
        <pt x="140" y="460" on="1"/>
        <pt x="140" y="543" on="0"/>
        <pt x="165" y="610" on="0"/>
        <pt x="224" y="640" on="0"/>
        <pt x="278" y="640" on="1"/>
        <pt x="606" y="640" on="1"/>
        <pt x="606" y="908" on="1"/>
        <pt x="606" y="1009" on="0"/>
        <pt x="635" y="1073" on="0"/>
        <pt x="707" y="1098" on="0"/>
        <pt x="776" y="1098" on="1"/>
        <pt x="1088" y="1098" on="1"/>
        <pt x="1160" y="1098" on="0"/>
        <pt x="1230" y="1069" on="0"/>
        <pt x="1258" y="1000" on="0"/>
        <pt x="1258" y="898" on="1"/>
        <pt x="1258" y="0" on="1"/>
      </contour>
      <contour>
        <pt x="386" y="495" on="1"/>
        <pt x="342" y="495" on="0"/>
        <pt x="316" y="460" on="0"/>
        <pt x="316" y="415" on="1"/>
        <pt x="316" y="225" on="1"/>
        <pt x="316" y="180" on="0"/>
        <pt x="342" y="145" on="0"/>
        <pt x="386" y="145" on="1"/>
        <pt x="536" y="145" on="1"/>
        <pt x="580" y="145" on="0"/>
        <pt x="606" y="180" on="0"/>
        <pt x="606" y="225" on="1"/>
        <pt x="606" y="495" on="1"/>
      </contour>
    </TTGlyph>
    <TTGlyph name="uni2C4B" xMin="140" yMin="0" xMax="1308" yMax="1098">
      <contour>
        <pt x="400" y="0" on="1"/>
        <pt x="400" y="280" on="1"/>
        <pt x="400" y="408" on="0"/>
        <pt x="447" y="495" on="1"/>
        <pt x="278" y="495" on="1"/>
        <pt x="223" y="495" on="0"/>
        <pt x="165" y="524" on="0"/>
        <pt x="140" y="588" on="0"/>
        <pt x="140" y="675" on="1"/>
        <pt x="140" y="1098" on="1"/>
        <pt x="316" y="1098" on="1"/>
        <pt x="316" y="720" on="1"/>
        <pt x="316" y="675" on="0"/>
        <pt x="341" y="640" on="0"/>
        <pt x="386" y="640" on="1"/>
        <pt x="636" y="640" on="1"/>
        <pt x="636" y="1098" on="1"/>
        <pt x="812" y="1098" on="1"/>
        <pt x="812" y="640" on="1"/>
        <pt x="1062" y="640" on="1"/>
        <pt x="1107" y="640" on="0"/>
        <pt x="1132" y="675" on="0"/>
        <pt x="1132" y="720" on="1"/>
        <pt x="1132" y="1098" on="1"/>
        <pt x="1308" y="1098" on="1"/>
        <pt x="1308" y="675" on="1"/>
        <pt x="1308" y="589" on="0"/>
        <pt x="1283" y="524" on="0"/>
        <pt x="1225" y="495" on="0"/>
        <pt x="1170" y="495" on="1"/>
        <pt x="993" y="495" on="1"/>
        <pt x="1048" y="404" on="0"/>
        <pt x="1048" y="278" on="1"/>
        <pt x="1048" y="0" on="1"/>
      </contour>
      <contour>
        <pt x="872" y="280" on="1"/>
        <pt x="872" y="375" on="0"/>
        <pt x="844" y="455" on="0"/>
        <pt x="782" y="493" on="0"/>
        <pt x="725" y="493" on="1"/>
        <pt x="647" y="493" on="0"/>
        <pt x="576" y="403" on="0"/>
        <pt x="576" y="279" on="1"/>
        <pt x="576" y="145" on="1"/>
        <pt x="872" y="145" on="1"/>
      </contour>
    </TTGlyph>
    <TTGlyph name="uni2C4C" xMin="120" yMin="0" xMax="1270" yMax="1098">
      <contour>
        <pt x="979" y="0" on="1"/>
        <pt x="850" y="0" on="1"/>
        <pt x="794" y="0" on="0"/>
        <pt x="741" y="19" on="0"/>
        <pt x="713" y="69" on="0"/>
        <pt x="702" y="147" on="1"/>
        <pt x="649" y="501" on="1"/>
        <pt x="409" y="509" on="0"/>
        <pt x="120" y="719" on="0"/>
        <pt x="120" y="884" on="1"/>
        <pt x="120" y="1001" on="0"/>
        <pt x="219" y="1098" on="0"/>
        <pt x="319" y="1098" on="1"/>
        <pt x="562" y="1098" on="1"/>
        <pt x="641" y="1098" on="0"/>
        <pt x="710" y="1077" on="0"/>
        <pt x="743" y="1022" on="0"/>
        <pt x="753" y="951" on="1"/>
        <pt x="865" y="211" on="1"/>
        <pt x="871" y="171" on="0"/>
        <pt x="889" y="145" on="0"/>
        <pt x="914" y="145" on="1"/>
        <pt x="939" y="145" on="0"/>
        <pt x="958" y="173" on="0"/>
        <pt x="964" y="211" on="1"/>
        <pt x="1101" y="1098" on="1"/>
        <pt x="1270" y="1098" on="1"/>
        <pt x="1127" y="147" on="1"/>
        <pt x="1113" y="62" on="0"/>
        <pt x="1086" y="18" on="0"/>
        <pt x="1034" y="0" on="0"/>
      </contour>
      <contour>
        <pt x="531" y="953" on="1"/>
        <pt x="356" y="953" on="1"/>
        <pt x="322" y="953" on="0"/>
        <pt x="294" y="913" on="0"/>
        <pt x="294" y="860" on="1"/>
        <pt x="294" y="763" on="0"/>
        <pt x="463" y="651" on="0"/>
        <pt x="628" y="642" on="1"/>
        <pt x="590" y="887" on="1"/>
        <pt x="585" y="918" on="0"/>
        <pt x="561" y="953" on="0"/>
      </contour>
    </TTGlyph>
    <TTGlyph name="uni2C4D" xMin="80" yMin="0" xMax="1350" yMax="1098">
      <contour>
        <pt x="311" y="1098" on="1"/>
        <pt x="460" y="1098" on="1"/>
        <pt x="402" y="937" on="1"/>
        <pt x="1027" y="937" on="1"/>
        <pt x="970" y="1098" on="1"/>
        <pt x="1119" y="1098" on="1"/>
        <pt x="1350" y="495" on="1"/>
        <pt x="983" y="495" on="1"/>
        <pt x="1038" y="404" on="0"/>
        <pt x="1038" y="278" on="1"/>
        <pt x="1038" y="0" on="1"/>
        <pt x="390" y="0" on="1"/>
        <pt x="390" y="280" on="1"/>
        <pt x="390" y="408" on="0"/>
        <pt x="437" y="495" on="1"/>
        <pt x="80" y="495" on="1"/>
      </contour>
      <contour>
        <pt x="862" y="280" on="1"/>
        <pt x="862" y="375" on="0"/>
        <pt x="834" y="455" on="0"/>
        <pt x="772" y="493" on="0"/>
        <pt x="715" y="493" on="1"/>
        <pt x="637" y="493" on="0"/>
        <pt x="566" y="403" on="0"/>
        <pt x="566" y="279" on="1"/>
        <pt x="566" y="145" on="1"/>
        <pt x="862" y="145" on="1"/>
      </contour>
      <contour>
        <pt x="1075" y="802" on="1"/>
        <pt x="792" y="802" on="1"/>
        <pt x="792" y="640" on="1"/>
        <pt x="1133" y="640" on="1"/>
      </contour>
      <contour>
        <pt x="297" y="640" on="1"/>
        <pt x="636" y="640" on="1"/>
        <pt x="636" y="802" on="1"/>
        <pt x="354" y="802" on="1"/>
      </contour>
    </TTGlyph>
    <TTGlyph name="uni2C4E" xMin="180" yMin="0" xMax="1348" yMax="1098">
      <contour>
        <pt x="1348" y="180" on="1"/>
        <pt x="1348" y="94" on="0"/>
        <pt x="1323" y="29" on="0"/>
        <pt x="1265" y="0" on="0"/>
        <pt x="1210" y="0" on="1"/>
        <pt x="318" y="0" on="1"/>
        <pt x="263" y="0" on="0"/>
        <pt x="205" y="29" on="0"/>
        <pt x="180" y="93" on="0"/>
        <pt x="180" y="180" on="1"/>
        <pt x="180" y="1098" on="1"/>
        <pt x="356" y="1098" on="1"/>
        <pt x="356" y="225" on="1"/>
        <pt x="356" y="180" on="0"/>
        <pt x="381" y="145" on="0"/>
        <pt x="426" y="145" on="1"/>
        <pt x="676" y="145" on="1"/>
        <pt x="676" y="1098" on="1"/>
        <pt x="852" y="1098" on="1"/>
        <pt x="852" y="145" on="1"/>
        <pt x="1102" y="145" on="1"/>
        <pt x="1147" y="145" on="0"/>
        <pt x="1172" y="180" on="0"/>
        <pt x="1172" y="225" on="1"/>
        <pt x="1172" y="1098" on="1"/>
        <pt x="1348" y="1098" on="1"/>
      </contour>
    </TTGlyph>
    <TTGlyph name="uni2C4F" xMin="80" yMin="0" xMax="1149" yMax="1098">
      <contour>
        <pt x="1149" y="848" on="1"/>
        <pt x="1149" y="655" on="0"/>
        <pt x="1043" y="556" on="1"/>
        <pt x="1149" y="457" on="0"/>
        <pt x="1149" y="265" on="1"/>
        <pt x="1149" y="0" on="1"/>
        <pt x="501" y="0" on="1"/>
        <pt x="501" y="267" on="1"/>
        <pt x="501" y="427" on="0"/>
        <pt x="559" y="513" on="1"/>
        <pt x="436" y="513" on="1"/>
        <pt x="444" y="486" on="0"/>
        <pt x="444" y="459" on="1"/>
        <pt x="444" y="383" on="0"/>
        <pt x="338" y="276" on="0"/>
        <pt x="261" y="276" on="1"/>
        <pt x="187" y="276" on="0"/>
        <pt x="80" y="384" on="0"/>
        <pt x="80" y="459" on="1"/>
        <pt x="80" y="531" on="0"/>
        <pt x="184" y="640" on="0"/>
        <pt x="261" y="640" on="1"/>
        <pt x="537" y="640" on="1"/>
        <pt x="501" y="721" on="0"/>
        <pt x="501" y="846" on="1"/>
        <pt x="501" y="1098" on="1"/>
        <pt x="1149" y="1098" on="1"/>
      </contour>
      <contour>
        <pt x="973" y="145" on="1"/>
        <pt x="973" y="257" on="1"/>
        <pt x="973" y="358" on="0"/>
        <pt x="946" y="442" on="0"/>
        <pt x="884" y="483" on="0"/>
        <pt x="826" y="483" on="1"/>
        <pt x="771" y="483" on="0"/>
        <pt x="706" y="438" on="0"/>
        <pt x="677" y="348" on="0"/>
        <pt x="677" y="256" on="1"/>
        <pt x="677" y="145" on="1"/>
      </contour>
      <contour>
        <pt x="677" y="953" on="1"/>
        <pt x="677" y="857" on="1"/>
        <pt x="677" y="764" on="0"/>
        <pt x="706" y="675" on="0"/>
        <pt x="771" y="630" on="0"/>
        <pt x="826" y="630" on="1"/>
        <pt x="882" y="630" on="0"/>
        <pt x="945" y="670" on="0"/>
        <pt x="973" y="754" on="0"/>
        <pt x="973" y="856" on="1"/>
        <pt x="973" y="953" on="1"/>
      </contour>
      <contour>
        <pt x="183" y="459" on="1"/>
        <pt x="183" y="425" on="0"/>
        <pt x="228" y="379" on="0"/>
        <pt x="261" y="379" on="1"/>
        <pt x="296" y="379" on="0"/>
        <pt x="341" y="425" on="0"/>
        <pt x="341" y="459" on="1"/>
        <pt x="341" y="491" on="0"/>
        <pt x="296" y="537" on="0"/>
        <pt x="258" y="537" on="1"/>
        <pt x="226" y="537" on="0"/>
        <pt x="183" y="491" on="0"/>
      </contour>
    </TTGlyph>
    <TTGlyph name="uni2C50" xMin="80" yMin="0" xMax="1095" yMax="1098">
      <contour>
        <pt x="1095" y="848" on="1"/>
        <pt x="1095" y="655" on="0"/>
        <pt x="989" y="556" on="1"/>
        <pt x="1095" y="457" on="0"/>
        <pt x="1095" y="265" on="1"/>
        <pt x="1095" y="0" on="1"/>
        <pt x="447" y="0" on="1"/>
        <pt x="447" y="267" on="1"/>
        <pt x="447" y="427" on="0"/>
        <pt x="505" y="513" on="1"/>
        <pt x="365" y="513" on="1"/>
        <pt x="369" y="477" on="1"/>
        <pt x="369" y="410" on="0"/>
        <pt x="285" y="314" on="0"/>
        <pt x="225" y="314" on="1"/>
        <pt x="166" y="314" on="0"/>
        <pt x="80" y="409" on="0"/>
        <pt x="80" y="477" on="1"/>
        <pt x="80" y="542" on="0"/>
        <pt x="160" y="640" on="0"/>
        <pt x="217" y="640" on="1"/>
        <pt x="483" y="640" on="1"/>
        <pt x="447" y="721" on="0"/>
        <pt x="447" y="846" on="1"/>
        <pt x="447" y="1098" on="1"/>
        <pt x="1095" y="1098" on="1"/>
      </contour>
      <contour>
        <pt x="919" y="145" on="1"/>
        <pt x="919" y="257" on="1"/>
        <pt x="919" y="358" on="0"/>
        <pt x="892" y="442" on="0"/>
        <pt x="830" y="483" on="0"/>
        <pt x="772" y="483" on="1"/>
        <pt x="717" y="483" on="0"/>
        <pt x="652" y="438" on="0"/>
        <pt x="623" y="348" on="0"/>
        <pt x="623" y="256" on="1"/>
        <pt x="623" y="145" on="1"/>
      </contour>
      <contour>
        <pt x="623" y="953" on="1"/>
        <pt x="623" y="857" on="1"/>
        <pt x="623" y="764" on="0"/>
        <pt x="652" y="675" on="0"/>
        <pt x="717" y="630" on="0"/>
        <pt x="772" y="630" on="1"/>
        <pt x="828" y="630" on="0"/>
        <pt x="891" y="670" on="0"/>
        <pt x="919" y="754" on="0"/>
        <pt x="919" y="856" on="1"/>
        <pt x="919" y="953" on="1"/>
      </contour>
    </TTGlyph>
    <TTGlyph name="uni2C51" xMin="80" yMin="0" xMax="1398" yMax="1097">
      <contour>
        <pt x="80" y="0" on="1"/>
        <pt x="548" y="1007" on="1"/>
        <pt x="568" y="1049" on="0"/>
        <pt x="611" y="1097" on="0"/>
        <pt x="651" y="1097" on="1"/>
        <pt x="827" y="1097" on="1"/>
        <pt x="867" y="1097" on="0"/>
        <pt x="910" y="1049" on="0"/>
        <pt x="930" y="1007" on="1"/>
        <pt x="1398" y="0" on="1"/>
      </contour>
      <contour>
        <pt x="762" y="976" on="1"/>
        <pt x="716" y="976" on="1"/>
        <pt x="700" y="976" on="0"/>
        <pt x="676" y="923" on="1"/>
        <pt x="523" y="594" on="1"/>
        <pt x="955" y="594" on="1"/>
        <pt x="802" y="923" on="1"/>
        <pt x="778" y="976" on="0"/>
      </contour>
      <contour>
        <pt x="314" y="145" on="1"/>
        <pt x="661" y="145" on="1"/>
        <pt x="661" y="459" on="1"/>
        <pt x="460" y="459" on="1"/>
      </contour>
      <contour>
        <pt x="817" y="145" on="1"/>
        <pt x="1163" y="145" on="1"/>
        <pt x="1017" y="459" on="1"/>
        <pt x="817" y="459" on="1"/>
      </contour>
    </TTGlyph>
    <TTGlyph name="uni2C52" xMin="130" yMin="-60" xMax="1107" yMax="1135">
      <contour>
        <pt x="679" y="-60" on="1"/>
        <pt x="679" y="48" on="1"/>
        <pt x="614" y="45" on="1"/>
        <pt x="397" y="45" on="0"/>
        <pt x="130" y="318" on="0"/>
        <pt x="130" y="540" on="1"/>
        <pt x="130" y="656" on="0"/>
        <pt x="164" y="746" on="1"/>
        <pt x="164" y="1135" on="1"/>
        <pt x="304" y="1135" on="1"/>
        <pt x="304" y="939" on="1"/>
        <pt x="350" y="974" on="0"/>
        <pt x="404" y="996" on="1"/>
        <pt x="404" y="1135" on="1"/>
        <pt x="544" y="1135" on="1"/>
        <pt x="544" y="1030" on="1"/>
        <pt x="592" y="1035" on="0"/>
        <pt x="621" y="1035" on="1"/>
        <pt x="838" y="1035" on="0"/>
        <pt x="1107" y="765" on="0"/>
        <pt x="1107" y="540" on="1"/>
        <pt x="1107" y="407" on="0"/>
        <pt x="1059" y="301" on="1"/>
        <pt x="1059" y="-60" on="1"/>
        <pt x="919" y="-60" on="1"/>
        <pt x="919" y="131" on="1"/>
        <pt x="872" y="98" on="0"/>
        <pt x="819" y="79" on="1"/>
        <pt x="819" y="-60" on="1"/>
      </contour>
      <contour>
        <pt x="314" y="540" on="1"/>
        <pt x="314" y="382" on="0"/>
        <pt x="476" y="192" on="0"/>
        <pt x="619" y="192" on="1"/>
        <pt x="768" y="192" on="0"/>
        <pt x="924" y="371" on="0"/>
        <pt x="924" y="540" on="1"/>
        <pt x="924" y="710" on="0"/>
        <pt x="767" y="886" on="0"/>
        <pt x="616" y="886" on="1"/>
        <pt x="474" y="886" on="0"/>
        <pt x="314" y="700" on="0"/>
      </contour>
    </TTGlyph>
    <TTGlyph name="uni2C53" xMin="180" yMin="-140" xMax="1348" yMax="1098">
      <contour>
        <pt x="180" y="918" on="1"/>
        <pt x="180" y="1004" on="0"/>
        <pt x="205" y="1069" on="0"/>
        <pt x="265" y="1098" on="0"/>
        <pt x="318" y="1098" on="1"/>
        <pt x="1210" y="1098" on="1"/>
        <pt x="1265" y="1098" on="0"/>
        <pt x="1324" y="1068" on="0"/>
        <pt x="1348" y="1002" on="0"/>
        <pt x="1348" y="918" on="1"/>
        <pt x="1348" y="429" on="1"/>
        <pt x="1348" y="301" on="0"/>
        <pt x="1314" y="218" on="0"/>
        <pt x="1274" y="205" on="1"/>
        <pt x="180" y="-140" on="1"/>
      </contour>
      <contour>
        <pt x="676" y="168" on="1"/>
        <pt x="676" y="953" on="1"/>
        <pt x="426" y="953" on="1"/>
        <pt x="381" y="953" on="0"/>
        <pt x="356" y="918" on="0"/>
        <pt x="356" y="873" on="1"/>
        <pt x="356" y="67" on="1"/>
      </contour>
      <contour>
        <pt x="852" y="223" on="1"/>
        <pt x="1116" y="307" on="1"/>
        <pt x="1151" y="318" on="0"/>
        <pt x="1172" y="365" on="0"/>
        <pt x="1172" y="402" on="1"/>
        <pt x="1172" y="873" on="1"/>
        <pt x="1172" y="918" on="0"/>
        <pt x="1147" y="953" on="0"/>
        <pt x="1102" y="953" on="1"/>
        <pt x="852" y="953" on="1"/>
      </contour>
    </TTGlyph>
    <TTGlyph name="uni2C54" xMin="40" yMin="-20" xMax="1076" yMax="1118">
      <contour>
        <pt x="40" y="640" on="1"/>
        <pt x="240" y="640" on="1"/>
        <pt x="260" y="875" on="0"/>
        <pt x="525" y="1118" on="0"/>
        <pt x="758" y="1118" on="1"/>
        <pt x="833" y="1118" on="0"/>
        <pt x="996" y="1084" on="0"/>
        <pt x="1063" y="1055" on="1"/>
        <pt x="1012" y="909" on="1"/>
        <pt x="861" y="963" on="0"/>
        <pt x="756" y="963" on="1"/>
        <pt x="600" y="963" on="0"/>
        <pt x="438" y="808" on="0"/>
        <pt x="424" y="640" on="1"/>
        <pt x="963" y="640" on="1"/>
        <pt x="963" y="495" on="1"/>
        <pt x="422" y="495" on="1"/>
        <pt x="445" y="133" on="0"/>
        <pt x="781" y="133" on="1"/>
        <pt x="922" y="133" on="0"/>
        <pt x="1076" y="195" on="1"/>
        <pt x="1076" y="39" on="1"/>
        <pt x="954" y="-20" on="0"/>
        <pt x="785" y="-20" on="1"/>
        <pt x="538" y="-20" on="0"/>
        <pt x="252" y="247" on="0"/>
        <pt x="237" y="495" on="1"/>
        <pt x="40" y="495" on="1"/>
      </contour>
    </TTGlyph>
    <TTGlyph name="uni2C55" xMin="60" yMin="-20" xMax="1279" yMax="1118">
      <contour>
        <pt x="1215" y="909" on="1"/>
        <pt x="1064" y="963" on="0"/>
        <pt x="959" y="963" on="1"/>
        <pt x="803" y="963" on="0"/>
        <pt x="641" y="808" on="0"/>
        <pt x="627" y="640" on="1"/>
        <pt x="1166" y="640" on="1"/>
        <pt x="1166" y="495" on="1"/>
        <pt x="625" y="495" on="1"/>
        <pt x="648" y="133" on="0"/>
        <pt x="984" y="133" on="1"/>
        <pt x="1125" y="133" on="0"/>
        <pt x="1279" y="195" on="1"/>
        <pt x="1279" y="39" on="1"/>
        <pt x="1157" y="-20" on="0"/>
        <pt x="988" y="-20" on="1"/>
        <pt x="741" y="-20" on="0"/>
        <pt x="455" y="247" on="0"/>
        <pt x="440" y="495" on="1"/>
        <pt x="348" y="495" on="1"/>
        <pt x="349" y="477" on="1"/>
        <pt x="349" y="410" on="0"/>
        <pt x="265" y="314" on="0"/>
        <pt x="205" y="314" on="1"/>
        <pt x="146" y="314" on="0"/>
        <pt x="60" y="409" on="0"/>
        <pt x="60" y="477" on="1"/>
        <pt x="60" y="546" on="0"/>
        <pt x="146" y="640" on="0"/>
        <pt x="205" y="640" on="1"/>
        <pt x="443" y="640" on="1"/>
        <pt x="463" y="875" on="0"/>
        <pt x="728" y="1118" on="0"/>
        <pt x="961" y="1118" on="1"/>
        <pt x="1036" y="1118" on="0"/>
        <pt x="1199" y="1084" on="0"/>
        <pt x="1266" y="1055" on="1"/>
      </contour>
    </TTGlyph>
    <TTGlyph name="uni2C56" xMin="80" yMin="0" xMax="1398" yMax="1098">
      <contour>
        <pt x="1098" y="1098" on="1"/>
        <pt x="1398" y="495" on="1"/>
        <pt x="1007" y="495" on="1"/>
        <pt x="1063" y="403" on="0"/>
        <pt x="1063" y="265" on="1"/>
        <pt x="1063" y="0" on="1"/>
        <pt x="415" y="0" on="1"/>
        <pt x="415" y="267" on="1"/>
        <pt x="415" y="411" on="0"/>
        <pt x="462" y="495" on="1"/>
        <pt x="80" y="495" on="1"/>
        <pt x="360" y="1098" on="1"/>
      </contour>
      <contour>
        <pt x="887" y="145" on="1"/>
        <pt x="887" y="257" on="1"/>
        <pt x="887" y="358" on="0"/>
        <pt x="860" y="442" on="0"/>
        <pt x="798" y="483" on="0"/>
        <pt x="740" y="483" on="1"/>
        <pt x="685" y="483" on="0"/>
        <pt x="620" y="438" on="0"/>
        <pt x="591" y="348" on="0"/>
        <pt x="591" y="256" on="1"/>
        <pt x="591" y="145" on="1"/>
      </contour>
      <contour>
        <pt x="314" y="640" on="1"/>
        <pt x="661" y="640" on="1"/>
        <pt x="661" y="953" on="1"/>
        <pt x="458" y="953" on="1"/>
      </contour>
      <contour>
        <pt x="817" y="640" on="1"/>
        <pt x="1158" y="640" on="1"/>
        <pt x="1001" y="953" on="1"/>
        <pt x="817" y="953" on="1"/>
      </contour>
    </TTGlyph>
    <TTGlyph name="uni2C57" xMin="80" yMin="-20" xMax="1526" yMax="1118">
      <contour>
        <pt x="1439" y="495" on="1"/>
        <pt x="1089" y="495" on="1"/>
        <pt x="1097" y="322" on="0"/>
        <pt x="1220" y="133" on="0"/>
        <pt x="1327" y="133" on="1"/>
        <pt x="1438" y="133" on="0"/>
        <pt x="1525" y="169" on="1"/>
        <pt x="1525" y="13" on="1"/>
        <pt x="1445" y="-20" on="0"/>
        <pt x="1317" y="-20" on="1"/>
        <pt x="1124" y="-20" on="0"/>
        <pt x="911" y="246" on="0"/>
        <pt x="900" y="495" on="1"/>
        <pt x="706" y="495" on="1"/>
        <pt x="695" y="246" on="0"/>
        <pt x="480" y="-20" on="0"/>
        <pt x="289" y="-20" on="1"/>
        <pt x="161" y="-20" on="0"/>
        <pt x="81" y="13" on="1"/>
        <pt x="81" y="169" on="1"/>
        <pt x="143" y="145" on="0"/>
        <pt x="233" y="133" on="0"/>
        <pt x="279" y="133" on="1"/>
        <pt x="384" y="133" on="0"/>
        <pt x="506" y="315" on="0"/>
        <pt x="517" y="495" on="1"/>
        <pt x="167" y="495" on="1"/>
        <pt x="167" y="640" on="1"/>
        <pt x="516" y="640" on="1"/>
        <pt x="504" y="812" on="0"/>
        <pt x="383" y="963" on="0"/>
        <pt x="273" y="963" on="1"/>
        <pt x="234" y="963" on="0"/>
        <pt x="148" y="947" on="0"/>
        <pt x="117" y="934" on="1"/>
        <pt x="80" y="1088" on="1"/>
        <pt x="179" y="1118" on="0"/>
        <pt x="302" y="1118" on="1"/>
        <pt x="485" y="1118" on="0"/>
        <pt x="688" y="877" on="0"/>
        <pt x="704" y="640" on="1"/>
        <pt x="902" y="640" on="1"/>
        <pt x="919" y="879" on="0"/>
        <pt x="1122" y="1118" on="0"/>
        <pt x="1304" y="1118" on="1"/>
        <pt x="1427" y="1118" on="0"/>
        <pt x="1526" y="1088" on="1"/>
        <pt x="1489" y="934" on="1"/>
        <pt x="1462" y="946" on="0"/>
        <pt x="1373" y="963" on="0"/>
        <pt x="1333" y="963" on="1"/>
        <pt x="1107" y="963" on="0"/>
        <pt x="1089" y="640" on="1"/>
        <pt x="1439" y="640" on="1"/>
      </contour>
    </TTGlyph>
    <TTGlyph name="uni2C58" xMin="160" yMin="-20" xMax="1666" yMax="1118">
      <contour>
        <pt x="1629" y="934" on="1"/>
        <pt x="1602" y="946" on="0"/>
        <pt x="1513" y="963" on="0"/>
        <pt x="1473" y="963" on="1"/>
        <pt x="1247" y="963" on="0"/>
        <pt x="1229" y="640" on="1"/>
        <pt x="1579" y="640" on="1"/>
        <pt x="1579" y="495" on="1"/>
        <pt x="1229" y="495" on="1"/>
        <pt x="1237" y="322" on="0"/>
        <pt x="1360" y="133" on="0"/>
        <pt x="1467" y="133" on="1"/>
        <pt x="1578" y="133" on="0"/>
        <pt x="1665" y="169" on="1"/>
        <pt x="1665" y="13" on="1"/>
        <pt x="1585" y="-20" on="0"/>
        <pt x="1457" y="-20" on="1"/>
        <pt x="1264" y="-20" on="0"/>
        <pt x="1051" y="246" on="0"/>
        <pt x="1040" y="495" on="1"/>
        <pt x="856" y="495" on="1"/>
        <pt x="856" y="147" on="1"/>
        <pt x="856" y="80" on="0"/>
        <pt x="829" y="23" on="0"/>
        <pt x="764" y="0" on="0"/>
        <pt x="675" y="0" on="1"/>
        <pt x="359" y="0" on="1"/>
        <pt x="260" y="0" on="0"/>
        <pt x="160" y="96" on="0"/>
        <pt x="160" y="214" on="1"/>
        <pt x="160" y="321" on="0"/>
        <pt x="288" y="504" on="0"/>
        <pt x="402" y="563" on="1"/>
        <pt x="291" y="611" on="0"/>
        <pt x="160" y="774" on="0"/>
        <pt x="160" y="884" on="1"/>
        <pt x="160" y="1098" on="0"/>
        <pt x="339" y="1098" on="1"/>
        <pt x="695" y="1098" on="1"/>
        <pt x="765" y="1098" on="0"/>
        <pt x="831" y="1078" on="0"/>
        <pt x="856" y="1028" on="0"/>
        <pt x="856" y="951" on="1"/>
        <pt x="856" y="640" on="1"/>
        <pt x="1042" y="640" on="1"/>
        <pt x="1059" y="879" on="0"/>
        <pt x="1262" y="1118" on="0"/>
        <pt x="1444" y="1118" on="1"/>
        <pt x="1567" y="1118" on="0"/>
        <pt x="1666" y="1088" on="1"/>
      </contour>
      <contour>
        <pt x="680" y="498" on="1"/>
        <pt x="525" y="487" on="0"/>
        <pt x="334" y="343" on="0"/>
        <pt x="334" y="238" on="1"/>
        <pt x="334" y="186" on="0"/>
        <pt x="361" y="145" on="0"/>
        <pt x="396" y="145" on="1"/>
        <pt x="631" y="145" on="1"/>
        <pt x="661" y="145" on="0"/>
        <pt x="680" y="180" on="0"/>
        <pt x="680" y="211" on="1"/>
      </contour>
      <contour>
        <pt x="680" y="887" on="1"/>
        <pt x="680" y="918" on="0"/>
        <pt x="660" y="953" on="0"/>
        <pt x="623" y="953" on="1"/>
        <pt x="420" y="953" on="1"/>
        <pt x="386" y="953" on="0"/>
        <pt x="350" y="937" on="0"/>
        <pt x="334" y="906" on="0"/>
        <pt x="334" y="860" on="1"/>
        <pt x="334" y="761" on="0"/>
        <pt x="506" y="648" on="0"/>
        <pt x="680" y="640" on="1"/>
      </contour>
    </TTGlyph>
    <TTGlyph name="uni2C59" xMin="80" yMin="-20" xMax="2046" yMax="1118">
      <contour>
        <pt x="2045" y="13" on="1"/>
        <pt x="1965" y="-20" on="0"/>
        <pt x="1837" y="-20" on="1"/>
        <pt x="1644" y="-20" on="0"/>
        <pt x="1431" y="246" on="0"/>
        <pt x="1420" y="495" on="1"/>
        <pt x="1007" y="495" on="1"/>
        <pt x="1063" y="403" on="0"/>
        <pt x="1063" y="265" on="1"/>
        <pt x="1063" y="0" on="1"/>
        <pt x="415" y="0" on="1"/>
        <pt x="415" y="267" on="1"/>
        <pt x="415" y="411" on="0"/>
        <pt x="462" y="495" on="1"/>
        <pt x="80" y="495" on="1"/>
        <pt x="360" y="1098" on="1"/>
        <pt x="1098" y="1098" on="1"/>
        <pt x="1326" y="640" on="1"/>
        <pt x="1422" y="640" on="1"/>
        <pt x="1439" y="879" on="0"/>
        <pt x="1642" y="1118" on="0"/>
        <pt x="1824" y="1118" on="1"/>
        <pt x="1947" y="1118" on="0"/>
        <pt x="2046" y="1088" on="1"/>
        <pt x="2009" y="934" on="1"/>
        <pt x="1982" y="946" on="0"/>
        <pt x="1893" y="963" on="0"/>
        <pt x="1853" y="963" on="1"/>
        <pt x="1627" y="963" on="0"/>
        <pt x="1609" y="640" on="1"/>
        <pt x="1959" y="640" on="1"/>
        <pt x="1959" y="495" on="1"/>
        <pt x="1609" y="495" on="1"/>
        <pt x="1617" y="322" on="0"/>
        <pt x="1740" y="133" on="0"/>
        <pt x="1847" y="133" on="1"/>
        <pt x="1958" y="133" on="0"/>
        <pt x="2045" y="169" on="1"/>
      </contour>
      <contour>
        <pt x="887" y="145" on="1"/>
        <pt x="887" y="257" on="1"/>
        <pt x="887" y="358" on="0"/>
        <pt x="860" y="442" on="0"/>
        <pt x="798" y="483" on="0"/>
        <pt x="740" y="483" on="1"/>
        <pt x="685" y="483" on="0"/>
        <pt x="620" y="438" on="0"/>
        <pt x="591" y="348" on="0"/>
        <pt x="591" y="256" on="1"/>
        <pt x="591" y="145" on="1"/>
      </contour>
      <contour>
        <pt x="314" y="640" on="1"/>
        <pt x="661" y="640" on="1"/>
        <pt x="661" y="953" on="1"/>
        <pt x="458" y="953" on="1"/>
      </contour>
      <contour>
        <pt x="817" y="640" on="1"/>
        <pt x="1158" y="640" on="1"/>
        <pt x="1001" y="953" on="1"/>
        <pt x="817" y="953" on="1"/>
      </contour>
    </TTGlyph>
    <TTGlyph name="uni2C5A" xMin="100" yMin="-20" xMax="1533" yMax="1118">
      <contour>
        <pt x="1389" y="386" on="1"/>
        <pt x="1389" y="425" on="1"/>
        <pt x="1389" y="462" on="0"/>
        <pt x="1364" y="495" on="0"/>
        <pt x="1319" y="495" on="1"/>
        <pt x="1282" y="495" on="1"/>
        <pt x="1270" y="252" on="0"/>
        <pt x="1023" y="-20" on="0"/>
        <pt x="812" y="-20" on="1"/>
        <pt x="613" y="-20" on="0"/>
        <pt x="364" y="254" on="0"/>
        <pt x="350" y="495" on="1"/>
        <pt x="314" y="495" on="1"/>
        <pt x="269" y="495" on="0"/>
        <pt x="244" y="462" on="0"/>
        <pt x="244" y="425" on="1"/>
        <pt x="244" y="386" on="1"/>
        <pt x="100" y="386" on="1"/>
        <pt x="100" y="517" on="1"/>
        <pt x="100" y="590" on="0"/>
        <pt x="148" y="640" on="0"/>
        <pt x="230" y="640" on="1"/>
        <pt x="353" y="640" on="1"/>
        <pt x="373" y="869" on="0"/>
        <pt x="615" y="1118" on="0"/>
        <pt x="819" y="1118" on="1"/>
        <pt x="1014" y="1118" on="0"/>
        <pt x="1259" y="864" on="0"/>
        <pt x="1280" y="640" on="1"/>
        <pt x="1403" y="640" on="1"/>
        <pt x="1485" y="640" on="0"/>
        <pt x="1533" y="590" on="0"/>
        <pt x="1533" y="517" on="1"/>
        <pt x="1533" y="386" on="1"/>
      </contour>
      <contour>
        <pt x="817" y="129" on="1"/>
        <pt x="1079" y="129" on="0"/>
        <pt x="1096" y="495" on="1"/>
        <pt x="536" y="495" on="1"/>
        <pt x="553" y="129" on="0"/>
      </contour>
      <contour>
        <pt x="814" y="967" on="1"/>
        <pt x="563" y="967" on="0"/>
        <pt x="538" y="640" on="1"/>
        <pt x="1094" y="640" on="1"/>
        <pt x="1069" y="967" on="0"/>
      </contour>
    </TTGlyph>
    <TTGlyph name="uni2C5B" xMin="160" yMin="0" xMax="929" yMax="1098">
      <contour>
        <pt x="160" y="0" on="1"/>
        <pt x="160" y="96" on="1"/>
        <pt x="160" y="224" on="0"/>
        <pt x="199" y="352" on="0"/>
        <pt x="240" y="391" on="1"/>
        <pt x="177" y="452" on="0"/>
        <pt x="177" y="549" on="1"/>
        <pt x="177" y="645" on="0"/>
        <pt x="239" y="705" on="1"/>
        <pt x="198" y="743" on="0"/>
        <pt x="160" y="870" on="0"/>
        <pt x="160" y="1002" on="1"/>
        <pt x="160" y="1098" on="1"/>
        <pt x="738" y="1098" on="1"/>
        <pt x="738" y="1004" on="1"/>
        <pt x="738" y="793" on="0"/>
        <pt x="649" y="707" on="1"/>
        <pt x="686" y="672" on="0"/>
        <pt x="720" y="587" on="0"/>
        <pt x="720" y="549" on="1"/>
        <pt x="720" y="511" on="0"/>
        <pt x="687" y="424" on="0"/>
        <pt x="650" y="389" on="1"/>
        <pt x="694" y="347" on="0"/>
        <pt x="738" y="207" on="0"/>
        <pt x="738" y="94" on="1"/>
        <pt x="738" y="0" on="1"/>
      </contour>
      <contour>
        <pt x="570" y="135" on="1"/>
        <pt x="570" y="217" on="0"/>
        <pt x="547" y="284" on="0"/>
        <pt x="496" y="317" on="0"/>
        <pt x="450" y="317" on="1"/>
        <pt x="386" y="317" on="0"/>
        <pt x="327" y="240" on="0"/>
        <pt x="327" y="135" on="1"/>
      </contour>
      <contour>
        <pt x="327" y="963" on="1"/>
        <pt x="327" y="858" on="0"/>
        <pt x="386" y="781" on="0"/>
        <pt x="450" y="781" on="1"/>
        <pt x="496" y="781" on="0"/>
        <pt x="547" y="814" on="0"/>
        <pt x="570" y="880" on="0"/>
        <pt x="570" y="963" on="1"/>
      </contour>
      <contour>
        <pt x="448" y="640" on="1"/>
        <pt x="398" y="640" on="0"/>
        <pt x="339" y="588" on="0"/>
        <pt x="339" y="548" on="1"/>
        <pt x="339" y="508" on="0"/>
        <pt x="398" y="457" on="0"/>
        <pt x="448" y="457" on="1"/>
        <pt x="497" y="457" on="0"/>
        <pt x="558" y="506" on="0"/>
        <pt x="558" y="548" on="1"/>
        <pt x="558" y="590" on="0"/>
        <pt x="497" y="640" on="0"/>
      </contour>
      <contour>
        <pt x="656" y="640" on="1"/>
        <pt x="929" y="640" on="1"/>
        <pt x="929" y="495" on="1"/>
        <pt x="656" y="495" on="1"/>
      </contour>
    </TTGlyph>
    <TTGlyph name="uni2C5C" xMin="80" yMin="0" xMax="438" yMax="1098">
      <contour>
        <pt x="262" y="0" on="1"/>
        <pt x="262" y="953" on="1"/>
        <pt x="80" y="953" on="1"/>
        <pt x="80" y="1098" on="1"/>
        <pt x="438" y="1098" on="1"/>
        <pt x="438" y="0" on="1"/>
      </contour>
    </TTGlyph>
    <TTGlyph name="uni2C5D" xMin="140" yMin="0" xMax="1118" yMax="1098">
      <contour>
        <pt x="942" y="0" on="1"/>
        <pt x="942" y="423" on="1"/>
        <pt x="140" y="55" on="1"/>
        <pt x="140" y="1042" on="1"/>
        <pt x="942" y="667" on="1"/>
        <pt x="942" y="1098" on="1"/>
        <pt x="1118" y="1098" on="1"/>
        <pt x="1118" y="0" on="1"/>
      </contour>
      <contour>
        <pt x="300" y="809" on="1"/>
        <pt x="300" y="613" on="1"/>
        <pt x="770" y="613" on="1"/>
      </contour>
      <contour>
        <pt x="300" y="475" on="1"/>
        <pt x="300" y="288" on="1"/>
        <pt x="770" y="475" on="1"/>
      </contour>
    </TTGlyph>
    <TTGlyph name="uni2C5E" xMin="80" yMin="-20" xMax="1500" yMax="1118">
      <contour>
        <pt x="702" y="0" on="1"/>
        <pt x="702" y="968" on="1"/>
        <pt x="398" y="930" on="0"/>
        <pt x="398" y="677" on="1"/>
        <pt x="398" y="531" on="0"/>
        <pt x="485" y="399" on="1"/>
        <pt x="529" y="332" on="0"/>
        <pt x="572" y="224" on="0"/>
        <pt x="572" y="169" on="1"/>
        <pt x="572" y="79" on="0"/>
        <pt x="450" y="-20" on="0"/>
        <pt x="337" y="-20" on="1"/>
        <pt x="260" y="-20" on="0"/>
        <pt x="150" y="42" on="0"/>
        <pt x="86" y="146" on="0"/>
        <pt x="80" y="209" on="1"/>
        <pt x="232" y="233" on="1"/>
        <pt x="241" y="188" on="0"/>
        <pt x="288" y="127" on="0"/>
        <pt x="326" y="127" on="1"/>
        <pt x="359" y="127" on="0"/>
        <pt x="391" y="153" on="0"/>
        <pt x="391" y="186" on="1"/>
        <pt x="391" y="220" on="0"/>
        <pt x="357" y="294" on="0"/>
        <pt x="302" y="380" on="1"/>
        <pt x="213" y="519" on="0"/>
        <pt x="213" y="677" on="1"/>
        <pt x="213" y="817" on="0"/>
        <pt x="358" y="1014" on="0"/>
        <pt x="626" y="1118" on="0"/>
        <pt x="806" y="1118" on="1"/>
        <pt x="974" y="1118" on="0"/>
        <pt x="1223" y="1016" on="0"/>
        <pt x="1367" y="810" on="0"/>
        <pt x="1367" y="677" on="1"/>
        <pt x="1367" y="525" on="0"/>
        <pt x="1278" y="384" on="1"/>
        <pt x="1220" y="292" on="0"/>
        <pt x="1189" y="220" on="0"/>
        <pt x="1189" y="186" on="1"/>
        <pt x="1189" y="153" on="0"/>
        <pt x="1221" y="127" on="0"/>
        <pt x="1254" y="127" on="1"/>
        <pt x="1322" y="127" on="0"/>
        <pt x="1348" y="233" on="1"/>
        <pt x="1500" y="209" on="1"/>
        <pt x="1494" y="146" on="0"/>
        <pt x="1430" y="42" on="0"/>
        <pt x="1320" y="-20" on="0"/>
        <pt x="1243" y="-20" on="1"/>
        <pt x="1130" y="-20" on="0"/>
        <pt x="1008" y="79" on="0"/>
        <pt x="1008" y="169" on="1"/>
        <pt x="1008" y="223" on="0"/>
        <pt x="1051" y="332" on="0"/>
        <pt x="1095" y="399" on="1"/>
        <pt x="1182" y="531" on="0"/>
        <pt x="1182" y="677" on="1"/>
        <pt x="1182" y="810" on="0"/>
        <pt x="1024" y="956" on="0"/>
        <pt x="878" y="970" on="1"/>
        <pt x="878" y="0" on="1"/>
      </contour>
    </TTGlyph>
</ttFont>
